<?xml version="1.0" encoding="utf-8"?>
<!-- Generator: Adobe Illustrator 23.0.0, SVG Export Plug-In . SVG Version: 6.00 Build 0)  -->
<svg version="1.1" id="圖層_1" xmlns="http://www.w3.org/2000/svg" xmlns:xlink="http://www.w3.org/1999/xlink" x="0px" y="0px"
	 viewBox="0 0 713.7 280.8" style="enable-background:new 0 0 713.7 280.8;" xml:space="preserve">
<style type="text/css">
	.st0{fill:#0782C0;}
	.st1{opacity:0.72;}
	.st2{opacity:0.3;fill:url(#SVGID_1_);enable-background:new    ;}
	.st3{opacity:0.3;fill:url(#SVGID_2_);enable-background:new    ;}
	.st4{opacity:0.3;fill:url(#SVGID_3_);enable-background:new    ;}
	.st5{opacity:0.49;fill:url(#SVGID_4_);enable-background:new    ;}
	.st6{opacity:0.7;fill:#090069;enable-background:new    ;}
	.st7{fill:url(#SVGID_5_);}
	.st8{fill:url(#SVGID_6_);}
	.st9{fill:url(#SVGID_7_);}
	.st10{fill:url(#SVGID_8_);}
	.st11{fill:#4F9FFF;}
	.st12{opacity:0.6;}
	.st13{fill:#FFFFFF;}
	.st14{fill:#69CAFF;}
	.st15{opacity:0.5;fill:#FFFFFF;enable-background:new    ;}
	.st16{fill:#00AAC3;}
	.st17{opacity:0.81;fill:url(#SVGID_9_);enable-background:new    ;}
	.st18{opacity:0.5;fill:#344878;enable-background:new    ;}
	.st19{opacity:0.5;fill:#FF0000;enable-background:new    ;}
	.st20{opacity:0.8;}
	.st21{opacity:0.84;}
	.st22{fill:url(#SVGID_10_);}
	.st23{fill:url(#SVGID_11_);}
	.st24{fill:url(#SVGID_12_);}
	.st25{fill:url(#SVGID_13_);}
	.st26{fill:url(#SVGID_14_);}
	.st27{fill:url(#SVGID_15_);}
	.st28{fill:url(#SVGID_16_);}
	.st29{fill:url(#SVGID_17_);}
	.st30{fill:url(#SVGID_18_);}
	.st31{fill:#9A7264;}
	.st32{fill:url(#SVGID_19_);stroke:url(#SVGID_20_);stroke-miterlimit:10;}
	.st33{fill:url(#SVGID_21_);}
	.st34{fill:url(#SVGID_22_);}
	.st35{fill:url(#SVGID_23_);}
	.st36{fill:url(#SVGID_24_);}
	.st37{fill:url(#SVGID_25_);}
	.st38{fill:url(#SVGID_26_);}
	.st39{fill:url(#SVGID_27_);}
	.st40{fill:url(#SVGID_28_);}
	.st41{fill:url(#SVGID_29_);}
	.st42{opacity:0.71;}
	.st43{fill:url(#SVGID_30_);}
	.st44{fill:url(#SVGID_31_);}
	.st45{fill:url(#SVGID_32_);}
	.st46{fill:url(#SVGID_33_);}
	.st47{fill:url(#SVGID_34_);}
	.st48{fill:url(#SVGID_35_);}
	.st49{fill:url(#SVGID_36_);}
	.st50{fill:url(#SVGID_37_);}
	.st51{fill:#B4C389;}
	.st52{fill:#B48989;}
	.st53{fill:#002F8B;}
	.st54{fill:url(#SVGID_38_);stroke:url(#SVGID_39_);stroke-miterlimit:10;}
	.st55{fill:#90A47D;}
	.st56{opacity:0.81;fill:url(#SVGID_40_);enable-background:new    ;}
	.st57{opacity:0.81;fill:url(#SVGID_41_);enable-background:new    ;}
</style>
<path class="st0" d="M86.9,274.1c0.2-0.9,0.4-1.9,0.6-2.8c1.1-0.6,2.4-0.4,3.3,0.5l0.3,0.3c0.1,0.1,0.2,0.2,0.3,0.3
	c0.1,0.1,0.3,0.2,0.4,0.3c0.1,0.1,0.3,0.1,0.4,0.1c0.1,0,0.3,0.1,0.4,0.1h0.1c0.6,0.1,1.3,0,1.8-0.4c0.5-0.4,1.2-0.5,1.8-0.4
	c0.3,0,0.6,0.1,0.8,0.3c0.3,0.1,0.5,0.3,0.7,0.5l0.1,0.1c0.1,0.1,0.2,0.2,0.3,0.3c0.4,0.4,0.9,0.6,1.4,0.6h0.1
	c0.4,0.1,0.8,0.1,1.1,0c0.1,0,0.3-0.1,0.4-0.1c0.4-0.3,1-0.6,1.6-0.6c0.2,0,0.4,0,0.6,0c1.4,0.2,1.5,1,2.2,1.5
	c0.3,0.2,0.7,0.3,1.1,0.4h0.1c1,0.2,2.1-0.1,2.9-0.9c0.4,0.2,0.7,0.4,1.1,0.6c0.5,0.2,1,0.4,1.5,0.6c0.7,0.3,1.5,0.5,2.2,0.6
	c7,1.1,13.4-3.3,14.5-9.8l0.9-5.7l0,0l0.7-4.4V256l0,0l0.8-4.9c0.4-2.4,0-4.8-1.1-6.9c-1.9-3.7-5.5-6.3-9.6-6.9
	c-0.4-0.1-0.9-0.1-1.3-0.1c-0.9-0.1-1.7-0.1-2.6,0c-0.4,0-0.8,0.1-1.3,0.2c-0.1-0.1-0.2-0.3-0.3-0.4c-0.3-0.4-0.7-0.7-1.1-1
	c-0.1-0.1-0.2-0.1-0.3-0.2c-0.2-0.1-0.5-0.2-0.8-0.2h-0.1c-0.8-0.1-1.6,0.1-2.2,0.6c-0.5,0.2-1,0.3-1.5,0.2
	c-1.9-0.3-1.3-1.6-3.3-1.9h-0.1c-1.9-0.3-1.8,1.1-3.7,0.8c-0.7-0.1-1.4-0.5-1.8-1.1c-0.2-0.2-0.4-0.4-0.7-0.5
	c-0.1-0.1-0.3-0.1-0.4-0.2l-0.4-0.1h-0.1c-0.4-0.1-0.8-0.1-1.1,0c-0.9,0.3-1.1,1-2.6,0.7c-0.5-0.1-1-0.3-1.4-0.6
	c-0.4-0.7-1.1-1.1-1.9-1.2h-0.1c-0.2,0-0.4,0-0.6,0c-0.6,0.1-1.1,0.3-1.6,0.6c-0.1,0.1-0.3,0.1-0.4,0.2c-0.2,0-0.3,0.1-0.5,0.1
	c-0.2,0-0.4,0-0.6,0c-0.3,0-0.6-0.1-0.8-0.3c-0.1-0.1-0.3-0.2-0.4-0.3c-0.2-0.2-0.4-0.4-0.5-0.6c-0.1-0.2-0.3-0.3-0.5-0.4
	c-0.1-0.1-0.3-0.2-0.4-0.2c-0.2-0.1-0.4-0.1-0.6-0.2h-0.1c-0.2,0-0.4,0-0.6,0c-0.4,0-0.9,0.2-1.2,0.4c-0.5,0.4-1.2,0.5-1.8,0.4
	c-0.2,0-0.4-0.1-0.6-0.1c-0.2-0.1-0.3-0.1-0.4-0.2c-0.1-0.1-0.2-0.2-0.3-0.3c-0.4-0.7-1.1-1.1-1.9-1.2h-0.1c-0.5-0.1-1,0-1.4,0.1
	c-0.1,0-0.2,0.1-0.3,0.2l-0.5,0.3c-0.5,0.2-1,0.3-1.5,0.2c-0.4-0.1-0.7-0.2-1-0.4c-0.5-0.4-0.7-0.8-1.2-1.2c-0.3-0.2-0.6-0.3-1-0.3
	h-0.1c-0.7-0.1-1.4-0.2-2.1-0.2h-0.4c-0.3,0-0.6-0.1-1.1-0.1l-0.6-0.1c-0.5-0.1-0.8-0.2-1.1-0.3c-0.6-0.2-1.1-0.3-1.7-0.4h-0.1
	c-1.9-0.3-1.6-0.1-3.5-0.4c-0.7-0.1-1.1-0.2-1.4-0.3l-0.7-0.2c-0.3-1.3-0.7-2.7-1.2-3.9c-1.6-3.7-4.7-5.2-8.7-4.1
	c-2.5,0.7-3.5,2.6-3.3,6.3l-0.8-0.1l-1.5-0.2c-1-0.1-2-0.3-3-0.4c-2.5-0.4-5.1-0.1-7.3,1.1c0,0-5.1,3.7-9.4,6.2l-1.1,0.6l-0.5,0.3
	c-0.9,0.5-1.8,0.9-2.7,1.1l0,0c-0.1,0-0.3,0.1-0.4,0.1h-0.2h-0.4h-0.2h-0.4h-0.3h-0.4h-1.7h-0.6h-0.1l0.2-1.1l-1.2-0.2l-0.2,1.2
	l-1.1-0.1l0.1-0.8l-6.7-0.8l-2,13l0,0l6.6,1.5l0.1-0.8l0,0l1,0.3l0,0l-0.2,1.1l1.2,0.2l0.2-1l0.7,0.2l0.3,0.1l0.4,0.1l0.3,0.1
	l0.4,0.1l0.3,0.1l0.4,0.1l0.3,0.1l0.3,0.1l0.2,0.1l0.3,0.1l0.1,0.1l0.4,0.2c1.6,1.3,3.1,2.7,4.4,4.3c0.4,0.5,0.9,1,1.3,1.5l0.4,0.5
	c2.4,2.9,4.5,5.7,4.5,5.7c0.3,0.3,0.6,0.6,1,0.9l0.3,0.3c0.5,0.4,1.1,0.7,1.7,1c1.2,0.6,2.4,1,3.6,1.1l2,0.3
	c-1.1,2.7-2.9,5.1-5.2,6.9c-2.6,1.9-4.5,4.6-5.5,7.7c-0.4,1.3-0.9,1.9-1.7,2.2h65C85.4,280,85.8,278.7,86.9,274.1z"/>
<g class="st1">
	
		<image style="overflow:visible;enable-background:new    ;" width="202" height="136" xlink:href="266CA7AB.png"  transform="matrix(0.9926 0 0 0.9926 -33.3774 182.35)">
	</image>
</g>
<path class="st0" d="M619.5,276.9l10.7-7.3l1.9-1.3l0.9-0.6c1.8-1.2,3.3-2.9,4.3-4.8c1.3-2.9,2.6-7.4,5-9l0.7-0.5l0.7-0.5l0.2,0.3
	c0.1,0.3,0.5,0.4,0.7,0.2c0,0,0.1,0,0.1,0l0,0c0.3-0.2,0.5-0.7,0.3-1l-0.3-0.4c0.1-0.1,0.1-0.1,0.2-0.2l0.7,1l7.2-5.8l-4.3-6.2
	l-0.5-0.7l-4.3-6.2l-8,4.6l0.7,1l-0.3,0.1l-0.3-0.4c-0.3-0.3-0.8-0.3-1.1-0.1l0,0c-0.3,0.2-0.3,0.6,0,0.9l0.2,0.3
	c-0.2,0.2-0.5,0.4-0.7,0.5l-0.7,0.5c-2.3,1.6-7,1.2-10.2,1.4c-2.2,0.3-4.2,1.1-6,2.3l-1.2,0.8l-12,8.1l-17.7,12.1l-0.2,0.1l-7.5,5.1
	l-0.2-0.1c-6.5-2.9-13-5.8-19.1-9.6c-5.2-3.3-10.6-6.1-16.1-8.9c-4.8-2.5-10.1-3.9-15.5-4.1c-9.4-0.1-18.8,0.8-28.1,2.6
	c-5.7,1.2-11.5,0.9-17.1-0.8c-5.8-2.1-11.4-4.6-16.7-7.6c-8.6-4.8-18.7-6-28.1-3.2c-4.5,1.2-8.9,2.8-13.1,4.6
	c-2.8-1.3-5.8-2.4-8.8-3.3c-5.8-1.4-10.4-2.2-17.1-8.9s-9.5-8.4-9.5-8.4l-3.2-1.8l-1.4-0.8l-2.8-1.5l-1.5-0.8l-1.3-0.7l-2.1-1.1
	l-2.9-1.6l-2.5-1.4l-5.1-2.8l-0.6-0.3l-1.9-1l-2-1.1l-1.1-0.6c-15.2-8.4-36.5-3.1-36.5-3.1l-3.8-2l1-1.8l0,0l0.1-0.1l-1.5-0.9
	l-1.1,2l-1.6-0.8l0.7-1.2l0,0l0.1-0.2l-9.4-4.6l-10.6,19.1l0,0l-0.1,0.2l8.8,5.7l0.8-1.5l0,0l-0.1,0.2l1.5,0.9l-1.1,1.9l0,0
	l-0.1,0.2l1.5,0.9l1.1-2.1l3.7,2.2c0,0,6.8,20.9,22,29.3l3.9,2.1l1.5,0.9l0.7,0.4l1,0.5l12.5,7l0.6,0.4l3.5,2l0.8,0.5l0.5,0.3
	l0.4,0.2l0.7,0.4l0.2,0.1l1.9,1c1.6,0.7,3.2,1.3,4.9,1.8h-16c-1.6,0-3.1-0.2-4.6-0.5c-4-0.7-7.4-2.6-10.9-4.3
	c-7.8-3.8-16.2-6.1-24.8-6.9l2.3-1.5c6.1-4.2,8.3-12.1,4.3-18.4c-7.9-12.2-17.5-14.9-30.5-11.1c-8.3,2.4-15.3,7.4-21.9,12.7
	c-1.1,1-2.5,1.5-4,1.4c-6.4-0.6-12.1-2.6-16.8-7.1c-2.3-2.4-5-4.4-7.9-5.9c-7.4-3.6-14.5-7.7-22.1-10.8c-6.5-2.7-13.3-4.6-20.3-5.7
	c-7.4-1.1-14.9-1.9-22.1-4c-4.7-1.4-9.5-2-14.4-1.7c-6.1,0.3-9.4,3.8-9.6,9.8c-0.1,3.1,0.5,6.2,1.6,9.1c0.9,2.1,0.6,4.5-0.9,6.2
	c-3,3.5-4.9,7.7-7.3,11.6c-3.2,5.3-3.2,7.8,0.8,12.7c2.2,2.6,2.2,4.9,1.1,8c-1.7,4.4-3.9,8.8-3.6,13.7c0.1,2-0.4,3-1.7,3.4h473.5
	L619.5,276.9z"/>
<g class="st1">
	
		<image style="overflow:visible;enable-background:new    ;" width="585" height="159" xlink:href="266CA7A9.png"  transform="matrix(0.9937 0 0 0.9937 105.7196 159.35)">
	</image>
</g>
<radialGradient id="SVGID_1_" cx="89.52" cy="54.6855" r="63.51" gradientTransform="matrix(1 0 0 -1 0 281.9055)" gradientUnits="userSpaceOnUse">
	<stop  offset="0" style="stop-color:#FFFF46"/>
	<stop  offset="7.000000e-02" style="stop-color:#E0E04F"/>
	<stop  offset="0.21" style="stop-color:#A6A55E"/>
	<stop  offset="0.36" style="stop-color:#74736C"/>
	<stop  offset="0.5" style="stop-color:#4C4977"/>
	<stop  offset="0.64" style="stop-color:#2C2980"/>
	<stop  offset="0.77" style="stop-color:#151386"/>
	<stop  offset="0.89" style="stop-color:#08058A"/>
	<stop  offset="1" style="stop-color:#03008B"/>
</radialGradient>
<path class="st2" d="M86.9,274c2.1-8.4,2.8-17,0.5-25.5c-0.8-3-2.2-5.8-3-8.8c-0.7-2.5-2.3-3.4-4.6-3.5c-4.6-0.4-9.2,0.3-13.4,2
	c-5.4,2.4-5.5,2.3-6.8-3.7c-0.1-0.4-0.1-0.7-0.2-1.1c-1-3.5-1.3-7.2-2.7-10.6c-1.6-3.7-4.7-5.2-8.7-4.1c-2.7,0.7-3.7,2.8-3.2,6.9
	c0.1,0.9,0.4,1.8,0.7,2.6c1.3,3.6,1,7.5-0.8,10.8c-3.5,6.7-7.5,13.3-8.5,21c-0.5,4.1-2.7,7.9-6.1,10.3c-2.6,1.9-4.5,4.6-5.5,7.7
	c-0.4,1.5-1,2-2,2.3h65.8C85.4,280.1,85.7,279,86.9,274z"/>
<radialGradient id="SVGID_2_" cx="394.2874" cy="-76.7254" r="217.93" gradientTransform="matrix(0.9924 0.1231 5.661767e-02 -0.4565 -6.9983 141.5129)" gradientUnits="userSpaceOnUse">
	<stop  offset="0" style="stop-color:#FFFFFF"/>
	<stop  offset="1" style="stop-color:#000000"/>
</radialGradient>
<path class="st3" d="M590.2,279.3c-3-4-7.1-6.2-11.5-8.2c-6.5-2.9-13-5.8-19.1-9.6c-5.2-3.3-10.6-6.1-16.1-8.9
	c-4.8-2.5-10.1-3.9-15.5-4c-9.4-0.1-18.8,0.8-28.1,2.6c-5.7,1.2-11.5,0.9-17.1-0.8c-5.8-2.1-11.4-4.6-16.7-7.7
	c-8.6-4.8-18.7-6-28.1-3.2c-9.4,2.7-18.5,6.5-27,11.4c-9.5,5.4-18.1,12.4-27.8,17.6c-1.4,0.8-2.9,1.1-4.4,1.1c-8.3,0-16.7,0-25,0
	c-1.6,0-3.1-0.2-4.6-0.5c-4-0.7-7.4-2.6-10.9-4.3c-7.8-3.8-16.2-6.1-24.8-6.9l2.3-1.5c6.1-4.2,8.3-12.1,4.3-18.4
	c-7.9-12.2-17.5-14.9-30.5-11.1c-8.3,2.4-15.3,7.4-21.9,12.7c-1.1,1-2.5,1.5-4,1.4c-6.4-0.6-12.1-2.6-16.8-7.1
	c-2.3-2.4-5-4.3-7.9-5.9c-7.4-3.6-14.5-7.7-22.1-10.8c-6.5-2.7-13.3-4.6-20.3-5.7c-7.4-1.1-14.9-1.9-22.1-4
	c-4.7-1.3-9.5-1.9-14.4-1.6c-6.1,0.3-9.4,3.8-9.6,9.8c-0.1,3.1,0.5,6.2,1.6,9.1c0.9,2.1,0.6,4.5-0.9,6.2c-3,3.6-4.9,7.7-7.3,11.6
	c-3.2,5.3-3.2,7.8,0.8,12.7c2.2,2.6,2.2,4.9,1.1,8c-1.7,4.4-3.9,8.8-3.6,13.7c0.1,2.2-0.4,3.1-2,3.5H592
	C591.3,280.3,590.6,279.9,590.2,279.3z"/>
<radialGradient id="SVGID_3_" cx="394.0787" cy="-77.3074" r="217.93" gradientTransform="matrix(0.9924 0.1231 5.661767e-02 -0.4565 -6.9983 141.5129)" gradientUnits="userSpaceOnUse">
	<stop  offset="0" style="stop-color:#FFFFFF"/>
	<stop  offset="1" style="stop-color:#000000"/>
</radialGradient>
<path class="st4" d="M590,279.6c-3-4-7.1-6.2-11.5-8.2c-6.5-2.9-13-5.8-19.1-9.6c-5.2-3.3-10.6-6.1-16.1-8.9
	c-4.8-2.5-10.1-3.9-15.5-4c-9.4-0.1-18.8,0.8-28.1,2.6c-5.7,1.2-11.5,0.9-17.1-0.8c-5.8-2.1-11.4-4.6-16.7-7.7
	c-8.6-4.8-18.7-6-28.1-3.2c-9.4,2.7-18.5,6.5-27,11.4c-9.5,5.4-18.1,12.4-27.8,17.6c-1.4,0.8-2.9,1.1-4.4,1.1c-8.3,0-16.7,0-25,0
	c-1.6,0-3.1-0.2-4.6-0.5c-4-0.7-7.4-2.6-10.9-4.3c-7.8-3.8-16.2-6.1-24.8-6.9l2.3-1.5c6.1-4.2,8.3-12.1,4.3-18.4
	c-7.9-12.2-17.5-14.9-30.5-11.1c-8.3,2.4-15.3,7.4-21.9,12.7c-1.1,1-2.5,1.5-4,1.4c-6.4-0.6-12.1-2.6-16.8-7.1
	c-2.3-2.4-5-4.3-7.9-5.9c-7.4-3.6-14.5-7.7-22.1-10.8c-6.5-2.7-13.3-4.6-20.3-5.7c-7.4-1.1-14.9-1.9-22.1-4
	c-4.7-1.3-9.5-1.9-14.4-1.6c-6.1,0.3-9.4,3.8-9.6,9.8c-0.1,3.1,0.5,6.2,1.6,9.1c0.9,2.1,0.6,4.5-0.9,6.2c-3,3.6-4.9,7.7-7.3,11.6
	c-3.2,5.3-3.2,7.8,0.8,12.7c2.2,2.6,2.2,4.9,1.1,8c-1.7,4.4-3.9,8.8-3.6,13.7c0.1,2.2-0.4,3.1-2,3.5h451.6
	C591,280.5,590.4,280.2,590,279.6z"/>
<radialGradient id="SVGID_4_" cx="470.6667" cy="181.1492" r="60.87" gradientTransform="matrix(-0.2534 0.9674 2.9698 0.778 -51.7471 -366.4871)" gradientUnits="userSpaceOnUse">
	<stop  offset="0" style="stop-color:#FFFF46"/>
	<stop  offset="1" style="stop-color:#03008B"/>
</radialGradient>
<path class="st5" d="M149.3,273.9c0.9-2.5,1.8-5,2.6-7.5c0.6-1.6,1.3-1.8,2.5-0.5s2.7,2.5,4.1,3.6c1,0.7,1.5,1.9,1.4,3.1
	c0,0.9,0,1.8-0.1,2.7c-0.2,4.2-0.3,5.2-2.6,5.5h8.8c-0.2-0.2-0.4-0.4-0.4-0.7c-0.4-1.9-1.1-4.4,0.7-6c2.2-1.9,1.3-3.4-0.3-4.7
	c-3.9-2.9-7.6-6-11-9.4c-2.7-2.6-5.1-5.5-7.4-8.5c-1.3-1.9-1.6-3.6-0.4-5.6c2.6-4.3,4.6-9,7.6-13c1.9-2.4,2.4-5.7,1.2-8.5
	c-1-2.5-1.6-5.1-1.6-7.7c0.1-5,2.9-7.2,7.9-6.9c4.3,0.3,8.3,1.5,12.3,2.6c8.8,2.4,17.8,2.9,26.7,4.7c10,2.1,19,6.6,28,11
	c6.5,3.3,12.6,7.5,18,12.4c3.1,3,7.3,4.5,11.5,4.3c5.3-0.3,9.8,1.6,13.8,5.1c1.4,1.2,2.9,2.2,4.5,3.1c4,2.4,7.1,6.1,8.8,10.5
	c2,5,4.3,9.8,6.6,14.7c0.8,1.7,0.6,2.3-0.4,2.6h10c-1.7-0.3-3-1.6-3.5-3.2c-0.5-1.4-1-2.7-1.7-4c-1.7-3.6-1.5-3.9,2-5.6
	c6.1-3,12.3-5.8,19.3-4.8c6.8,0.8,13.4,3,19.4,6.5c6.5,3.9,13.6,4.5,20.8,4.8c7.7,0.3,15.3-0.4,23,0c7.4,0.4,14.6,2.2,21.4,5.2
	c0.4,0.2,0.8,0.4,1.1,0.7l-0.1,0.6h11c-1.4-0.2-2.8-0.9-3.8-1.9c-3.3-3.2-7.9-4.2-12.1-5.5c-2.5-0.8-5.2-1.2-7.7-1.8
	c-0.6-0.1-1.4-0.1-1.6-0.9s0.6-0.8,1-1.1c8.5-5.2,16.5-11.2,25.2-16c9.2-5,18.8-9,29.2-10.7c4.2-0.7,8.5-0.3,12.4,1.3
	c6.9,2.7,13.4,6.4,20.1,9.5c6.3,2.9,13.4,3.9,20.3,2.9c9.9-1.3,19.7-2.9,29.7-2.6c6.7,0.2,12.1,3.3,17.6,6.3c7.8,4.3,15,9.4,23,13.3
	c2.8,1.3,6,1.7,8.5,3.8c0.4,0.4,0.9,0.6,1.3,1c0.6,0.6,1.5,1.2,1.2,2c-0.1,0.2-0.2,0.3-0.3,0.4H592c-0.7-0.1-1.4-0.5-1.8-1.1
	c-3-4-7.1-6.2-11.5-8.2c-6.5-2.9-13-5.8-19.1-9.6c-5.2-3.3-10.6-6.1-16.1-8.9c-4.8-2.5-10.1-3.9-15.5-4c-9.4-0.1-18.8,0.8-28,2.6
	c-5.7,1.2-11.5,0.9-17.1-0.8c-5.8-2.1-11.4-4.6-16.7-7.7c-8.6-4.8-18.7-6-28.1-3.2c-9.4,2.7-18.5,6.5-27,11.4
	c-9.5,5.4-18.1,12.4-27.8,17.6c-1.4,0.8-2.9,1.1-4.4,1.1c-8.3,0-16.7,0-25,0c-1.6,0-3.1-0.2-4.6-0.5c-4-0.7-7.4-2.6-10.9-4.3
	c-7.8-3.8-16.2-6.1-24.8-6.9l2.3-1.5c6.1-4.2,8.3-12.1,4.3-18.4c-7.9-12.2-17.5-14.9-30.5-11.1c-8.3,2.4-15.3,7.4-21.9,12.7
	c-1.1,1-2.5,1.5-4,1.4c-6.4-0.6-12.1-2.6-16.8-7.1c-2.3-2.4-5-4.3-7.9-5.9c-7.4-3.6-14.5-7.7-22.1-10.8c-6.5-2.7-13.3-4.6-20.3-5.7
	c-7.4-1.1-14.9-1.9-22.1-4c-4.7-1.3-9.5-1.9-14.4-1.6c-6.1,0.3-9.4,3.8-9.6,9.8c-0.1,3.1,0.5,6.2,1.6,9.1c0.9,2.1,0.6,4.5-0.9,6.2
	c-3,3.6-4.9,7.7-7.3,11.6c-3.2,5.3-3.2,7.8,0.8,12.7c2.2,2.6,2.2,4.9,1.1,8c-1.7,4.4-3.9,8.8-3.6,13.7c0.1,2.2-0.4,3.1-2,3.5h11.4
	C148,280.5,147.6,279,149.3,273.9z M272.1,241.9c5.7-4.1,11.5-8.1,18.2-10.5c2.6-1,5.3-1.5,8.1-1.4c8.9,0,16.3,4.9,19,12.3
	c1.3,3.5,0.7,5.7-2.3,7.9c-3.4,2.4-6.9,4.8-9.4,8.3c-0.7,0.9-1.7,1.5-2.7,1.7c-2.9,0.6-5.6,1.6-8.3,2.8c-1.4,0.7-2.5,0.4-3.2-1
	c-3.9-8.4-10.9-13.3-19-16.9C270.3,244,270.1,243.3,272.1,241.9L272.1,241.9z"/>
<path class="st6" d="M31.8,280.1c-0.3-0.9,0-1.9,0.8-2.5c1.3-1.5,2.6-3,4.1-4.4c2.9-2.7,4.7-6.4,5-10.4c0.7-6.9,3.9-12.9,7.1-18.9
	c3-5.4,4.2-10.9,1.7-16.8c-0.3-0.7-0.7-1.8,0.4-2.1s1.2,0.9,1.5,1.6c1.7,4.3,1.4,9,3.2,13.3c0.3,0.8,0.5,1.6,0.8,2.3
	c2.1,4.7,4.2,5.5,8.8,3.2c3.8-1.9,7.5-3.7,12-3.5c1.5-0.1,2.8,0.8,3.3,2.2c4.3,10.2,4.1,20.7,1.6,31.2c-1,4-1.8,5.1-4.7,5.4h11
	c-3-0.3-2.7-1.4-1.5-6.4c2.1-8.4,2.8-17,0.5-25.5c-0.8-3-2.2-5.8-3-8.8c-0.7-2.5-2.3-3.4-4.6-3.5c-4.6-0.4-9.2,0.2-13.4,2
	c-5.4,2.4-5.5,2.3-6.8-3.7c-0.1-0.4-0.1-0.7-0.2-1.1c-1-3.5-1.3-7.2-2.7-10.6c-1.6-3.7-4.7-5.2-8.7-4.1c-2.7,0.7-3.7,2.8-3.2,6.9
	c0.1,0.9,0.4,1.8,0.7,2.6c1.3,3.6,1,7.5-0.8,10.8c-3.5,6.7-7.5,13.3-8.5,21c-0.5,4.1-2.7,7.9-6.1,10.3c-2.6,1.9-4.5,4.6-5.5,7.7
	c-0.4,1.5-1,2.1-2,2.3h10C32.2,280.7,32,280.4,31.8,280.1z"/>
<radialGradient id="SVGID_5_" cx="317.52" cy="75.8055" r="74.07" gradientTransform="matrix(1 0 0 -1 0 281.9055)" gradientUnits="userSpaceOnUse">
	<stop  offset="0" style="stop-color:#FFB149"/>
	<stop  offset="1" style="stop-color:#4A4A4A"/>
</radialGradient>
<path class="st7" d="M225.8,250.7c-1.6-2.6-3.5-4.9-5.7-7c-0.4-0.4-0.8-0.9-1.4-0.5c-0.2,0.2-0.2,0.6-0.3,0.9
	c1.3,4.4,2.4,8.7,4.6,12.7c0.6,0.9,1.5,1.6,2.6,2c0.9,0.5,2.1,0.3,2.8-0.5c0.6-0.7,0.7-1.8,0.1-2.5
	C227.6,254.1,226.8,252.4,225.8,250.7z"/>
<radialGradient id="SVGID_6_" cx="317.52" cy="75.8055" r="74.07" gradientTransform="matrix(1 0 0 -1 0 281.9055)" gradientUnits="userSpaceOnUse">
	<stop  offset="0" style="stop-color:#FFB149"/>
	<stop  offset="1" style="stop-color:#616161"/>
</radialGradient>
<path class="st8" d="M230.6,242c-0.4-0.5-1-0.8-1.7-0.9c-0.7,0-1.3,0.4-1.5,1c-0.3,0.7-0.2,1.5,0.4,2c2.2,2.6,4.5,5.3,6.8,7.9
	c0.9,1,2,2,3.3,0.9s0.3-2.3-0.4-3.2C235.4,247,233.1,244.4,230.6,242z"/>
<radialGradient id="SVGID_7_" cx="317.52" cy="75.8055" r="74.07" gradientTransform="matrix(1 0 0 -1 0 281.9055)" gradientUnits="userSpaceOnUse">
	<stop  offset="0" style="stop-color:#FFB149"/>
	<stop  offset="1" style="stop-color:#3D3D3D"/>
</radialGradient>
<path class="st9" d="M189.8,230.8c-1-0.4-2.2,0.1-2.6,1.1c-0.1,0.1-0.1,0.3-0.1,0.5c-0.8,3.1-1.5,6.2-2.1,9.3c-0.3,1,0.3,2,1.2,2.3
	c0.1,0,0.1,0,0.2,0c1.1,0.3,1.7-0.5,2.1-1.4c1.2-2.9,2.1-6,2.7-9.1C191.5,232.4,190.9,231.2,189.8,230.8
	C189.8,230.8,189.8,230.8,189.8,230.8z"/>
<radialGradient id="SVGID_8_" cx="317.52" cy="75.8055" r="74.07" gradientTransform="matrix(1 0 0 -1 0 281.9055)" gradientUnits="userSpaceOnUse">
	<stop  offset="0" style="stop-color:#FFB149"/>
	<stop  offset="1" style="stop-color:#7A7A7A"/>
</radialGradient>
<path class="st10" d="M452.5,257.8c-3.8-0.9-7.7-0.3-11.1,1.6c-0.9,0.5-1.8,1.2-1.3,2.4c0.4,0.9,1.5,1.3,2.4,0.9
	c0.1,0,0.2-0.1,0.2-0.1c5.8-2.6,11.3-0.5,16.8,1.1c6.5,1.8,12.5,5,19.1,6.7c2.1,0.5,4.1,1.3,6.4,0.2c-4.6-1.1-7.9-4.7-12.4-6.3
	C465.9,261.8,459.4,259.1,452.5,257.8z"/>
<g id="water_2">
	
		<rect x="302.9" y="210.6" transform="matrix(0.4851 -0.8745 0.8745 0.4851 -22.6251 384.5457)" class="st11" width="24.7" height="1.8"/>
	<polygon class="st11" points="307.4,220.2 318.5,200.1 309.1,195.4 298.5,214.5 	"/>
	<g class="st12">
		<path class="st13" d="M430.4,263.3c-8.9-4.9-10.2-5.2-11.8-5.6c-1.9-0.5-4.3-1-13.9-5.7c-10.3-5-13.6-8.8-16.9-12.4
			c-3-3.3-6.8-6.3-15.2-13.5c-20.4-17.6-46.4-18.8-46.4-18.8c6-1,12.1-1,18.1,0.1c8.5,1.7,19.1,7.3,31.1,14
			c10.7,5.9,14.3,10,17.5,13.6c3,3.4,5.7,6.3,14.8,10.8c8.8,4.3,10.9,4.8,12.4,5.2c2.4,0.6,4.2,1.1,13.5,6.3
			c6.1,3.4,19,10.2,19.1,10.2l-2.8,6.7C449.9,274.1,436.5,266.7,430.4,263.3z"/>
	</g>
	<path class="st14" d="M363.2,266.8l-25.6-14.2c5.2-7.5,9.9-15.2,14.3-23.1c4-7.1,7.4-14,10.5-20.8l25.6,14.2
		c-3.1,6.9-6.5,13.7-10.5,20.8C373.1,251.6,368.3,259.3,363.2,266.8z"/>
	<path class="st15" d="M455.9,266.8c0,0,1.9-4-4.1-8.7c-6-4.7-29.9-15.8-35.7-17.2c-5.8-1.4-10.4-2.2-17.1-8.8s-9.5-8.4-9.5-8.4
		L361.3,208c-15.2-8.4-36.5-3.1-36.5-3.1l-7-3.5l-4.8,8.6l-0.1,0.1l-4.8,8.6l6.7,4c0,0,6.8,20.9,22,29.3l28.3,15.7
		c0,0,2.9,1.6,12.1,3.7c9.1,2.1,12.2,5.7,16.3,9.7h56C452,276.6,454.1,271.8,455.9,266.8z"/>
</g>
<g id="water_1">
	<path class="st15" d="M42.9,265c-1.1-0.2-5.8-1.1-9.6-1.7c-2.5-0.3-4.8-1.5-6.6-3.3c0,0-7.2-9.9-10.7-12.1
		c-1.9-1.2-8.9-2.8-8.9-2.8L9,233.5c0,0,7.1,0.7,9.3,0.1c4-1.1,13.8-8.2,13.8-8.2c2.3-1.1,4.8-1.5,7.3-1.1c3.8,0.6,8.7,1.1,9.8,1.2
		c0.1,0,0.2-0.1,0.3-0.1h0.1c1.9,0.3,1.3,1.6,3.3,1.9s1.8-1.1,3.7-0.8h0.1c1.9,0.3,1.3,1.6,3.3,1.9s1.8-1.1,3.7-0.8h0.1
		c1.9,0.3,1.3,1.6,3.3,1.9s1.8-1.1,3.7-0.8h0.1c1.9,0.3,1.3,1.6,3.3,1.9s1.8-1.1,3.7-0.8h0.1c1.9,0.3,1.3,1.6,3.3,1.9
		s1.8-1.1,3.7-0.8h0.1c1.9,0.3,1.3,1.6,3.3,1.9s1.8-1.1,3.7-0.8h0.1c1.9,0.3,1.3,1.6,3.3,1.9s1.8-1.1,3.7-0.8h0.1
		c1.9,0.3,1.3,1.6,3.3,1.9s1.8-1.1,3.7-0.8h0.1c1.9,0.3,1.3,1.6,3.3,1.9s1.8-1.1,3.7-0.8h0.1c1.1,0.2,2,0.9,2.5,1.9
		c1.7-0.4,3.4-0.4,5.2-0.1c7,1.1,11.8,7.3,10.8,13.8l-2.4,15.1c-1,6.5-7.5,10.9-14.5,9.8c-1.7-0.3-3.4-0.9-4.8-1.8
		c-0.8,0.7-1.9,1.1-2.9,0.9h-0.1c-1.9-0.3-1.3-1.6-3.3-1.9s-1.8,1.1-3.7,0.8h-0.1c-1.9-0.3-1.3-1.6-3.3-1.9s-1.8,1.1-3.7,0.8h-0.1
		c-1.9-0.3-1.3-1.6-3.3-1.9s-1.8,1.1-3.7,0.8h-0.1c-1.9-0.3-1.3-1.6-3.3-1.9s-1.8,1.1-3.7,0.8h-0.1c-1.9-0.3-1.3-1.6-3.3-1.9
		s-1.8,1.1-3.7,0.8h0c-1.9-0.3-1.3-1.6-3.3-1.9s-1.8,1.1-3.7,0.8h-0.1c-1.9-0.3-1.3-1.6-3.3-1.9s-1.8,1.1-3.7,0.8h-0.1
		c-1.9-0.3-1.3-1.6-3.3-1.9s-1.8,1.1-3.7,0.8h-0.1c-1.9-0.3-1.3-1.6-3.3-1.9s-1.8,1.1-3.7,0.8h-0.1C43.1,265,43,265,42.9,265z"/>
	
		<rect x="4.7" y="239.3" transform="matrix(0.1557 -0.9878 0.9878 0.1557 -226.7928 214.4426)" class="st13" width="14.8" height="1.2"/>
	<polygon class="st13" points="9.3,246.5 11.5,232.8 4.7,232.1 2.7,245.1 	"/>
	<path class="st15" d="M119.1,246.7c-1.7-0.3-3.4-0.3-5.1,0.1c-0.5-1-1.4-1.7-2.5-1.9h-0.1c-1.9-0.3-1.8,1.1-3.7,0.8
		s-1.3-1.6-3.3-1.9h-0.1c-1.9-0.3-1.8,1.1-3.7,0.8s-1.3-1.6-3.3-1.9h-0.1c-1.9-0.3-1.8,1.1-3.7,0.8s-1.3-1.6-3.3-1.9h-0.1
		c-1.9-0.3-1.8,1.1-3.7,0.8s-1.3-1.6-3.3-1.9h-0.1c-1.9-0.3-1.8,1.1-3.7,0.8s-1.3-1.6-3.3-1.9h-0.1c-1.9-0.3-1.8,1.1-3.7,0.8
		s-1.3-1.6-3.3-1.9h-0.1c-1.9-0.3-1.8,1.1-3.7,0.8s-1.3-1.6-3.3-1.9h-0.1c-1.9-0.3-1.8,1.1-3.7,0.8s-1.4-1.7-3.3-2H55
		c-1.9-0.3-1.8,1.1-3.7,0.8s-1.3-1.6-3.3-1.9l0,0c-0.1,0-0.2,0.1-0.3,0.1c-1.1-0.1-5.9-0.6-9.8-1.2c-2.5-0.4-5.1-0.1-7.3,1.1
		c0,0-9.2,2.8-13.1,3.8c-2.2,0.6-9.3-0.1-9.3-0.1l0.4-2.8c0,0,7.1,0.7,9.3,0.1c4-1,13.4-5.6,13.4-5.6c2.3-1.1,4.8-1.5,7.3-1.1
		c3.8,0.6,8.6,1.1,9.7,1.3c0.1,0,0.2,0,0.2,0h0.1c1.9,0.3,1.3,1.6,3.3,1.9s1.8-1.1,3.7-0.8h0.1c1.9,0.3,1.3,1.6,3.3,1.9
		s1.8-1.1,3.7-0.8h0.1c1.9,0.3,1.3,1.6,3.3,1.9s1.8-1.1,3.7-0.8h0.1c1.9,0.3,1.3,1.6,3.3,1.9s1.8-1.1,3.7-0.8h0.1
		c1.9,0.3,1.3,1.6,3.3,1.9s1.8-1.1,3.7-0.8H84c1.9,0.3,1.3,1.6,3.3,1.9s1.8-1.1,3.7-0.8h0c1.9,0.3,1.3,1.6,3.3,1.9s1.7-1,3.7-0.7
		l0,0c1.9,0.3,1.3,1.6,3.3,1.9s1.8-1.1,3.7-0.8h0.1c1.9,0.3,1.3,1.6,3.3,1.9s1.8-1.1,3.7-0.8h0.1c1.1,0.2,2,0.9,2.5,1.8
		c1.7-0.4,3.4-0.4,5.2-0.2c7,1.1,11.8,7.3,10.8,13.8l-0.7,4.5C130.8,254,126,247.8,119.1,246.7z"/>
	<path class="st16" d="M50.3,266.1c-1.9-0.3-1.4-1.3-3.3-1.6c-0.2,0-0.3,0-0.5,0v-0.1l5.8-37v-0.1c0.2,0,0.3,0,0.5,0
		c1.9,0.3,1.8-1,3.7-0.7h0.1c1.9,0.3,1.5,0.4,3.5,0.7s1.6,0.1,3.5,0.4h0.1c1.9,0.3,1.5,0.4,3.5,0.7s1.6,0.1,3.5,0.4h0.1
		c0.1,0,0.3,0.1,0.4,0.1c1.4,0.4,1,1.4,2.7,1.8l0,0l-5.8,37l0,0c-1.6-0.1-1.6,0.9-3,0.8c-0.1,0-0.2-0.1-0.4-0.1h-0.1
		c-1.9-0.3-1.5-0.4-3.5-0.7s-1.6-0.1-3.5-0.4h-0.1c-1.9-0.3-1.5-0.4-3.5-0.7s-1.6-0.1-3.5-0.4L50.3,266.1z"/>
</g>
<radialGradient id="SVGID_9_" cx="100.6083" cy="86.3789" r="51.28" gradientTransform="matrix(0.992 -0.1264 -0.1264 -0.992 -14.8956 316.2628)" gradientUnits="userSpaceOnUse">
	<stop  offset="0" style="stop-color:#DBCD89"/>
	<stop  offset="1" style="stop-color:#2054BE"/>
</radialGradient>
<path class="st17" d="M120.6,237.2c-1.7-0.3-3.5-0.3-5.2,0.1c-0.5-1-1.4-1.7-2.5-1.9h-0.1c-1.9-0.3-1.8,1.1-3.7,0.8
	s-1.3-1.6-3.3-1.9h-0.1c-1.9-0.3-1.8,1.1-3.7,0.8s-1.3-1.6-3.3-1.9h-0.1c-1.9-0.3-1.8,1.1-3.7,0.8s-1.3-1.6-3.3-1.9h-0.1
	c-1.9-0.3-1.8,1.1-3.7,0.8s-1.3-1.6-3.3-1.9h-0.1c-1.9-0.3-1.8,1.1-3.7,0.8s-1.3-1.6-3.3-1.9h-0.1c-1.9-0.3-1.8,1.1-3.7,0.8
	s-1.3-1.6-3.3-1.9h-0.1c-1.9-0.3-1.6-0.1-3.5-0.4s-1.5-0.4-3.5-0.7h-0.1c-1.9-0.3-1.6-0.1-3.5-0.4s-1.5-0.4-3.5-0.7h-0.1
	c-1.9-0.3-1.8,1-3.7,0.7c-0.2,0-0.3,0-0.5,0l0,0c-1.4-0.4-1.1-1.5-2.8-1.8h-0.1c-0.1,0-0.2,0.1-0.3,0.1c-1.1-0.1-5.9-0.6-9.8-1.2
	c-2.5-0.4-5.1-0.1-7.3,1.1c0,0-9.9,7.2-13.8,8.2c-1.5,0.2-3.1,0.3-4.6,0.2l0.2-1.1l-1.2-0.2l-0.2,1.2l-1.1-0.1l0.1-0.8l-6.7-0.7
	l-2,13l6.6,1.5l0.1-0.8l1.1,0.3l-0.2,1.1l1.2,0.2l0.2-1c1.5,0.3,2.9,0.8,4.3,1.5c3.5,2.2,10.7,12.1,10.7,12.1
	c1.8,1.8,4.1,2.9,6.6,3.3c3.8,0.6,8.5,1.5,9.6,1.7c0.1,0,0.2,0,0.3,0h0.1c1.7,0.3,1.8-0.8,3.2-0.8v0.1v0.1c0.2,0,0.3,0,0.5,0
	c1.9,0.3,1.4,1.4,3.3,1.6h0.1c1.9,0.3,1.6,0.1,3.5,0.4s1.5,0.4,3.5,0.7h0.1c1.9,0.3,1.6,0.1,3.5,0.4s1.5,0.4,3.5,0.7h0.1
	c0.1,0,0.3,0.1,0.4,0.1c1.5,0.1,1.4-0.9,3-0.8l0,0v-0.2c0.1,0,0.2,0,0.2,0c1.9,0.3,1.3,1.6,3.3,1.9h0.1c1.9,0.3,1.8-1.1,3.7-0.8
	s1.3,1.6,3.3,1.9h0.1c1.9,0.3,1.8-1.1,3.7-0.8s1.3,1.6,3.3,1.9h0.1c1.9,0.3,1.8-1.1,3.7-0.8s1.3,1.6,3.3,1.9h0.1
	c1.9,0.3,1.8-1.1,3.7-0.8s1.3,1.6,3.3,1.9h0.1c1.9,0.3,1.8-1.1,3.7-0.8s1.3,1.6,3.3,1.9h0.1c1.1,0.2,2.1-0.1,2.9-0.9
	c1.5,0.9,3.1,1.5,4.8,1.8c7,1.1,13.4-3.3,14.5-9.8l0.9-5.7l0,0l0.7-4.5l0,0l0.8-4.9C132.3,244.5,127.5,238.3,120.6,237.2z"/>
<path class="st18" d="M632.1,268.1l0.9-0.6c1.8-1.2,3.3-2.8,4.3-4.8c1.3-2.9,2.6-7.4,5-9l0.7-0.5l0.7-0.5l0.2,0.3
	c0.1,0.3,0.5,0.4,0.7,0.2c0,0,0.1,0,0.1,0l0,0c0.3-0.2,0.5-0.7,0.3-1l-0.3-0.4l0.2-0.2l0.7,0.9l7.2-5.8l-4.3-6.2L648,240l-4.3-6.2
	l-8,4.6l0.7,1l-0.3,0.1l-0.3-0.4c-0.3-0.3-0.8-0.3-1.1-0.1l0,0c-0.3,0.2-0.3,0.6,0,0.9l0.2,0.3c-0.2,0.2-0.5,0.4-0.7,0.5l-0.7,0.5
	c-2.3,1.6-7,1.2-10.2,1.4c-2.2,0.3-4.2,1.1-6,2.3l-1.2,0.8C621.2,253.5,625.8,261.2,632.1,268.1z"/>
<path class="st19" d="M619.5,276.8l10.7-7.3l1.9-1.3c-6.3-7-10.9-14.7-15.9-22.5l-11.9,8.2C607.7,261.9,612.8,270.3,619.5,276.8z"/>
<path class="st18" d="M619.5,276.8c-6.7-6.4-11.8-14.9-15.3-22.9L586.5,266l-0.2,0.1l-8.5,5.9c-2.3,1.7-2.9,4.9-1.2,7.3l1.1,1.6h36
	L619.5,276.8z"/>
<g id="燈籠魚_ok_拷貝">
	<g class="st20">
		<g class="st21">
			
				<image style="overflow:visible;opacity:0.82;enable-background:new    ;" width="10" height="11" xlink:href="266CA7AF.png"  transform="matrix(0.9091 0 0 0.9091 339.3346 109.9)">
			</image>
			
				<linearGradient id="SVGID_10_" gradientUnits="userSpaceOnUse" x1="299.4242" y1="188.8777" x2="445.4942" y2="155.3777" gradientTransform="matrix(0.9985 5.495018e-02 5.495018e-02 -0.9985 -36.5105 266.6375)">
				<stop  offset="0" style="stop-color:#00FF1B"/>
				<stop  offset="1" style="stop-color:#002D6D"/>
			</linearGradient>
			<path class="st22" d="M343.8,116.7c0.9,0.1,1.6-0.6,1.7-1.5c0-0.1,0-0.2,0-0.2c0.1-0.9-0.6-1.8-1.5-1.9c0,0,0,0-0.1,0
				c-0.9,0-1.6,0.7-1.7,1.5c0,0.1,0,0.1,0,0.2C342.3,115.9,342.6,116.7,343.8,116.7z"/>
			
				<linearGradient id="SVGID_11_" gradientUnits="userSpaceOnUse" x1="312.1465" y1="244.3404" x2="458.2165" y2="210.8504" gradientTransform="matrix(0.9985 5.495018e-02 5.495018e-02 -0.9985 -36.5105 266.6375)">
				<stop  offset="0" style="stop-color:#B19686"/>
				<stop  offset="1" style="stop-color:#002D6D"/>
			</linearGradient>
			<path class="st23" d="M463.3,81.6c-0.1-0.8-0.1-1.8-0.2-2.6l0,0c0-0.3,0-0.6,0-0.9c0-2.5-0.8-4.9-2.4-6.8
				c-0.1-0.1-0.2-0.3-0.3-0.4l0,0l-0.1-0.1l0,0c-0.7-0.9-1.6-1.6-2.6-2.2l0,0c-0.3-0.2-0.7-0.4-1-0.5c-2.5,3.3-8.5,12.1-20.4,34.2
				C444.3,96.6,457.6,86.2,463.3,81.6z"/>
			
				<linearGradient id="SVGID_12_" gradientUnits="userSpaceOnUse" x1="308.9344" y1="230.3288" x2="455.0045" y2="196.8388" gradientTransform="matrix(0.9985 5.495018e-02 5.495018e-02 -0.9985 -36.5105 266.6375)">
				<stop  offset="0" style="stop-color:#B19686"/>
				<stop  offset="1" style="stop-color:#002D6D"/>
			</linearGradient>
			<path class="st24" d="M468.3,106.7c0-0.5,0-0.9-0.1-1.4l-0.1-0.6c-0.3-1.4-0.5-2.8-0.8-4.2l-0.4-2c0,0,0,0,0-0.1
				c0-0.2-0.1-0.4-0.1-0.6s-0.1-0.6-0.2-0.9c-6.1,2-20.7,6.9-29.5,9.5C447.4,107.5,457.9,107.6,468.3,106.7z"/>
			
				<linearGradient id="SVGID_13_" gradientUnits="userSpaceOnUse" x1="307.6107" y1="224.5826" x2="453.6807" y2="191.0826" gradientTransform="matrix(0.9985 5.495018e-02 5.495018e-02 -0.9985 -36.5105 266.6375)">
				<stop  offset="0" style="stop-color:#B19686"/>
				<stop  offset="1" style="stop-color:#002D6D"/>
			</linearGradient>
			<path class="st25" d="M468.2,108.4c-8.1,0.7-16.2,0.8-24.3,0.4c-1.3-0.1-2.6-0.2-4-0.3c9.5,3.2,21.8,6.1,27.1,7.4
				c0.2-0.5,0.4-1.1,0.5-1.6c0.2-0.6,0.3-1.2,0.3-1.8C467.9,112.5,468.1,110.1,468.2,108.4z"/>
			
				<linearGradient id="SVGID_14_" gradientUnits="userSpaceOnUse" x1="310.3322" y1="236.4287" x2="456.4021" y2="202.9387" gradientTransform="matrix(0.9985 5.495018e-02 5.495018e-02 -0.9985 -36.5105 266.6375)">
				<stop  offset="0" style="stop-color:#B19686"/>
				<stop  offset="1" style="stop-color:#002D6D"/>
			</linearGradient>
			<path class="st26" d="M466,95.3c-0.1-0.3-0.2-0.6-0.3-0.9c-0.1-0.2-0.1-0.4-0.2-0.6c-0.1-0.2-0.1-0.3-0.2-0.5
				c-0.8-3-1.4-6-1.8-9.1v-0.5c-6.8,5.4-21.1,16.5-28.5,21.5C443.6,102.8,459.6,97.5,466,95.3z"/>
			
				<linearGradient id="SVGID_15_" gradientUnits="userSpaceOnUse" x1="311.7495" y1="242.6074" x2="457.8195" y2="209.1174" gradientTransform="matrix(0.9985 5.495018e-02 5.495018e-02 -0.9985 -36.5105 266.6375)">
				<stop  offset="0" style="stop-color:#B19686"/>
				<stop  offset="1" style="stop-color:#002D6D"/>
			</linearGradient>
			<path class="st27" d="M433,104.4c12.5-23.3,19-33.1,21.9-37c-1-0.3-2-0.6-3-0.8l-0.4-0.1h-0.1c-3.1-0.8-6.4,0.2-8.5,2.6
				c-3.8,3.9-6.3,8.8-7.4,14.2c-1.8,5.6-2.8,16.2-3.7,20c-0.2,0.3-0.3,0.7-0.3,1.1l0.4,0.8L433,104.4z"/>
			
				<linearGradient id="SVGID_16_" gradientUnits="userSpaceOnUse" x1="305.3116" y1="214.5464" x2="451.3816" y2="181.0464" gradientTransform="matrix(0.9985 5.495018e-02 5.495018e-02 -0.9985 -36.5105 266.6375)">
				<stop  offset="0" style="stop-color:#B19686"/>
				<stop  offset="1" style="stop-color:#002D6D"/>
			</linearGradient>
			<path class="st28" d="M454.5,124.7c0.6,0,1.2-0.1,1.8-0.2c1-0.1,2-0.3,3-0.7c0,0,1.1-0.7,1.9-1.2l0,0c0.2-0.1,0.5-0.3,0.7-0.4
				c0.6-0.3,1.3-0.4,1.9-0.7c1.1-0.6,1.6-1.8,2.1-2.9c0.2-0.3,0.3-0.7,0.5-1.1c-6.2-1.4-21-5-30.7-8.7
				C440.5,112.8,449.2,120.1,454.5,124.7z"/>
			
				<linearGradient id="SVGID_17_" gradientUnits="userSpaceOnUse" x1="304.9421" y1="212.9251" x2="451.0121" y2="179.4351" gradientTransform="matrix(0.9985 5.495018e-02 5.495018e-02 -0.9985 -36.5105 266.6375)">
				<stop  offset="0" style="stop-color:#B19686"/>
				<stop  offset="1" style="stop-color:#002D6D"/>
			</linearGradient>
			<path class="st29" d="M441,122c3.4,1.7,7.1,2.6,10.8,2.8c-5.4-4.7-13.2-11.1-17.5-14.7C436.5,114.3,439,118.5,441,122z"/>
			
				<linearGradient id="SVGID_18_" gradientUnits="userSpaceOnUse" x1="301.7844" y1="199.1687" x2="447.8544" y2="165.6787" gradientTransform="matrix(0.9985 5.495018e-02 5.495018e-02 -0.9985 -36.5105 266.6375)">
				<stop  offset="0" style="stop-color:#B19686"/>
				<stop  offset="0.61" style="stop-color:#002D6D"/>
			</linearGradient>
			<path class="st30" d="M431,107.2c-0.1-0.1-0.1-0.3-0.2-0.4l0,0l-1.2-2.5l0-0.1l0,0c-0.5-0.8-0.9-1.6-1.3-2.5
				c-3.6-7.9-8.9-14.7-14.6-21.1c-5.4-6.1-12.1-9.4-20.4-9.7c-5.7-0.1-11.4,0.2-17,0.9c-2,0.2-2.6-0.4-3-2.1
				c-0.7-3.1-1.6-6.2-2.6-9.2c-0.1-0.2-0.1-0.5-0.2-0.7c-0.1-0.5,0-1.2-0.7-1.2c-0.9-0.1-0.7,0.8-0.8,1.3c-0.1,1.6-0.2,3.3-0.2,4.9
				c-0.1,1.9-0.4,3.8-0.4,5.7c0,1.7-0.8,2.3-2.4,2.5c-7.1,1.1-13.3,4.3-19.1,8.4c-1.3,0.9-2.5,2.6-3.8,2.7c-1.5,0.1-2.1-2.5-3-3.5
				c-2.5-4.4-6.2-8-10.7-10.3c-7.6-4-16.9-1.4-21.3,5.9c-2.2,2.5-3.3,5.6-4.4,8.7c-0.2,0.5-0.4,1-0.6,1.5c-3.5-1.2-7.3,0.6-8.5,4.1
				c-0.2,0.6-0.3,1.2-0.4,1.9c0,0.2,0,0.3,0,0.4c-0.1,1,0,2,0.4,2.8c0.4,0.9,1.1,1.7,2,2.2c2.8,2.4,7,2,9.4-0.8s2-7-0.8-9.4
				c0.1-1.5,0.5-2.9,1.2-4.2c0.5-1,0.9-2,1.3-2.9c0.6-1,1.3-2,1.3-2l0.8-1.4c1-1.5,2.2-2.8,3.6-4c4.5-4,12.6-4,17.1,0
				c2.9,2.4,5.4,5.3,7.3,8.6c0.5,1,1.4,2.9,1.8,3.9c0.2,1.8-0.9,3-2,4.1c-10.5,10-14.6,22.5-14.7,36.7c0,1.3,0.5,1.8,1.7,1.7
				c1.8-0.2,3.6-0.3,5.4-0.5c1.4-0.2,1.9,0.2,1.9,2c-0.1,2.9,0.2,5.9,0.7,8.8c0.3,0.9-0.1,1.9-1,2.2c-0.1,0-0.2,0.1-0.3,0.1
				c-3.3,1.3-3.4,1.7-1.4,4.8c4.8,7.4,11.7,11.4,20.3,12.9c9.8,1.8,19.9,1.4,29.6-1.2c1.2-0.5,2.7,0,3.2,1.3c0,0,0,0,0,0
				c1.9,2.9,3.9,5.7,6.3,8.3l4,2.9c0.2-0.8,0.1-1.8-0.3-2.5c-1-3.5-1.9-7-3-10.5c-0.5-1.6-0.2-2.3,1.5-2.9c7.8-2.6,15.2-6.2,22-10.7
				c9-5.8,15.6-13.3,16.8-24.4c0.1-0.5,0.2-1,0.3-1.4c0.7-3.3,3.8,0.3,5,1.4c0.5,0.5,1.1,1,1.6,1.4l0.5,0.3c-2.1-3.7-4.5-8-6.5-12
				L431,107.2z M344.3,111c2.1,0,3.8,1.7,3.9,3.8c0,0.1,0,0.1,0,0.2c0,2.4-2,4.3-4.4,4.3c0,0,0,0-0.1,0c-2.2,0-3.9-1.8-3.9-3.9
				c0-2.4,2-4.3,4.4-4.2C344.2,111,344.2,111,344.3,111z M341.8,137.1c-3.9,1.3-3.9,1.3-4.9-2.7c-0.4-1.6-0.7-3.2-1.3-4.8
				c-0.6-1.8-0.1-2.5,1.7-2.3c0.8,0.1,1.6,0,2.5,0c4.1,0,3.3,0,3.3,5.6c0,0.6,0.1,1.2,0.2,1.9C343.6,136.1,343.1,136.6,341.8,137.1
				L341.8,137.1z M352.1,134.1c-1.4,0.3-3.8,1.2-5,0.2c-0.5-0.5-0.9-1.2-1.1-1.9c-0.4-1.1-1.2-2.8-1.2-4c0-1.2,1.3-1.3,2.3-1.2
				c0.9,0.1,1.9,0.1,2.8,0c1-0.1,2.1,0.1,3.1-0.1c0.3-0.1,0.6-0.1,0.9-0.1c0.6,0.1,0.8,0.7,0.8,1.2
				C355.3,132.6,355,133.4,352.1,134.1L352.1,134.1z M375.2,126.9c-4.6,2.3-9.4,4-14.4,5.3c-1.1,0.3-1.6-0.1-2.1-1
				c-2.1-4.2-2.2-4.1,2.4-4.5c0.8-0.1,1.6,0,2.5,0l0,0l13.8-1.3C377,126.3,376.2,126.9,375.2,126.9L375.2,126.9z"/>
		</g>
		<path class="st31" d="M329.9,145.4c-2-3.1-1.9-3.4,1.4-4.8c0.9-0.2,1.6-1.1,1.4-2c0-0.1,0-0.2-0.1-0.3c-0.5-2.9-0.7-5.8-0.7-8.8
			c0-1.6-0.3-2.1-1.4-2.1c0.1,0.5,0.2,0.9,0.2,1.4c-0.1,2.9,0.2,5.9,0.7,8.8c0.3,0.9-0.1,1.9-1,2.2c-0.1,0-0.2,0.1-0.3,0.1
			c-3.3,1.3-3.4,1.7-1.4,4.8c2.7,4.2,6.5,7.7,11,9.9C335.7,152.4,332.3,149.2,329.9,145.4z"/>
		<path class="st31" d="M383.2,158.4c-0.3-0.7-1-1.3-1.8-1.4c0.2,0.2,0.4,0.5,0.6,0.8c1.9,2.9,4,5.7,6.3,8.3l4,2.9
			c0-0.1,0-0.1,0.1-0.2l-2.8-2C387.1,164.1,385,161.4,383.2,158.4z"/>
		<path class="st31" d="M373.9,126.2c-4.6,2.3-9.4,4.1-14.4,5.3c-0.2,0.1-0.4,0.1-0.6,0.1c0.4,0.6,1.2,0.9,1.8,0.6
			c5-1.2,9.8-3,14.4-5.3c1,0,1.9-0.6,2.2-1.5l-1.7,0.2C375.2,126,374.6,126.2,373.9,126.2z"/>
		<path class="st31" d="M353.9,127c-0.2,0-0.4,0-0.5,0c0.1,0.2,0.1,0.4,0.1,0.5c0.6,4.3,0.3,5.2-2.6,5.8c-1.1,0.2-2.8,0.9-4.1,0.6
			c0.1,0.1,0.2,0.2,0.3,0.3c1.3,1,3.7,0.1,5-0.2c2.8-0.6,3.2-1.5,2.6-5.8C354.6,127.8,354.4,127.1,353.9,127z"/>
		<path class="st31" d="M343.1,84.1c1.3-0.1,2.5-1.7,3.8-2.6c5.8-4.2,12-7.3,19.1-8.4c1.5-0.2,2.3-0.8,2.4-2.5
			c0-1.9,0.3-3.8,0.4-5.7c0.1-1.6,0.1-3.3,0.2-4.9c0-0.3,0-0.8,0.2-1.1c0-0.4-0.1-0.8-0.7-0.8c-0.9-0.1-0.7,0.8-0.7,1.3
			c-0.1,1.6-0.2,3.3-0.3,4.9c-0.1,1.9-0.4,3.8-0.4,5.7c0,1.7-0.8,2.2-2.4,2.5c-7.1,1.1-13.3,4.3-19.1,8.4c-1.3,0.9-2.5,2.6-3.8,2.7
			l0,0C342.1,83.8,342.6,84.1,343.1,84.1z"/>
		<path class="st31" d="M294.5,95.6c-0.4-0.9-0.5-1.9-0.4-2.8c0-0.2,0-0.3,0-0.4c0.2-3.7,3.3-6.5,7-6.3c0.6,0,1.2,0.2,1.8,0.4
			c0.3-0.5,0.5-1,0.6-1.5c1.1-3.1,2.2-6.2,4.4-8.7c4.3-7,13.1-9.7,20.6-6.3c-0.2-0.1-0.3-0.2-0.5-0.3c-7.5-4-16.9-1.4-21.3,5.9
			c-2.2,2.5-3.3,5.6-4.4,8.7c-0.2,0.5-0.4,1-0.6,1.5c-0.6-0.2-1.2-0.3-1.8-0.4c-3.7-0.2-6.8,2.6-7,6.3c0,0.2,0,0.3,0,0.4
			c-0.1,1,0,2,0.4,2.8c0.4,0.9,1.1,1.7,2,2.2c0.6,0.5,1.2,0.8,1.9,1.1c-0.2-0.1-0.4-0.3-0.6-0.5C295.7,97.3,295,96.5,294.5,95.6z"/>
		<path class="st31" d="M376.2,71.9c5.6-0.7,11.3-1,17-0.9c4,0.1,7.9,1,11.5,2.8c-3.9-2.2-8.2-3.3-12.7-3.4
			c-5.7-0.1-11.4,0.2-17,0.9c-0.4,0-0.8,0-1.2,0C374.2,71.8,375,72,376.2,71.9z"/>
		<path class="st31" d="M343.3,132.8c0-4.5,0.5-5.4-1.4-5.6c0.3,0.7,0.1,2.1,0.1,4.9c0,0.6,0.1,1.2,0.2,1.9c0.2,1.3-0.3,1.9-1.6,2.3
			c-0.9,0.3-1.8,0.6-2.8,0.8c0.6,1.1,1.4,0.7,4-0.1c1.3-0.4,1.7-1,1.6-2.3C343.3,134.1,343.3,133.5,343.3,132.8z"/>
		<path class="st31" d="M337.6,89.7c1.1-1.1,2.2-2.3,2-4c-0.5-1-1.4-2.9-1.8-3.9c-2-3.2-4.4-6.2-7.3-8.6c-0.8-0.7-1.8-1.3-2.8-1.7
			c0.5,0.3,1,0.7,1.5,1.1c2.9,2.4,5.4,5.3,7.3,8.5c0.5,1,1.4,2.9,1.8,3.9c0.2,1.8-0.9,2.9-2,4.1c-10.5,10-14.6,22.5-14.7,36.7
			c0,1.2,0.4,1.7,1.4,1.7c-0.1-0.3-0.2-0.7-0.2-1C323,112.2,327.1,99.7,337.6,89.7z"/>
		<g>
			
				<radialGradient id="SVGID_19_" cx="-863.9323" cy="569.3065" r="46.66" gradientTransform="matrix(0.45 -0.45 -0.42 -0.42 1019.3803 -42.5597)" gradientUnits="userSpaceOnUse">
				<stop  offset="0" style="stop-color:#FFB432"/>
				<stop  offset="4.000000e-02" style="stop-color:#FDA645;stop-opacity:0.9"/>
				<stop  offset="0.13" style="stop-color:#F98B6B;stop-opacity:0.69"/>
				<stop  offset="0.21" style="stop-color:#F5738C;stop-opacity:0.51"/>
				<stop  offset="0.3" style="stop-color:#F361A5;stop-opacity:0.38"/>
				<stop  offset="0.37" style="stop-color:#F155B6;stop-opacity:0.28"/>
				<stop  offset="0.44" style="stop-color:#EF4DC1;stop-opacity:0.22"/>
				<stop  offset="0.5" style="stop-color:#EF4AC5;stop-opacity:0.2"/>
				<stop  offset="1" style="stop-color:#6AE4D4;stop-opacity:0.1"/>
			</radialGradient>
			
				<linearGradient id="SVGID_20_" gradientUnits="userSpaceOnUse" x1="-528.7103" y1="1142.8636" x2="-510.7003" y2="1142.8636" gradientTransform="matrix(0.59 -0.59 -0.56 -0.56 1339.7471 448.5371)">
				<stop  offset="0" style="stop-color:#F390B0;stop-opacity:0.1"/>
				<stop  offset="0.34" style="stop-color:#6ACF93;stop-opacity:0.2"/>
				<stop  offset="0.36" style="stop-color:#6FCA8F;stop-opacity:0.23"/>
				<stop  offset="0.49" style="stop-color:#95AB76;stop-opacity:0.46"/>
				<stop  offset="0.62" style="stop-color:#B59062;stop-opacity:0.66"/>
				<stop  offset="0.73" style="stop-color:#CE7C51;stop-opacity:0.8"/>
				<stop  offset="0.84" style="stop-color:#DF6D46;stop-opacity:0.91"/>
				<stop  offset="0.93" style="stop-color:#EA643F;stop-opacity:0.98"/>
				<stop  offset="1" style="stop-color:#EE613C"/>
			</linearGradient>
			<path class="st32" d="M400,117.1l-5.8,6.4c-1.9,2-3.8,2-4.5-1l-2.5-8.8c-0.8-3.2,1.8-3.8,4.4-3.4l7.5,2.8
				c1.2,0.4,1.9,1.7,1.5,2.9C400.5,116.5,400.3,116.9,400,117.1z"/>
		</g>
	</g>
	
		<radialGradient id="SVGID_21_" cx="426.28" cy="175.7655" r="36.15" gradientTransform="matrix(1 0 0 -1 0 281.9055)" gradientUnits="userSpaceOnUse">
		<stop  offset="0" style="stop-color:#FFB147"/>
		<stop  offset="8.000000e-02" style="stop-color:#FFB44E;stop-opacity:0.96"/>
		<stop  offset="0.23" style="stop-color:#FFBC60;stop-opacity:0.86"/>
		<stop  offset="0.41" style="stop-color:#FFC87E;stop-opacity:0.7"/>
		<stop  offset="0.62" style="stop-color:#FFDAA8;stop-opacity:0.47"/>
		<stop  offset="0.85" style="stop-color:#FFF0DC;stop-opacity:0.19"/>
		<stop  offset="1" style="stop-color:#FFFFFF;stop-opacity:0"/>
	</radialGradient>
	<circle class="st33" cx="426.9" cy="105.3" r="41.4"/>
	<g class="st21">
		
			<image style="overflow:visible;opacity:0.82;enable-background:new    ;" width="12" height="14" xlink:href="266CA7A8.png"  transform="matrix(0.9286 0 0 0.9286 497.3086 130.9)">
		</image>
		
			<linearGradient id="SVGID_22_" gradientUnits="userSpaceOnUse" x1="401.3994" y1="266.9229" x2="650.5194" y2="209.8029" gradientTransform="matrix(1 0 0 -1 0 281.9055)">
			<stop  offset="0" style="stop-color:#B19686"/>
			<stop  offset="1" style="stop-color:#002D6D"/>
		</linearGradient>
		<path class="st34" d="M702.8,69.9c-0.2-1.4-0.4-3-0.5-4.3c0,0,0,0,0-0.1c0-0.5-0.1-1-0.2-1.5c-0.5-4.2-1.5-8.2-4.7-11.4
			c-0.2-0.2-0.4-0.4-0.5-0.6l0,0l-0.2-0.2l-0.1-0.1c-1.4-1.4-2.9-2.6-4.7-3.5l0,0c-0.6-0.3-1.2-0.6-1.7-0.8
			c-4,5.9-13.4,21.4-31.6,60.1C671.9,97.1,693.6,78.3,702.8,69.9z"/>
		
			<linearGradient id="SVGID_23_" gradientUnits="userSpaceOnUse" x1="395.8901" y1="242.8858" x2="645.0101" y2="185.7658" gradientTransform="matrix(1 0 0 -1 0 281.9055)">
			<stop  offset="0" style="stop-color:#B19686"/>
			<stop  offset="1" style="stop-color:#002D6D"/>
		</linearGradient>
		<path class="st35" d="M713.7,112.1c0-0.8-0.2-1.6-0.3-2.4c-0.1-0.4-0.2-0.7-0.3-1.1c-0.6-2.3-1.1-4.7-1.7-7c0,0-0.4-1.7-0.9-3.3
			c0,0,0-0.1,0-0.1c-0.1-0.3-0.2-0.6-0.3-0.9l-0.4-1.5c-10.2,4-34.5,13.6-49.4,19C678.1,115.5,696,114.6,713.7,112.1z"/>
		
			<linearGradient id="SVGID_24_" gradientUnits="userSpaceOnUse" x1="393.6508" y1="233.1191" x2="642.7709" y2="175.9991" gradientTransform="matrix(1 0 0 -1 0 281.9055)">
			<stop  offset="0" style="stop-color:#B19686"/>
			<stop  offset="1" style="stop-color:#002D6D"/>
		</linearGradient>
		<path class="st36" d="M713.7,115.1c-13.7,1.9-27.5,2.9-41.4,2.9c-2.2,0-4.5,0-6.8-0.1c16.4,4.5,37.7,8.4,46.9,10
			c0.3-0.9,0.5-1.8,0.7-2.8c0.2-1,0.3-2,0.4-3.1C713.6,122.1,713.7,117.9,713.7,115.1z"/>
		
			<linearGradient id="SVGID_25_" gradientUnits="userSpaceOnUse" x1="398.2779" y1="253.3065" x2="647.3979" y2="196.1865" gradientTransform="matrix(1 0 0 -1 0 281.9055)">
			<stop  offset="0" style="stop-color:#B19686"/>
			<stop  offset="1" style="stop-color:#002D6D"/>
		</linearGradient>
		<path class="st37" d="M708.7,93c-0.2-0.5-0.4-1-0.5-1.5c-0.1-0.4-0.2-0.7-0.4-1.1l-0.4-0.8c-1.7-5-3-10.1-4-15.3
			c0-0.1,0-0.4-0.1-0.8c-11,9.9-34.4,30.1-46.5,39.3C671.2,107.8,698,97.2,708.7,93z"/>
		
			<linearGradient id="SVGID_26_" gradientUnits="userSpaceOnUse" x1="400.6974" y1="263.8642" x2="649.8174" y2="206.7442" gradientTransform="matrix(1 0 0 -1 0 281.9055)">
			<stop  offset="0" style="stop-color:#B19686"/>
			<stop  offset="1" style="stop-color:#002D6D"/>
		</linearGradient>
		<path class="st38" d="M653.4,111.6c19-40.9,29.2-58.2,33.9-65.1c-1.7-0.5-3.5-0.9-5.2-1.2l-0.7-0.1h-0.1
			c-5.6-0.9-10.3,0.8-14.3,5.3c-6,7-9.9,15.6-11.2,24.8c-2.6,9.7-3.3,27.9-4.4,34.4c-0.3,0.6-0.5,1.2-0.5,1.8
			c0.2,0.4,0.5,0.9,0.7,1.3C652.2,112.5,652.8,112.1,653.4,111.6z"/>
		
			<linearGradient id="SVGID_27_" gradientUnits="userSpaceOnUse" x1="389.7211" y1="215.9902" x2="638.8411" y2="158.8702" gradientTransform="matrix(1 0 0 -1 0 281.9055)">
			<stop  offset="0" style="stop-color:#B19686"/>
			<stop  offset="1" style="stop-color:#002D6D"/>
		</linearGradient>
		<path class="st39" d="M691.8,144.1c1-0.1,2-0.3,3.1-0.6c1.7-0.3,3.4-0.8,5.1-1.5c0,0,1.9-1.4,3.2-2.1l0,0c0.4-0.3,0.8-0.5,1.2-0.7
			c1-0.5,2.2-0.9,3.2-1.4c1.9-1.1,2.6-3.1,3.3-5.1c0.3-0.6,0.5-1.2,0.7-1.9c-10.8-1.8-36.2-6.5-53.1-11.8
			C666.9,125.2,682.4,136.7,691.8,144.1z"/>
		
			<linearGradient id="SVGID_28_" gradientUnits="userSpaceOnUse" x1="389.1092" y1="213.3022" x2="638.2292" y2="156.1822" gradientTransform="matrix(1 0 0 -1 0 281.9055)">
			<stop  offset="0" style="stop-color:#B19686"/>
			<stop  offset="1" style="stop-color:#002D6D"/>
		</linearGradient>
		<path class="st40" d="M668.7,140.7c5.9,2.5,12.3,3.8,18.7,3.7c-9.6-7.4-23.5-17.7-31.1-23.4C660.3,128,664.9,135,668.7,140.7z"/>
		
			<linearGradient id="SVGID_29_" gradientUnits="userSpaceOnUse" x1="383.7075" y1="189.7346" x2="632.8275" y2="132.6146" gradientTransform="matrix(1 0 0 -1 0 281.9055)">
			<stop  offset="0" style="stop-color:#B19686"/>
			<stop  offset="1" style="stop-color:#002D6D"/>
		</linearGradient>
		<path class="st41" d="M650.2,116.5l-0.4-0.7l0,0l-2.3-4.1l0.1-0.1v-0.1c-0.9-1.3-1.8-2.7-2.5-4.1c-6.9-13.1-16.5-24.1-26.9-34.5
			c-9.8-9.9-21.4-15-35.6-14.6c-9.7,0.4-19.4,1.5-28.9,3.2c-3.3,0.6-4.5-0.4-5.3-3.3c-1.5-5.2-3.3-10.3-5.4-15.4
			c-0.2-0.4-0.3-0.8-0.4-1.2c-0.2-0.9-0.2-2-1.3-2c-1.5-0.1-1.2,1.4-1.2,2.2c-0.1,2.8,0,5.6,0,8.4c-0.1,3.2-0.3,6.5-0.1,9.7
			c0.1,2.9-1.2,3.9-3.8,4.4c-12,2.6-22.3,8.5-31.7,16.2c-2.1,1.7-4,4.6-6.1,4.8c-2.6,0.3-3.9-4-5.5-5.7c-4.7-7.2-11.3-13-19.1-16.6
			c-13.3-6.1-29.3-0.4-35.6,12.1c-3.5,4.5-5.1,9.9-6.7,15.3c-0.2,0.9-0.6,1.8-1,2.6c-6-1.7-12.3,1.8-14.1,7.8
			c-0.3,1-0.4,2.1-0.4,3.2c0,0.3,0,0.5,0,0.8c-0.1,1.7,0.2,3.3,0.9,4.8c0.8,1.5,2.1,2.7,3.6,3.5c5,3.8,12.2,2.8,16-2.2
			c3.8-5,2.8-12.2-2.2-16c-0.2-2.4,0.6-4.8,1.6-7.3c0.7-1.7,1.3-3.4,1.9-5.1c1-1.8,2-3.4,2-3.4l1.3-2.4c0.1-0.5,3.2-4.6,5.7-7.1
			c7.3-7.2,21-8,29.1-1.7c5.2,3.9,9.7,8.6,13.3,13.9c0.9,1.7,2.6,4.8,3.5,6.5c0.5,3-1.2,5.1-3,7.1c-16.9,18-22.8,39.7-21.6,63.9
			c0.1,2.3,1,3,3.1,2.7c3.1-0.5,6.2-0.8,9.2-1.4c2.4-0.5,3.2,0.2,3.3,3.3c0.2,5,0.8,10,2,14.9c0.5,2.4-0.2,3.2-2,4.1
			c-5.5,2.6-5.7,3.2-2,8.2c8.9,12.1,21,18.3,35.8,20.1c17,2.1,34.3,0.5,50.6-4.8c2.6-0.9,4-0.3,5.6,1.9c3.4,4.8,7.3,9.4,11.4,13.6
			l7.1,4.5c0.6-1.7-0.2-3-0.7-4.3c-2-5.9-3.8-11.8-6-17.6c-1-2.7-0.5-4,2.3-5c13.1-5,25.1-12.1,36.4-20.3
			c14.7-10.7,25.3-24,26.4-43.1c0-0.8,0.3-1.7,0.4-2.5c0.9-5.7,6.6,0.2,8.7,1.9c1,0.8,1.9,1.5,2.9,2.2c0.3,0.2,0.6,0.4,0.9,0.5
			c-4-6.1-8.5-13.2-12.2-19.9L650.2,116.5z M502.9,131c3.9,0,6.9,2.7,7,6.3c0.1,4.1-3.1,7.5-7.2,7.7c0,0-0.1,0-0.1,0
			c-3.7,0.1-6.8-2.7-7-6.4c-0.1-4.1,3-7.5,7.1-7.6C502.7,131,502.8,131,502.9,131z M501.2,175.7c-6.6,2.6-6.5,2.6-8.5-4.2
			c-0.7-2.7-1.6-5.4-2.6-8c-1.2-2.9-0.5-4.2,2.7-4.1c1.4,0.1,2.8-0.1,4.2-0.2c7-0.4,5.6-0.3,6.2,9.3c0.1,1.1,0.2,2.1,0.4,3.1
			C504,173.8,503.3,174.9,501.2,175.7L501.2,175.7z M518.4,169.7c-2.3,0.6-6.3,2.5-8.6,0.9c-1-0.8-1.7-1.9-2.1-3.1
			c-0.8-1.9-2.3-4.6-2.4-6.6c0-2.3,2.1-2.4,3.9-2.3c1.6,0.1,3.2,0,4.8-0.3c1.7-0.2,3.6,0,5.2-0.4c0.5-0.2,1-0.2,1.5-0.2
			c1,0.1,1.4,1.1,1.5,2C523.7,166.8,523.2,168.3,518.4,169.7L518.4,169.7z M557,155.3c-7.5,4.5-15.7,7.6-23.9,10.3
			c-1.9,0.6-2.7,0-3.6-1.5c-4-6.9-4.1-6.9,3.7-7.9c1.4-0.2,2.8-0.2,4.2-0.3l0,0l23.3-3.5C559.9,154.6,558.5,155,557,155.3z"/>
	</g>
	<g class="st42">
		
			<linearGradient id="SVGID_30_" gradientUnits="userSpaceOnUse" x1="401.3994" y1="266.9229" x2="650.5194" y2="209.8029" gradientTransform="matrix(1 0 0 -1 0 281.9055)">
			<stop  offset="0" style="stop-color:#009686"/>
			<stop  offset="1" style="stop-color:#002DE4"/>
		</linearGradient>
		<path class="st43" d="M702.8,69.9c-0.2-1.4-0.4-3-0.5-4.3c0,0,0,0,0-0.1c0-0.5-0.1-1-0.2-1.5c-0.5-4.2-1.5-8.2-4.7-11.4
			c-0.2-0.2-0.4-0.4-0.5-0.6l0,0l-0.2-0.2l-0.1-0.1c-1.4-1.4-2.9-2.6-4.7-3.5l0,0c-0.6-0.3-1.2-0.6-1.7-0.8
			c-4,5.9-13.4,21.4-31.6,60.1C671.9,97.1,693.6,78.3,702.8,69.9z"/>
		
			<linearGradient id="SVGID_31_" gradientUnits="userSpaceOnUse" x1="395.8901" y1="242.8858" x2="645.0101" y2="185.7658" gradientTransform="matrix(1 0 0 -1 0 281.9055)">
			<stop  offset="0" style="stop-color:#009686"/>
			<stop  offset="1" style="stop-color:#002DE4"/>
		</linearGradient>
		<path class="st44" d="M713.7,112.1c0-0.8-0.2-1.6-0.3-2.4c-0.1-0.4-0.2-0.7-0.3-1.1c-0.6-2.3-1.1-4.7-1.7-7c0,0-0.4-1.7-0.9-3.3
			c0,0,0-0.1,0-0.1c-0.1-0.3-0.2-0.6-0.3-0.9l-0.4-1.5c-10.2,4-34.5,13.6-49.4,19C678.1,115.5,696,114.6,713.7,112.1z"/>
		
			<linearGradient id="SVGID_32_" gradientUnits="userSpaceOnUse" x1="393.6508" y1="233.1191" x2="642.7709" y2="175.9991" gradientTransform="matrix(1 0 0 -1 0 281.9055)">
			<stop  offset="0" style="stop-color:#009686"/>
			<stop  offset="1" style="stop-color:#002DE4"/>
		</linearGradient>
		<path class="st45" d="M713.7,115.1c-13.7,1.9-27.5,2.9-41.4,2.9c-2.2,0-4.5,0-6.8-0.1c16.4,4.5,37.7,8.4,46.9,10
			c0.3-0.9,0.5-1.8,0.7-2.8c0.2-1,0.3-2,0.4-3.1C713.6,122.1,713.7,117.9,713.7,115.1z"/>
		
			<linearGradient id="SVGID_33_" gradientUnits="userSpaceOnUse" x1="398.2779" y1="253.3065" x2="647.3979" y2="196.1865" gradientTransform="matrix(1 0 0 -1 0 281.9055)">
			<stop  offset="0" style="stop-color:#009686"/>
			<stop  offset="1" style="stop-color:#002DE4"/>
		</linearGradient>
		<path class="st46" d="M708.7,93c-0.2-0.5-0.4-1-0.5-1.5c-0.1-0.4-0.2-0.7-0.4-1.1l-0.4-0.8c-1.7-5-3-10.1-4-15.3
			c0-0.1,0-0.4-0.1-0.8c-11,9.9-34.4,30.1-46.5,39.3C671.2,107.8,698,97.2,708.7,93z"/>
		
			<linearGradient id="SVGID_34_" gradientUnits="userSpaceOnUse" x1="400.6974" y1="263.8642" x2="649.8174" y2="206.7442" gradientTransform="matrix(1 0 0 -1 0 281.9055)">
			<stop  offset="0" style="stop-color:#009686"/>
			<stop  offset="1" style="stop-color:#002DE4"/>
		</linearGradient>
		<path class="st47" d="M653.4,111.6c19-40.9,29.2-58.2,33.9-65.1c-1.7-0.5-3.5-0.9-5.2-1.2l-0.7-0.1h-0.1
			c-5.6-0.9-10.3,0.8-14.3,5.3c-6,7-9.9,15.6-11.2,24.8c-2.6,9.7-3.3,27.9-4.4,34.4c-0.3,0.6-0.5,1.2-0.5,1.8
			c0.2,0.4,0.5,0.9,0.7,1.3C652.2,112.5,652.8,112.1,653.4,111.6z"/>
		
			<linearGradient id="SVGID_35_" gradientUnits="userSpaceOnUse" x1="389.7211" y1="215.9902" x2="638.8411" y2="158.8702" gradientTransform="matrix(1 0 0 -1 0 281.9055)">
			<stop  offset="0" style="stop-color:#009686"/>
			<stop  offset="1" style="stop-color:#002DE4"/>
		</linearGradient>
		<path class="st48" d="M691.8,144.1c1-0.1,2-0.3,3.1-0.6c1.7-0.3,3.4-0.8,5.1-1.5c0,0,1.9-1.4,3.2-2.1l0,0c0.4-0.3,0.8-0.5,1.2-0.7
			c1-0.5,2.2-0.9,3.2-1.4c1.9-1.1,2.6-3.1,3.3-5.1c0.3-0.6,0.5-1.2,0.7-1.9c-10.8-1.8-36.2-6.5-53.1-11.8
			C666.9,125.2,682.4,136.7,691.8,144.1z"/>
		
			<linearGradient id="SVGID_36_" gradientUnits="userSpaceOnUse" x1="389.1092" y1="213.3022" x2="638.2292" y2="156.1822" gradientTransform="matrix(1 0 0 -1 0 281.9055)">
			<stop  offset="0" style="stop-color:#009686"/>
			<stop  offset="1" style="stop-color:#002DE4"/>
		</linearGradient>
		<path class="st49" d="M668.7,140.7c5.9,2.5,12.3,3.8,18.7,3.7c-9.6-7.4-23.5-17.7-31.1-23.4C660.3,128,664.9,135,668.7,140.7z"/>
		
			<radialGradient id="SVGID_37_" cx="444.96" cy="158.5255" r="114.96" gradientTransform="matrix(1 0 0 -1 0 281.9055)" gradientUnits="userSpaceOnUse">
			<stop  offset="9.999930e-02" style="stop-color:#D7A519"/>
			<stop  offset="0.53" style="stop-color:#0096C2"/>
			<stop  offset="1" style="stop-color:#002DE4"/>
		</radialGradient>
		<path class="st50" d="M650.2,116.5l-0.4-0.7l0,0l-2.3-4.1l0.1-0.1v-0.1c-0.9-1.3-1.8-2.7-2.5-4.1c-6.9-13.1-16.5-24.1-26.9-34.5
			c-9.8-9.9-21.4-15-35.6-14.6c-9.7,0.4-19.4,1.5-28.9,3.2c-3.3,0.6-4.5-0.4-5.3-3.3c-1.5-5.2-3.3-10.3-5.4-15.4
			c-0.2-0.4-0.3-0.8-0.4-1.2c-0.2-0.9-0.2-2-1.3-2c-1.5-0.1-1.2,1.4-1.2,2.2c-0.1,2.8,0,5.6,0,8.4c-0.1,3.2-0.3,6.5-0.1,9.7
			c0.1,2.9-1.2,3.9-3.8,4.4c-12,2.6-22.3,8.5-31.7,16.2c-2.1,1.7-4,4.6-6.1,4.8c-2.6,0.3-3.9-4-5.5-5.7c-4.7-7.2-11.3-13-19.1-16.6
			c-13.3-6.1-29.3-0.4-35.6,12.1c-3.5,4.5-5.1,9.9-6.7,15.3c-0.2,0.9-0.6,1.8-1,2.6c-6-1.7-12.3,1.8-14.1,7.8
			c-0.3,1-0.4,2.1-0.4,3.2c0,0.3,0,0.5,0,0.8c-0.1,1.7,0.2,3.3,0.9,4.8c0.8,1.5,2.1,2.7,3.6,3.5c5,3.8,12.2,2.8,16-2.2
			c3.8-5,2.8-12.2-2.2-16c-0.2-2.4,0.6-4.8,1.6-7.3c0.7-1.7,1.3-3.4,1.9-5.1c1-1.8,2-3.4,2-3.4l1.3-2.4c0.1-0.5,3.2-4.6,5.7-7.1
			c7.3-7.2,21-8,29.1-1.7c5.2,3.9,9.7,8.6,13.3,13.9c0.9,1.7,2.6,4.8,3.5,6.5c0.5,3-1.2,5.1-3,7.1c-16.9,18-22.8,39.7-21.6,63.9
			c0.1,2.3,1,3,3.1,2.7c3.1-0.5,6.2-0.8,9.2-1.4c2.4-0.5,3.2,0.2,3.3,3.3c0.2,5,0.8,10,2,14.9c0.5,2.4-0.2,3.2-2,4.1
			c-5.5,2.6-5.7,3.2-2,8.2c8.9,12.1,21,18.3,35.8,20.1c17,2.1,34.3,0.5,50.6-4.8c2.6-0.9,4-0.3,5.6,1.9c3.4,4.8,7.3,9.4,11.4,13.6
			l7.1,4.5c0.6-1.7-0.2-3-0.7-4.3c-2-5.9-3.8-11.8-6-17.6c-1-2.7-0.5-4,2.3-5c13.1-5,25.1-12.1,36.4-20.3
			c14.7-10.7,25.3-24,26.4-43.1c0-0.8,0.3-1.7,0.4-2.5c0.9-5.7,6.6,0.2,8.7,1.9c1,0.8,1.9,1.5,2.9,2.2c0.3,0.2,0.6,0.4,0.9,0.5
			c-4-6.1-8.5-13.2-12.2-19.9L650.2,116.5z M502.9,131c3.9,0,6.9,2.7,7,6.3c0.1,4.1-3.1,7.5-7.2,7.7c0,0-0.1,0-0.1,0
			c-3.7,0.1-6.8-2.7-7-6.4c-0.1-4.1,3-7.5,7.1-7.6C502.7,131,502.8,131,502.9,131z M501.2,175.7c-6.6,2.6-6.5,2.6-8.5-4.2
			c-0.7-2.7-1.6-5.4-2.6-8c-1.2-2.9-0.5-4.2,2.7-4.1c1.4,0.1,2.8-0.1,4.2-0.2c7-0.4,5.6-0.3,6.2,9.3c0.1,1.1,0.2,2.1,0.4,3.1
			C504,173.8,503.3,174.9,501.2,175.7L501.2,175.7z M518.4,169.7c-2.3,0.6-6.3,2.5-8.6,0.9c-1-0.8-1.7-1.9-2.1-3.1
			c-0.8-1.9-2.3-4.6-2.4-6.6c0-2.3,2.1-2.4,3.9-2.3c1.6,0.1,3.2,0,4.8-0.3c1.7-0.2,3.6,0,5.2-0.4c0.5-0.2,1-0.2,1.5-0.2
			c1,0.1,1.4,1.1,1.5,2C523.7,166.8,523.2,168.3,518.4,169.7L518.4,169.7z M557,155.3c-7.5,4.5-15.7,7.6-23.9,10.3
			c-1.9,0.6-2.7,0-3.6-1.5c-4-6.9-4.1-6.9,3.7-7.9c1.4-0.2,2.8-0.2,4.2-0.3l0,0l23.3-3.5C559.9,154.6,558.5,155,557,155.3z"/>
	</g>
	<path class="st51" d="M481.6,191c-3.7-5.1-3.5-5.6,2-8.2c1.8-0.8,2.5-1.7,2-4.1c-1.2-4.9-1.8-9.9-2-14.9c-0.1-2.8-0.8-3.6-2.6-3.4
		c0.3,0.8,0.4,1.6,0.4,2.4c0.2,5,0.8,10,2,14.9c0.5,2.4-0.2,3.2-2,4.1c-5.5,2.6-5.7,3.2-2,8.2c5,7,11.8,12.5,19.7,15.9
		C492.2,202.4,486.2,197.3,481.6,191z"/>
	<path class="st52" d="M573.6,208.2c-1-1.4-2-2.1-3.2-2.2c0.4,0.4,0.7,0.8,1,1.2c3.4,4.8,7.3,9.4,11.4,13.6l7.1,4.5
		c0-0.1,0-0.2,0.1-0.3l-5-3.1C580.8,217.6,577,213,573.6,208.2z"/>
	<path class="st52" d="M554.8,154.2c-7.5,4.5-15.7,7.6-23.9,10.3c-0.3,0.1-0.7,0.2-1,0.2c0.8,1,1.6,1.3,3.1,0.8
		c8.3-2.7,16.4-5.8,23.9-10.3c1.5-0.3,2.9-0.6,3.6-2.8l-2.9,0.4C556.9,153.7,555.9,154.1,554.8,154.2z"/>
	<path class="st52" d="M520.7,157.5c-0.3,0-0.6,0-0.9,0.1c0.1,0.3,0.2,0.6,0.3,0.9c1.5,7.3,0.9,8.8-3.9,10.1
		c-1.8,0.5-4.6,1.7-6.9,1.5c0.1,0.1,0.3,0.3,0.5,0.4c2.3,1.6,6.3-0.2,8.6-0.9c4.8-1.3,5.4-2.8,3.9-10.1
		C522.1,158.7,521.7,157.6,520.7,157.5z"/>
	<path class="st52" d="M498.3,85.4c2.2-0.2,4.1-3.2,6.1-4.9c9.4-7.7,19.7-13.6,31.7-16.2c2.6-0.5,3.9-1.6,3.8-4.5
		c-0.2-3.2,0.1-6.5,0.1-9.7c0-2.8-0.1-5.6,0-8.4c0-0.6-0.1-1.4,0.2-1.8c-0.1-0.7-0.3-1.3-1.2-1.4c-1.5-0.1-1.1,1.4-1.2,2.2
		c-0.1,2.8,0,5.6,0,8.4c-0.1,3.2-0.3,6.5-0.2,9.7c0.1,2.9-1.2,3.9-3.8,4.5c-12,2.6-22.3,8.5-31.7,16.2c-2.1,1.7-4,4.6-6.2,4.9
		c0,0,0,0-0.1,0C496.6,85,497.4,85.4,498.3,85.4z"/>
	<path class="st53" d="M416.8,109.6c-0.7-1.5-1.1-3.2-0.9-4.8c0-0.3,0-0.5,0-0.8c0-6.3,5.1-11.4,11.3-11.4c1.1,0,2.1,0.1,3.1,0.4
		c0.4-0.8,0.8-1.7,1-2.6c1.5-5.4,3.2-10.7,6.7-15.2c6.2-12.1,21.4-17.8,34.5-12.6c-0.3-0.2-0.6-0.3-0.9-0.5
		c-13.4-6.1-29.3-0.4-35.7,12.1c-3.5,4.5-5.1,9.9-6.7,15.3c-0.2,0.9-0.6,1.8-1,2.6c-6.1-1.7-12.3,1.8-14.1,7.9
		c-0.3,1-0.4,2.1-0.4,3.1c0,0.3,0,0.5,0,0.8c-0.1,1.7,0.2,3.3,0.9,4.8c0.8,1.5,2.1,2.7,3.6,3.5c1,0.7,2.1,1.3,3.2,1.7
		c-0.4-0.2-0.7-0.5-1.1-0.7C418.8,112.3,417.6,111.1,416.8,109.6z"/>
	<path class="st52" d="M553.5,61.5c9.6-1.7,19.2-2.8,28.9-3.2c6.8-0.3,13.6,1,19.9,3.6c-6.8-3.3-14.4-4.9-22-4.6
		c-9.7,0.4-19.4,1.5-28.9,3.2c-0.7,0.1-1.3,0.2-2,0.1C550.2,61.5,551.5,61.8,553.5,61.5z"/>
	<path class="st52" d="M503.2,168.4c-0.5-7.6,0.3-9.2-2.9-9.4c0.6,1.2,0.4,3.6,0.7,8.4c0.1,1.1,0.2,2.1,0.4,3.1
		c0.4,2.3-0.3,3.3-2.4,4.1c-1.5,0.7-3.1,1.2-4.7,1.6c1.1,1.7,2.5,1.1,6.8-0.6c2.1-0.8,2.9-1.9,2.4-4.1
		C503.4,170.5,503.3,169.4,503.2,168.4z"/>
	<path class="st51" d="M489.5,95.4c1.9-2,3.6-4.1,3-7.1c-0.9-1.7-2.6-4.9-3.5-6.5c-3.6-5.3-8.1-10-13.3-13.9c-1.5-1.1-3.1-2-4.9-2.7
		c0.9,0.5,1.8,1.1,2.7,1.7c5.2,3.9,9.7,8.6,13.3,13.9c0.9,1.7,2.6,4.8,3.5,6.5c0.5,3-1.2,5.1-3,7.1c-16.9,18-22.8,39.7-21.6,63.9
		c0.1,2.1,0.8,2.9,2.6,2.7c-0.2-0.5-0.4-1.1-0.4-1.7C466.7,135.1,472.6,113.4,489.5,95.4z"/>
	<g>
		
			<radialGradient id="SVGID_38_" cx="-712.4426" cy="341.6776" r="79.58" gradientTransform="matrix(0.42 -0.47 -0.44 -0.4 1036.2985 -83.3978)" gradientUnits="userSpaceOnUse">
			<stop  offset="0" style="stop-color:#FFB432"/>
			<stop  offset="4.000000e-02" style="stop-color:#FDA645;stop-opacity:0.9"/>
			<stop  offset="0.13" style="stop-color:#F98B6B;stop-opacity:0.69"/>
			<stop  offset="0.21" style="stop-color:#F5738C;stop-opacity:0.51"/>
			<stop  offset="0.3" style="stop-color:#F361A5;stop-opacity:0.38"/>
			<stop  offset="0.37" style="stop-color:#F155B6;stop-opacity:0.28"/>
			<stop  offset="0.44" style="stop-color:#EF4DC1;stop-opacity:0.22"/>
			<stop  offset="0.5" style="stop-color:#EF4AC5;stop-opacity:0.2"/>
			<stop  offset="1" style="stop-color:#6AE4D4;stop-opacity:0.1"/>
		</radialGradient>
		
			<linearGradient id="SVGID_39_" gradientUnits="userSpaceOnUse" x1="-427.1313" y1="961.9562" x2="-397.1114" y2="961.9562" gradientTransform="matrix(0.56 -0.62 -0.59 -0.53 1384.2543 388.4799)">
			<stop  offset="0" style="stop-color:#F390B0;stop-opacity:0.1"/>
			<stop  offset="0.34" style="stop-color:#6ACF93;stop-opacity:0.2"/>
			<stop  offset="0.36" style="stop-color:#6FCA8F;stop-opacity:0.23"/>
			<stop  offset="0.49" style="stop-color:#95AB76;stop-opacity:0.46"/>
			<stop  offset="0.62" style="stop-color:#B59062;stop-opacity:0.66"/>
			<stop  offset="0.73" style="stop-color:#CE7C51;stop-opacity:0.8"/>
			<stop  offset="0.84" style="stop-color:#DF6D46;stop-opacity:0.91"/>
			<stop  offset="0.93" style="stop-color:#EA643F;stop-opacity:0.98"/>
			<stop  offset="1" style="stop-color:#EE613C"/>
		</linearGradient>
		<path class="st54" d="M598.3,136.3l-9.2,11.5c-3,3.6-6.3,3.8-7.8-1.2l-5.1-14.8c-1.7-5.4,2.6-6.6,7.2-6.1l13.1,4.1
			c2.1,0.6,3.4,2.8,2.8,4.9C599.1,135.3,598.7,135.9,598.3,136.3z"/>
	</g>
	<path class="st55" d="M505.7,34.1l-2.8,0.2c-0.8,0.1-1.5-0.4-1.8-1.1l-2.1-5c-0.1-0.2-0.1-0.4-0.1-0.6L497,3.5
		c-0.1-1,0.7-1.9,1.6-1.9c0,0,0,0,0,0l5.9-0.5c1-0.1,1.8,0.7,1.9,1.6c0,0,0,0,0,0l1.9,24c0,0.2,0,0.3,0,0.5l-1,5.4
		C507.2,33.4,506.5,34,505.7,34.1z"/>
	<path class="st55" d="M503.5,39.3l2.9-0.2c0.7-0.1,1.2,0.4,1.3,1.1l0.2,3.2c0.1,0.7-0.4,1.2-1.1,1.3l-2.9,0.2
		c-0.7,0.1-1.2-0.4-1.3-1.1l-0.2-3.2C502.4,39.9,502.9,39.4,503.5,39.3z"/>
</g>
<radialGradient id="SVGID_40_" cx="246.9212" cy="138.6749" r="121.27" gradientTransform="matrix(-0.88 -0.47 0.47 -0.88 483.7244 431.0168)" gradientUnits="userSpaceOnUse">
	<stop  offset="0" style="stop-color:#DBCD89"/>
	<stop  offset="1" style="stop-color:#2054BE"/>
</radialGradient>
<path class="st56" d="M346.9,257.5l1.7,1l4.8,2.7l5.3,2.9l1.7,0.9l1.4,0.8l1.6,0.9l1.9,1.1c0,0,2.9,1.6,12.1,3.7
	c8.9,2.1,12,5.5,16,9.5h56.4c2.4-4.6,4.5-9.3,6.2-14.2c0,0,1.9-4-4.1-8.7s-29.9-15.8-35.6-17.2c-5.8-1.4-10.4-2.2-17.1-8.8
	c-6.7-6.7-9.5-8.4-9.5-8.4l-3.2-1.8L385,221l-2.8-1.5l-1.5-0.8l-1.3-0.7l-2.1-1.1l-2.9-1.6l-2.5-1.4l-5.1-2.8l-0.6-0.3l-1.9-1
	l-2-1.1l-1.1-0.6c-15.2-8.4-36.5-3.1-36.5-3.1l-3.8-2l1.1-1.9l-1.5-0.8l-1.1,2l-1.5-0.8l-4.8,8.7v-0.1l4.8-8.6l0,0l0.8-1.4l-9.4-4.6
	l-10.6,19.1l8.8,5.7l0.8-1.4l1.5,0.9l-1.2,2.1l1.5,0.8l1.1-2l3.7,2.2c0,0,6.8,20.9,22,29.3l0.8,0.4l2.1,1.2l3.3,1.8l2.3,1.3
	L346.9,257.5z"/>
<radialGradient id="SVGID_41_" cx="246.9212" cy="138.6749" r="121.27" gradientTransform="matrix(-0.88 -0.47 0.47 -0.88 483.7244 431.0168)" gradientUnits="userSpaceOnUse">
	<stop  offset="0" style="stop-color:#DBCD89"/>
	<stop  offset="1" style="stop-color:#2054BE"/>
</radialGradient>
<polygon class="st57" points="313.1,209.9 313.1,210 317.9,201.3 317.9,201.3 "/>
</svg>
