<?xml version="1.0" encoding="utf-8"?>
<!-- Generator: Adobe Illustrator 23.0.0, SVG Export Plug-In . SVG Version: 6.00 Build 0)  -->
<svg version="1.1" id="圖層_1" xmlns="http://www.w3.org/2000/svg" xmlns:xlink="http://www.w3.org/1999/xlink" x="0px" y="0px"
	 viewBox="0 0 331.7 173.4" style="enable-background:new 0 0 331.7 173.4;" xml:space="preserve">
<style type="text/css">
	.st0{fill:#FFCC00;}
</style>
<path class="st0" d="M28.1,155.3c12.9,13.1,46.7,21.7,81.9,16.8c34.6-4.1,82.7-3.9,98.6-2.3c15.8,1.6,57.9,9.8,90.6-10.5
	c10.6-7.3,37.5-24.5,31.7-61.1c-4.8-24-4.8-26.1-5.7-35c-1-8.9-5.7-41.3-37.4-53.9c-35-9.4-72-10.5-116.2-8
	c-48.5,3.6-75,3.2-91.8,1.1c-21.6-0.5-39.9,8.4-46.4,17c-4.2,5.6-9.3,8.7-17.3,17.2C9.8,42.9-3.5,55.9,0.8,90.9
	C4.7,108.4,4.6,132.8,28.1,155.3z"/>
</svg>
