<svg id="圖層_1" data-name="圖層 1" xmlns="http://www.w3.org/2000/svg" xmlns:xlink="http://www.w3.org/1999/xlink" viewBox="0 0 409.19 320.19"><defs><style>.cls-1{fill:url(#未命名漸層);}.cls-2{fill:url(#未命名漸層_2);}.cls-3{fill:url(#未命名漸層_4);}.cls-4{fill:url(#未命名漸層_4-2);}.cls-10,.cls-11,.cls-12,.cls-13,.cls-14,.cls-15,.cls-16,.cls-5,.cls-6,.cls-7,.cls-8,.cls-9{fill:none;stroke-linecap:round;stroke-linejoin:round;stroke-width:2px;}.cls-5{stroke:url(#未命名漸層_5);}.cls-6{stroke:url(#未命名漸層_6);}.cls-7{stroke:url(#未命名漸層_7);}.cls-8{stroke:url(#未命名漸層_8);}.cls-9{stroke:url(#未命名漸層_9);}.cls-10{stroke:url(#未命名漸層_10);}.cls-11{stroke:url(#未命名漸層_11);}.cls-12{stroke:url(#未命名漸層_12);}.cls-13{stroke:url(#未命名漸層_13);}.cls-14{stroke:url(#未命名漸層_14);}.cls-15{stroke:url(#未命名漸層_15);}.cls-16{stroke:url(#未命名漸層_16);}.cls-17{fill:#fff;}.cls-17,.cls-19,.cls-20{stroke:#d2d4cd;stroke-miterlimit:10;}.cls-18,.cls-19,.cls-20{fill:#292929;}.cls-20{stroke-width:0.5px;}.cls-21{fill:url(#未命名漸層_17);}.cls-22{fill:url(#未命名漸層_18);}.cls-23{fill:url(#未命名漸層_19);}.cls-24{opacity:0.4;fill:url(#未命名漸層_20);}.cls-24,.cls-30,.cls-32{isolation:isolate;}.cls-25{opacity:0.37;}.cls-26{fill:url(#未命名漸層_21);}.cls-27{fill:url(#未命名漸層_22);}.cls-28{fill:url(#未命名漸層_23);}.cls-29{fill:url(#未命名漸層_44);}.cls-30{opacity:0.87;fill:url(#未命名漸層_42);}.cls-31{fill:url(#未命名漸層_26);}.cls-32{fill:#6acf93;opacity:0.6;}.cls-33{opacity:0.69;}.cls-34{fill:url(#未命名漸層_27);}.cls-35{fill:url(#未命名漸層_28);}.cls-36{opacity:0.29;}.cls-37{fill:url(#未命名漸層_29);}</style><linearGradient id="未命名漸層" x1="322.83" y1="165.95" x2="196.83" y2="220.67" gradientTransform="matrix(1, 0, 0, -1, 0, 319.91)" gradientUnits="userSpaceOnUse"><stop offset="0.07" stop-color="#c46280"/><stop offset="0.25" stop-color="#a66b7e"/><stop offset="0.65" stop-color="#598178"/><stop offset="1" stop-color="#129673"/></linearGradient><linearGradient id="未命名漸層_2" x1="347.53" y1="223.75" x2="195.37" y2="230.47" gradientTransform="matrix(1, 0, 0, -1, 0, 319.91)" gradientUnits="userSpaceOnUse"><stop offset="0.07" stop-color="#ff90af"/><stop offset="0.2" stop-color="#e199ae"/><stop offset="0.49" stop-color="#93aeaa"/><stop offset="0.92" stop-color="#18d1a5"/><stop offset="1" stop-color="#00d8a4"/></linearGradient><linearGradient id="未命名漸層_4" x1="-20.04" y1="169.23" x2="127.8" y2="120.75" gradientUnits="userSpaceOnUse"><stop offset="0.07" stop-color="#c46280"/><stop offset="0.25" stop-color="#a65c7e"/><stop offset="0.65" stop-color="#594e78"/><stop offset="1" stop-color="#124173"/></linearGradient><linearGradient id="未命名漸層_4-2" x1="322.83" y1="165.95" x2="196.83" y2="220.67" gradientTransform="matrix(1, 0, 0, -1, 0, 319.91)" xlink:href="#未命名漸層_4"/><linearGradient id="未命名漸層_5" x1="355.52" y1="240.78" x2="409.45" y2="240.78" gradientTransform="matrix(1, 0, 0, -1, 0, 319.91)" gradientUnits="userSpaceOnUse"><stop offset="0.07" stop-color="#ff90af"/><stop offset="0.35" stop-color="#ffaec5"/><stop offset="0.97" stop-color="#fffbfc"/><stop offset="1" stop-color="#fff"/></linearGradient><linearGradient id="未命名漸層_6" x1="377.25" y1="206.3" x2="409.25" y2="206.3" gradientTransform="matrix(1, 0, 0, -1, 0, 319.91)" gradientUnits="userSpaceOnUse"><stop offset="0.07" stop-color="#0000af"/><stop offset="0.2" stop-color="#001eb9"/><stop offset="0.49" stop-color="#006cd1"/><stop offset="0.92" stop-color="#00e7f7"/><stop offset="1" stop-color="aqua"/></linearGradient><linearGradient id="未命名漸層_7" x1="323.95" y1="284.15" x2="343.32" y2="284.15" xlink:href="#未命名漸層_5"/><linearGradient id="未命名漸層_8" x1="132.84" y1="201.95" x2="165.68" y2="201.95" gradientTransform="matrix(0.83, -0.56, -0.56, -0.83, 135.56, 369.68)" gradientUnits="userSpaceOnUse"><stop offset="0.07"/><stop offset="0.2" stop-color="#1e1e1e"/><stop offset="0.49" stop-color="#6c6c6c"/><stop offset="0.92" stop-color="#e7e7e7"/><stop offset="1" stop-color="#fff"/></linearGradient><linearGradient id="未命名漸層_9" x1="131.44" y1="188.93" x2="154.86" y2="188.93" xlink:href="#未命名漸層_8"/><linearGradient id="未命名漸層_10" x1="143.55" y1="295.55" x2="171.3" y2="295.55" xlink:href="#未命名漸層_6"/><linearGradient id="未命名漸層_11" x1="299.81" y1="121.39" x2="347.75" y2="121.39" xlink:href="#未命名漸層_5"/><linearGradient id="未命名漸層_12" x1="290.85" y1="223.84" x2="324.3" y2="223.84" gradientTransform="matrix(1, 0, 0, -1, 0, 319.91)" gradientUnits="userSpaceOnUse"><stop offset="0" stop-color="#fff"/><stop offset="1" stop-color="#ff90af"/></linearGradient><linearGradient id="未命名漸層_13" x1="294.63" y1="228.85" x2="325.99" y2="228.85" xlink:href="#未命名漸層_12"/><linearGradient id="未命名漸層_14" x1="321.99" y1="224.71" x2="330.71" y2="224.71" xlink:href="#未命名漸層_12"/><linearGradient id="未命名漸層_15" x1="274.96" y1="199.47" x2="290.96" y2="199.47" gradientTransform="matrix(1, 0, 0, -1, 0, 319.91)" gradientUnits="userSpaceOnUse"><stop offset="0" stop-color="#f0f"/><stop offset="1" stop-color="#ff90af"/></linearGradient><linearGradient id="未命名漸層_16" x1="336.52" y1="120.02" x2="354.66" y2="120.02" xlink:href="#未命名漸層_5"/><linearGradient id="未命名漸層_17" x1="166.69" y1="399.62" x2="124.12" y2="366.54" gradientTransform="matrix(0.81, -0.59, -0.59, -0.81, 217.64, 632.82)" gradientUnits="userSpaceOnUse"><stop offset="0.07" stop-color="#caa0af"/><stop offset="0.23" stop-color="#aca8ad"/><stop offset="0.59" stop-color="#5ebea9"/><stop offset="1" stop-color="#00d8a4"/></linearGradient><linearGradient id="未命名漸層_18" x1="293.08" y1="309.87" x2="177.08" y2="219.72" xlink:href="#未命名漸層_2"/><linearGradient id="未命名漸層_19" x1="196.49" y1="216.26" x2="371.45" y2="318.5" gradientTransform="matrix(1, 0, 0, -1, 0, 319.91)" xlink:href="#未命名漸層_17"/><linearGradient id="未命名漸層_20" x1="196.49" y1="216.26" x2="371.45" y2="318.5" gradientTransform="matrix(1, 0, 0, -1, 0, 319.91)" gradientUnits="userSpaceOnUse"><stop offset="0.07" stop-color="#ca7580"/><stop offset="0.23" stop-color="#ac8485"/><stop offset="0.59" stop-color="#5eaa93"/><stop offset="1" stop-color="#00d8a4"/></linearGradient><linearGradient id="未命名漸層_21" x1="181.6" y1="246.18" x2="310.48" y2="347.7" gradientTransform="matrix(1, 0, 0, -1, 0, 319.91)" gradientUnits="userSpaceOnUse"><stop offset="0" stop-color="#bd688e"/><stop offset="0.36" stop-color="#71c98e"/><stop offset="0.56" stop-color="#53b694"/><stop offset="0.97" stop-color="#0685a3"/><stop offset="1" stop-color="#0081a4"/></linearGradient><linearGradient id="未命名漸層_22" x1="196.5" y1="227.26" x2="325.38" y2="328.78" xlink:href="#未命名漸層_21"/><linearGradient id="未命名漸層_23" x1="220.48" y1="196.82" x2="349.36" y2="298.34" xlink:href="#未命名漸層_21"/><linearGradient id="未命名漸層_44" x1="263.46" y1="343.23" x2="212.1" y2="269.31" xlink:href="#未命名漸層_4"/><linearGradient id="未命名漸層_42" x1="419.24" y1="215.81" x2="194.41" y2="41.08" gradientTransform="matrix(1, 0, 0, -1, 0, 319.91)" gradientUnits="userSpaceOnUse"><stop offset="0.04" stop-color="#555c80"/><stop offset="0.23" stop-color="#ac8485"/><stop offset="0.59" stop-color="#c05593"/><stop offset="1" stop-color="#00d8a4"/></linearGradient><linearGradient id="未命名漸層_26" x1="188.9" y1="539.23" x2="146.33" y2="506.15" gradientTransform="matrix(0.81, 0.65, -0.59, 0.89, 217.64, -592.87)" xlink:href="#未命名漸層_17"/><linearGradient id="未命名漸層_27" x1="43.21" y1="353.12" x2="129.13" y2="306.56" gradientTransform="translate(0 -248.89) scale(1 1.1)" xlink:href="#未命名漸層_17"/><linearGradient id="未命名漸層_28" x1="28.48" y1="325.95" x2="114.4" y2="279.39" gradientTransform="translate(0 -248.89) scale(1 1.1)" xlink:href="#未命名漸層_17"/><radialGradient id="未命名漸層_29" cx="180.69" cy="385.79" r="96.22" gradientTransform="matrix(0.81, -0.59, -0.59, -0.81, 217.64, 632.82)" gradientUnits="userSpaceOnUse"><stop offset="0.07" stop-color="#bb8baf"/><stop offset="0.24" stop-color="#9d91ad"/><stop offset="0.63" stop-color="#509ea9"/><stop offset="1" stop-color="#00ada4"/></radialGradient></defs><title>shell</title><path class="cls-1" d="M320.37,129.46c-20,5-40,6-58,0-29.28-10.87-53.66-30.85-72.56-55.24-7.67,7.82-14,15.24-14.28,18.09-.38,3.44-.46,6.68-3.48,9-.62.48,8.49,14.28,10.31,16.22,11.16,11.92,25.4,18.41,40.64,23,13,3.89,26.25,7.09,39.32,10.86,18.28,5.28,35.5,2.36,51.83-6.66,8.76-4.85,13.41-11.67,13.72-19.6A17.7,17.7,0,0,1,320.37,129.46Z"/><path class="cls-2" d="M262.37,129.46c18,6,38,5,58,0a17.7,17.7,0,0,0,7.5-4.33,28.29,28.29,0,0,0-3.48-14,76.77,76.77,0,0,0-24.2-28.31,191.27,191.27,0,0,0-73.95-31c-2.61-.5-5.27-.73-7.94-1.1-.05-2.9-16.07,10.81-28.49,23.48C208.71,98.61,233.09,118.59,262.37,129.46Z"/><path class="cls-3" d="M18.65,122.67c.37,10,3.71,18.39,10.76,24.8,9.38,8.55,20.75,12.31,32.23,15.59,16.48,4.7,32.76,2.27,48.85-2.5A21.35,21.35,0,0,0,118.2,156a6.61,6.61,0,0,0,1.48-5.21c-.2-1-2.6-1.51-4-2.2a1.5,1.5,0,0,0-.84,0c-19,3.93-36.21-2.93-53.33-10.48-6-2.65-12.1-5.1-18.11-7.69C41.62,129.54,18.56,120.16,18.65,122.67Z"/><path class="cls-4" d="M320.37,129.46c-20,5-40,6-58,0-29.28-10.87-53.66-30.85-72.56-55.24-7.67,7.82-14,15.24-14.28,18.09-.38,3.44-.46,6.68-3.48,9-.62.48,8.49,14.28,10.31,16.22,11.16,11.92,25.4,18.41,40.64,23,13,3.89,26.25,7.09,39.32,10.86,18.28,5.28,35.5,2.36,51.83-6.66,8.76-4.85,13.41-11.67,13.72-19.6A17.7,17.7,0,0,1,320.37,129.46Z"/><path class="cls-5" d="M356.52,82.56c7.79-7.66,17.31-12.66,26-8.26,3.51,1.78,6.67,5,10.07,7.29a24.07,24.07,0,0,0,9.3,3.87c2.39.41,5.23.07,6.56-3.17"/><path class="cls-6" d="M378.25,94.51c6.39,1.21,11.74,5.53,16.28,10.19,7.44,7.63,13.76,17.31,13.72,28"/><path class="cls-7" d="M325,26.24a20.62,20.62,0,0,1,10.87,7.38,47.73,47.73,0,0,1,6.5,11.65"/><path class="cls-8" d="M126.31,118.27a64,64,0,0,1,14.28,4.14c3.42,1.46,6.94,3.24,10.67,3,3.49-.2,6.59-2.06,9.52-3.92a9.24,9.24,0,0,0,3.18-2.74"/><path class="cls-9" d="M132.11,129.28a51.67,51.67,0,0,1,23.54,2.31c2.87,1,5.87,2.4,7.33,5.07"/><path class="cls-10" d="M144.55,28.71a17.34,17.34,0,0,0,14.83-.13c4.5-2.22,7.79-6.26,10.92-10.19"/><path class="cls-11" d="M300.81,189.9A59.62,59.62,0,0,0,346.75,207"/><path class="cls-12" d="M291.85,101.26c6.08,2,12.74,2.75,18.84.84s11.47-6.89,12.61-13.18"/><path class="cls-13" d="M295.63,94.8c3.14,1.32,5.2,4.74,8.53,5.47a11.24,11.24,0,0,0,3.66,0c2.88-.3,6-.7,8.06-2.7,2.32-2.23,2.68-5.74,3.41-8.87s2.51-6.62,5.7-7"/><path class="cls-14" d="M323,94.21a5,5,0,0,1,6.67,2.35l.05.11"/><path class="cls-15" d="M276,116.44a24.34,24.34,0,0,1,14,8"/><path class="cls-16" d="M337.52,200.53a17.56,17.56,0,0,0,16.14-2.3"/><path class="cls-17" d="M338.5,148.08c-.06,2.27-1.54,3.28-3.8,3.33-1.69,0-3.25-.58-3-2.59s.73-4.27,3.6-4.15C337.31,144.76,338.35,145.89,338.5,148.08Z"/><path class="cls-18" d="M329.86,164.65c-1.64-.16-2.16-1.06-2.1-2.56.07-1.85.53-3.39,2.67-3.51,1.54-.08,2.85.58,2.74,2.38A4,4,0,0,1,329.86,164.65Z"/><path class="cls-19" d="M360.05,136.85c-1.21,0-2.78.25-2.67-1.66a2.69,2.69,0,0,1,2.65-2.73l.35,0c1.74.07,3.1,1.17,3,2.81C363.25,137.12,361.36,136.68,360.05,136.85Z"/><path class="cls-17" d="M155.29,157.56c-.06,2.26-1.54,3.28-3.79,3.32-1.7,0-3.26-.58-3-2.59s.74-4.26,3.61-4.15C154.11,154.23,155.15,155.36,155.29,157.56Z"/><path class="cls-18" d="M167,167.68c-1.64-.16-2.16-1.06-2.1-2.56.07-1.84.53-3.39,2.67-3.5,1.53-.08,2.85.58,2.73,2.37A3.93,3.93,0,0,1,167,167.68Z"/><path class="cls-20" d="M279.07,271.68c-.9,0-2.07.18-2-1.24a2,2,0,0,1,2-2l.29,0a2,2,0,0,1,2.21,1.87,1.77,1.77,0,0,1,0,.23C281.46,271.88,280.05,271.55,279.07,271.68Z"/><path class="cls-21" d="M84.28,224.2c-4.35,1.94-7.8,6.12-9.82,12.7-2.48,8.1-1.24,14.44,4,18.6,12.39,9.83,25.29,13,38.65,8.87a9.4,9.4,0,0,0,1-.39s.92-.11,2.34-.43l1.41-.36a29.34,29.34,0,0,0,6.39-2.53c4.92-2.69,11.88-8.44,13.31-14.43s2-7.09.23-13.57-12.48-14.76-14.67-15.75h0a15.34,15.34,0,0,0-7.71-1.85C107.31,215,95.72,219.12,84.28,224.2Z"/><path class="cls-22" d="M210.11,103.46c28-16,60-23,77-51,6-10,12-23,5-34A45.46,45.46,0,0,0,271.69.09a69.87,69.87,0,0,0-39.57,13.85c-15,11.24-28.28,24.64-40.87,38.53C178.36,66.71,170,82.81,172.88,103.14c1.19,8.24,4.92,14,12.25,17.37,1.38.64,2.78,1.22,4.21,1.72A61.59,61.59,0,0,1,210.11,103.46Z"/><path class="cls-23" d="M304.31,13.82A15.8,15.8,0,0,0,296.91,5,35.08,35.08,0,0,0,283,.3,87.52,87.52,0,0,0,271.78.09,45.46,45.46,0,0,1,292.2,18.46c7,11,1,24-5,34-17,28-49,35-77,51a61.59,61.59,0,0,0-20.77,18.77,44.43,44.43,0,0,0,12.95,2.54,245.71,245.71,0,0,0,68.34-7c5.56-1.34,11-3.41,14.81-7.75,9.06-10.47,17.52-21.37,21.07-35.24,1.78-7,2.35-14.17,3.88-21.18V37.46C309.55,29.29,307.1,21.53,304.31,13.82Z"/><path class="cls-24" d="M304.31,13.82A15.8,15.8,0,0,0,296.91,5,35.08,35.08,0,0,0,283,.3,87.52,87.52,0,0,0,271.78.09,45.46,45.46,0,0,1,292.2,18.46c7,11,1,24-5,34-17,28-49,35-77,51a61.59,61.59,0,0,0-20.77,18.77,44.43,44.43,0,0,0,12.95,2.54,245.71,245.71,0,0,0,68.34-7c5.56-1.34,11-3.41,14.81-7.75,9.06-10.47,17.52-21.37,21.07-35.24,1.78-7,2.35-14.17,3.88-21.18V37.46C309.55,29.29,307.1,21.53,304.31,13.82Z"/><g class="cls-25"><path class="cls-26" d="M216.51,26.85a355.1,355.1,0,0,0-25.26,25.62C179,66,170.78,81.27,172.54,100.23c12.24-16.87,20.77-35.32,31.83-53.77Q210.49,36.7,216.51,26.85Z"/><path class="cls-27" d="M304.21,13.82a17,17,0,0,0-2.74-5c-20.08,12.08-39.89,24.79-59.1,39.6-24,19.74-45.84,38-69.24,56.05a28.69,28.69,0,0,0,1,3.88c16.63-10.06,31.93-22,49.27-31.93,4-3,29-21,39-28,14.85-11.13,28.63-22.27,42.42-33C304.6,14.91,304.41,14.37,304.21,13.82Z"/><path class="cls-28" d="M183,119.4c.67.39,1.37.77,2.11,1.11a46.52,46.52,0,0,0,7.32,2.69c9.73-1.58,19.47-3.11,28.93-5.74,24.95-7.87,49.47-14.88,74.4-20.47A67.47,67.47,0,0,0,306.5,74.74c.52-2,.93-4.07,1.29-6.11C267,87.24,224,100.56,183,119.4Z"/></g><path class="cls-29" d="M244,280.39c-7.54,2.69-15.79,3.75-24.22,4.38-3.22.25-6.48,0-9.73,0-5.74.12-11.52.64-17.17-.89a8.24,8.24,0,0,0,1.83,3.93c7.59,7.66,14.89,15.83,23.5,22.19,10.17,7.52,21.94,12.11,35.19,10.73,5.33-.56,9.68-2.77,11.91-7.77a11.94,11.94,0,0,0-2.51-13.85C256.59,292.79,250.35,286.51,244,280.39Z"/><path class="cls-30" d="M280,226c-.74-11-5.08-20-14.75-25.61-10.39-6.07-22.44-3.47-32.9,6a179.39,179.39,0,0,0-28.57,32.15c-7,10.38-14.35,20.64-18.69,32.54-2.5,6.83-.49,10.16,6.46,12.44.43.14.86.27,1.29.38,5.65,1.53,11.43,1,17.17.89,3.25,0,6.51.21,9.73,0,8.43-.63,16.68-1.69,24.22-4.38a42.86,42.86,0,0,0,21-15.47C273.37,253.27,281,241.37,280,226Z"/><path class="cls-31" d="M118.11,117.09c-7.17,9-16.29,14.48-28,13.64-8-.58-16.07.33-24.09,0-13.79-.65-27.67.51-41.34-2.43A25,25,0,0,1,8,116.61a12.38,12.38,0,0,1-.67-1.18h0a9.53,9.53,0,0,1-.44-1c-4.14-9.89.16-21.28,4.25-26,2.42-3.13,13.7-11.21,19.43-15.46l.33-.26.88-.64A277.87,277.87,0,0,1,67.49,47.92c.16-.73.87-1.25,2-1.76,3.67-1.56,7.27-3.29,10.93-4.91h0c2.24-1,4.5-1.88,6.8-2.64,10.1-3.3,20-6.39,31-2.34,18.06,6.67,23.71,21.61,20.08,41.58C135.59,93,127.28,105.64,118.11,117.09Z"/><path class="cls-32" d="M53.09,212.54c0-4.65.1-9.31,0-14-.12-4.27-3.65-8.59-7.78-9.38-5-1-9.86-.41-14,2.91A30.93,30.93,0,0,0,19.15,215.8a10.14,10.14,0,0,0,.09,2.2h0c.93,5.86.93,14.5,5,18.58s5.28,10.08,11.88,12.24,14.28,1,15.72-4.32,1.24-14.87,1.24-19.91h0C53.11,220.57,53.09,216.55,53.09,212.54Z"/><g class="cls-33"><path class="cls-34" d="M118.16,117.09c-7.17,9-16.29,14.48-28,13.64-8-.58-16.07.33-24.09,0-13.79-.65-27.67.51-41.34-2.43a29.57,29.57,0,0,1-4.19-1.24l109.3-26.76A136.18,136.18,0,0,1,118.16,117.09Z"/><path class="cls-35" d="M136.9,53.06,16.62,125.11a24.37,24.37,0,0,1-5.24-4.24L128,41.49A27.5,27.5,0,0,1,136.9,53.06Z"/></g><g class="cls-36"><path class="cls-37" d="M141.7,232.33l-68.29,9.38a19.83,19.83,0,0,0-.11,4L142.86,240c.15-1.94-.13-3.87-1.06-7.29A2.28,2.28,0,0,0,141.7,232.33Z"/><path class="cls-37" d="M78.46,255.5c12.39,9.83,25.29,13,38.65,8.87a9.4,9.4,0,0,0,1-.39s.92-.11,2.33-.43c.44-.1.91-.22,1.42-.36l.35-.1L73.88,248.88A13.33,13.33,0,0,0,78.46,255.5Z"/><path class="cls-37" d="M84.28,224.2c-3.74,1.67-6.81,5-8.88,10.07L104.11,217A123.64,123.64,0,0,0,84.28,224.2Z"/></g></svg>