<?xml version="1.0" encoding="utf-8"?>
<!-- Generator: Adobe Illustrator 23.0.0, SVG Export Plug-In . SVG Version: 6.00 Build 0)  -->
<svg version="1.1" id="圖層_1" xmlns="http://www.w3.org/2000/svg" xmlns:xlink="http://www.w3.org/1999/xlink" x="0px" y="0px"
	 viewBox="0 0 423.7 484.7" style="enable-background:new 0 0 423.7 484.7;" xml:space="preserve">
<style type="text/css">
	.st0{fill:#B890A4;}
	.st1{fill:#8BBDCC;}
	.st2{fill:#8B90CC;}
	.st3{fill:none;stroke:#8B90CC;stroke-miterlimit:10;}
	.st4{opacity:0.79;}
	.st5{fill:#C75F67;}
	.st6{opacity:0.51;}
	.st7{fill:#F39DB0;}
	.st8{fill:#D690B0;}
	.st9{fill:#CA9095;}
	.st10{fill:#F390B0;}
	.st11{fill:#FFFFFF;}
	.st12{fill:#D86C6C;}
	.st13{fill:none;}
	.st14{fill:none;stroke:url(#SVGID_1_);stroke-linecap:round;stroke-linejoin:round;}
	.st15{fill:none;stroke:url(#SVGID_2_);stroke-linecap:round;stroke-linejoin:round;}
	.st16{fill:none;stroke:url(#SVGID_3_);stroke-linecap:round;stroke-linejoin:round;}
	.st17{fill:none;stroke:url(#SVGID_4_);stroke-linecap:round;stroke-linejoin:round;}
	.st18{fill:none;stroke:url(#SVGID_5_);stroke-linecap:round;stroke-linejoin:round;}
	.st19{fill:none;stroke:url(#SVGID_6_);stroke-linecap:round;stroke-linejoin:round;}
	.st20{fill:#C44545;}
	.st21{fill:#B4667A;}
	.st22{fill:none;stroke:#CC7D7D;stroke-miterlimit:10;}
	.st23{opacity:0.6;fill:#C44545;enable-background:new    ;}
	.st24{fill:#F37077;stroke:url(#SVGID_7_);stroke-width:2;stroke-linecap:round;stroke-linejoin:round;}
	.st25{fill:none;stroke:#C44545;stroke-width:2;stroke-linecap:round;stroke-linejoin:round;}
</style>
<path class="st0" d="M124.4,270.1c-0.3-6.9,0.9-13.8,3.5-20.2c0.4-1,0.8-2.4,2.1-2.4s1.7,1.4,2,2.4c3.5,12.2,6.3,24.5,5.9,37.3
	c-0.1,4,0.1,8.2-1.2,12.1c-0.5,1.4-0.7,3.3-2.6,3.4c-1.7,0.1-2.3-1.6-2.7-2.9C127.8,290.3,123.8,280.7,124.4,270.1z"/>
<path class="st1" d="M350.9,200.8c-0.5,2.3-1,5.1-1.7,7.8c-0.4,1.6-0.7,3.7-2.8,3.7s-4.4-0.3-5.5-2.5c-2.5-5.1-4.6-10.4-4.7-16.1
	c-0.1-4.9,3.8-8,6.5-11.5c1-1.3,2.1,0,2.6,1C348.3,188.6,350.2,194.6,350.9,200.8z"/>
<path class="st0" d="M290.8,317.5c-0.3,2.4-0.8,5.9-1.3,9.4c-0.1,0.9-0.2,2.1-1.4,2.3c-1,0.1-1.4-0.8-1.8-1.5
	c-4.5-6.9-7.7-14.4-8.3-22.7c-0.2-3.3-0.7-7.7,3-8.8s4.7,3.2,6.1,5.8C289.7,306.6,291,312,290.8,317.5z"/>
<path class="st2" d="M422.1,435.2c0,2.2,0.1,3.6-1.3,4.2c-1.6,0.8-2.7-0.4-3.6-1.4c-5.3-5.9-9.2-12.8-11.5-20.4
	c-0.5-1.6-0.4-3.4,0.3-5c1-1.9,2.7-2.6,4-0.9C415.7,419.1,420.2,427,422.1,435.2z"/>
<path class="st2" d="M138.8,186.2c0.5-1.8-1.1-5.2,1.6-5.6c2.4-0.4,3.4,3,4.1,5.2c1.4,4.2-0.2,8.4-0.7,12.5c-0.3,2.1-2,0.6-2.5-0.4
	C139.3,194.4,138.9,190.5,138.8,186.2z"/>
<path class="st2" d="M81.4,303.2c2.3-0.1,3.7,4.7,4.5,6.8c1.3,3.1,2.6,6.2,4,9.4s1.2,6.2,5,7.7c2.2,0.9,4.9,3.6,1.3,5.5
	c-0.6,0.3-1.2,0.7-1.2,1.6c1.2,17.3-1.4,34.6-0.8,51.9c0.1,1.4-0.1,2.8-0.4,4.2c-1.9,6.2-1.8,11.8,3.2,16.8c2,2,2.5,5,2.9,7.8
	c0.2,1.1,0.6,2.3-0.7,3c-1,0.5-1.9-0.1-2.8-0.6c-2.5-1.4-4.6-3.3-6.3-5.5c-1.5-1.9-3-2.5-4.9-0.8c-0.2,0.2-0.5,0.3-0.7,0.4
	c-2.1,0.9-4.4,3.8-6.3,2.2c-2.3-2-0.1-5,0.8-7.4c1-2.8,2.6-5.4,4.7-7.5c1.7-1.8,1.5-3.3,0.8-5.3c-4.4-11.4-9.2-22.8-13-34.4
	c-5.1-15.6-4.1-31.1,2.1-46.3C75,309,78.2,303.3,81.4,303.2z"/>
<path class="st3" d="M75,316.9c-6.9-0.3-13.8,2.9-18.6,7.9c-4.7,5.2-7.8,11.6-8.9,18.5"/>
<path class="st3" d="M73.6,321.5c-3.1-0.7-5.8,2.1-7.7,4.6c-4.1,5.6-8,11.4-10.7,17.8s-3.8,13.6-2.4,20.3"/>
<g class="st4">
	<path class="st2" d="M360.4,436.3c-0.5-0.1-1.2-0.2-1.9-0.3c-2.4-0.5-3.4,0.1-1.9,2.6c0.3,0.6,0.6,1.3,0.8,2
		c0.4,1.3,0.7,2.7-0.6,3.5c-1.5,0.9-2.5-0.6-2.9-1.6c-1.5-3.5-4.5-4.6-7.6-6.2c-12.9-6.6-24.9-14.6-34.4-25.7
		c-8.3-9.7-12.9-21.5-15.9-33.8c-0.3-1.1-0.7-2.4,0.4-3.1s2.2,0.1,3.1,0.7c10.8,7.3,20.8,15.5,29.3,25.4c7.3,8.5,13.4,17.8,20,26.8
		c1.7,2.6,4.5,4.3,7.7,4.5c1.8,0.1,3.6,0.6,5.2,1.5c1,0.5,2.3,1.2,1.8,2.5S361.7,436.2,360.4,436.3z"/>
	<path class="st3" d="M301.7,379.7c4.2-3.5,9.6-5.2,15-4.8c5,0.5,9.8,2.5,13.6,5.8"/>
	<path class="st3" d="M304.6,381.5c1.6-1.9,4.5-1.7,6.8-1.2c5,0.9,9.8,2.4,14.4,4.5c4.4,2.3,8.3,5.6,10.4,10"/>
</g>
<path class="st5" d="M240.5,181c-0.5,0.2-1.2,0.1-2.4-0.3c-4.1-1.2-8.3-1.8-12.5-1.6c-2.7,0.1-6.6,0.3-6.9,3.1
	c-0.2,1.8,4,2.3,6.5,2.6c0.6,0.1,1.1,0.1,1.7,0.1c0.8,0.4,1.6,0.1,2.4,0.4c0.5,0.1,1,0,1.5,0.3c-0.5,0.2-1,0.4-1.4,0.8
	c-6.3,1.5-6.9,2.3-5.6,6.7c-4.6,1-9.4,1-13.7,3.9c3,1.4,5.8,1.3,8.5,1.5c1.5,0.5,3,0.1,4.5,0.3c0.6,0.1,1.9-0.6,1.3,1.1
	c-1.2,0.7-2.3,1.5-3.4,2.4c-1.3,1.3,0.3,1.1,0.9,1.3c1.7,0.6,3.5,0,5.2,0.4c0.2,0.1,0.8-0.4,0.7,0.2c0,0.3-0.6,0.5-0.8,0.8
	c-1.7,0.8-3.7,1.3-5.2,3.1l2.7,0.5c0.8,0.2,1.6,0.4,2.4,0.4c1.8,0.3-0.1,0.7,0,1.1c-1.7,0.8-3.7,1.1-4.8,3.3
	c6.8,2.5,13.4,1.2,19.6-0.8c1.3-0.5,2.7-0.6,4.1-0.3C243.1,201.9,240,191.4,240.5,181z"/>
<g class="st6">
</g>
<path class="st7" d="M351,272.8c-1.8,0.1-3.6-0.8-4.6-2.3c-6.8-20.1-15.2-36.2-24.9-53.4c-18.3-32.6-41.1-63.7-70.8-88.2
	c-0.5-0.4-0.9-1.1-1.4-1.6s-1-0.9-2.5-2.2c1.8,5.9,2.4,12.3,3.8,15.4c-2.7,2.9-5.1,6-7.2,9.3c-5.4,8.5-1.9,18.7-2.2,28.6
	c0,1.6-0.2,2.4-0.7,2.6c-0.5,10.5,2.6,20.9,5.3,31.4c1.3,0.5,2.2,1.8,3.1,3.8c9.6,21,26.6,34.9,46.8,44.5
	c13.9,6.6,28.6,11.5,42.9,17.5c1.4,0.7,2.5,1.7,3.2,3.1c3.1,4.7,6.2,9.4,10.2,13.4c2.6,2.6,5.5,4.8,9.3,5.5c1.8,0.3,3.8,0.6,5-1.2
	s0.2-3.5-0.8-5.1c-1.9-2.8-4.2-5.2-6.8-7.2c3.4-0.8,7.1,1.3,9.7-1.9v-0.9C364.9,276.6,358.9,273.2,351,272.8z"/>
<g class="st6">
</g>
<g class="st4">
	<path class="st8" d="M205.2,268.7c3.7-0.7,5.8-2.4,8.4-2.8c1.6-0.3,2.8-0.4,3.6,0.9c0.7,1.2,0.6,2.8-0.3,3.9
		c-1.4,2-3.5,3.1-5.6,4.2c0.6,1,1.6,0.4,2.4,0.6c1.6,0.3,3.1,1,3.6,2.5s-0.3,3.2-1.7,3.9c-2.9,1.3-1.9,2.9-1,4.9
		c5.9,13.1,6.4,26.7,2.7,40.5c-0.8,3-1.3,5.3,3.2,4.4c2.2-0.4,4.3,0.4,5.7,2.1c1.4,1.5,3.4,3.1,2,5.4c-1.2,2-3.5,2.2-5.7,1.8
		c-1.6-0.4-3.2-0.9-4.7-1.4c0.2,2.3,1.9,4.9-1.4,6.1c-1.7,0.6-3.6,1.5-5.2,0c-1.8-1.7-2.4-4.4-1.4-6.7c1-2.7,0.1-4.3-1.6-6.2
		c-10.8-11.6-18.2-25.4-23.6-40.2c-0.7-1.9-0.8-4.1-3.9-2.1c-1.4,0.9-3.9,0.9-5-0.9c-1.8-2.9,1.1-4.1,2.8-6.2
		c-2.9-0.4-7.4,0.4-6.8-3.3c0.8-4.3,5.1-2.7,8.7-2.3c-2.2-12-3-24.3-2.3-36.5c2.6,5.5,4.6,9.9,6.6,14.2c0.7,1.7,2.1,3,3.8,3.5
		c3.5,1.1,6.8,2.9,9.6,5.3c1.8,1.6,3.1,1.7,5,0c2.4-2.2,5.2-3.8,8.3-4.7c0.7-0.2,1.8-1.6,2.5-0.1c0.6,1,0.2,2.3-0.8,3
		C210.9,264.1,208.5,266.1,205.2,268.7z"/>
	<g class="st6">
	</g>
</g>
<path class="st9" d="M270,455.9c-0.9-3-3.5-1.8-5.6-1.1c-0.7,0.2-1.3,0.4-1.9,0.8c-2.9,2.3-3.7,0.3-4-2c-1.1-10.1-2.5-20.2-6.8-30.2
	c5.2,1.8,9.1,5.6,14.7,5.1c-1.4-3-3.9-4.4-6.4-5.7l0,0l-5-1.8c-1.3,0.2-2.4-0.5-3.7-1.1c1.5-1,2.6-0.2,3.7,0.4
	c2.7-0.6,5.4,2.5,8.2,0l0,0l-1.3-0.4c-0.7-0.2-1.6-0.2-2-1.2c1.2-0.6,2.7-0.5,3.7,0.4l0,0c0.8-0.1,1.6,0.4,2.4-0.4
	c-2.5-2.7-6.1-4.3-9.8-4.3c-8.1,0.1-14.9-4.9-21.5-9.3c-2.2-1.4-5.1,0.3-6.6-1.5c-1.5-1.9-2.7-4-3.4-6.3c-0.4-1.1-0.5-2.5-1.9-3.4
	c-0.3,1.9-0.7,3.7-0.8,5.5c-1,20.4,6.7,37.4,20.1,52.2c3.5,3.9,7.3,7.8,12.3,9.5c4.7,1.6,7.5,5,10.7,8.1h1.7
	c2.2-3.3-0.1-5.4-2.6-7.5c0.7,0,1.3-0.1,2-0.2C269.5,461.1,270.9,458.8,270,455.9z"/>
<g class="st6">
</g>
<path class="st10" d="M104.1,132.5l-0.3-2.6C103.6,130.8,103.7,131.7,104.1,132.5z"/>
<path class="st5" d="M84.7,151c0.4,1,0.6,2.5,2.1,2.2c1-0.2,1.2-1.4,1.3-2.4c0.6-2.9,0.4-5.9-0.5-8.8c-0.4-1.1-0.6-2.2-0.5-3.4
	c-1,3.3-2.1,6.6-3.2,9.9C84.2,149.5,84.4,150.3,84.7,151z"/>
<g class="st6">
</g>
<path class="st5" d="M104.1,116c1.7-0.2,2.2,0.8,2.6,1.9l5.7,6.9c0.4-8.6-6.3-19-14-21.2c-2.1-0.6-3.2-1.4-3.8-2.5
	c-0.4,10.4-2.5,20.6-5.4,30.6c0.3-0.6,0.5-1.3,0.8-2c2.3,5.3,2.3,10.7,5.6,15.1c1.5-6.9,2-14-1.7-20.2c-1.9-3.2-1.8-5.5-0.2-9.3
	c0.8,1.1,1.2,1.9,1.7,2.5c3.4,3.9,4.6,8.6,4.8,13.7c0.1,1.5,0.4,3.4,2.2,3.7s1.3-1.7,1.8-2.7c-0.3-0.8-0.4-1.7-0.3-2.6
	c-0.1-1.2-0.3-2.4-0.4-3.6c-0.6-0.3-0.9-1.1-0.7-1.7c0-0.1,0.4-0.3,0.5-0.3c0.7,0.4,1.1,1.2,1,2.1c0.3,0.8,0.5,1.7,0.8,2.5
	c1,1.1,2.1,2.7,2.5-0.3c0.3-3.4-0.1-6.7-1.4-9.9C105.4,117.9,104.8,117.1,104.1,116z"/>
<g class="st6">
</g>
<path class="st10" d="M93.9,97.1c0.1-8-1.3-16-4.1-23.5l-9.7,12.9l-0.7-0.4c2.3-8.4,4.6-16.9,7.1-26.1c-3,2.7-4.4,5.3-6,7.7
	c-21.9,32.9-27.2,54.7-28.3,84.8c-0.8,21.3,2,41.9,9.8,62.4c1,2.3,2.4,4.5,4.2,6.2c0.9,0.9,2.1,1.9,3.3,1.3c1.5-0.6,1.6-2.3,1.4-3.7
	c-0.3-2.1-0.7-4.1-1.4-6.1c-1.2-3.3-2.6-6.5-4.1-10.2c5.7,1.9,11,3.6,17,3.6c-0.3-0.8-0.7-1.5-1.1-2.2c-5.1-7.2-12.3-12.6-20.7-15.4
	c-2.9-1-2.5-1.9-0.9-3.6c3.4-3.8,6.8-7.6,10.1-11.4c6.4-7.4,9.3-16.9,13.6-25.9c0.1,0.4,0.2,0.8,0.3,1.1c1.1-3.3,2.2-6.6,3.2-9.9
	c0.1-2.4,1.1-4.6,2.1-7c2.8-10,4.9-20.1,5.4-30.6C94,99.8,93.8,98.4,93.9,97.1z"/>
<g class="st6">
</g>
<path class="st11" d="M301,220c0.2,0.6-0.2,1.3-0.9,0.6c0.5,0.4,0.8,0.9,0.8,1.5c-0.5-0.5-0.6,0-0.8,0.2c0.5,0.2,0.8,0,1.4-0.4
	c-0.6-1.4,1.8-0.8,1-2.3C302,219.8,301,219.4,301,220z"/>
<path class="st11" d="M296.2,218.8l0.2,0.3l0.2-1.1C296.7,218.4,296.5,219.1,296.2,218.8z"/>
<path class="st12" d="M294.6,221.6c-0.4-0.6-1-0.6-1.4-1.1c0.9,1.1-0.4,0.7-0.6,1.1l0.6,0.9c0.8,0.4,1.4-0.5,2.1-1.1L294.6,221.6z"
	/>
<path class="st11" d="M293.5,221.5l0.2,0.7C293.8,221.9,294.2,221.5,293.5,221.5z"/>
<path class="st11" d="M296.5,224c0.6-0.4-0.6-0.1-0.3-0.7C296.2,223.6,296,223.8,296.5,224z"/>
<polygon class="st12" points="292.8,224.2 293.6,222.8 292.9,222.9 "/>
<path class="st12" d="M291.3,222.4c0.1-0.1,0.6,0,0.6,0.5c-0.9-0.4-0.5,0.8-1.3,0.5l0.1-0.6c-0.6-0.7-0.2,1.3-1.1,0
	c0.2,1.3,1.2,0.8,1,1.9c0.4-0.7,1.1-0.7,1.8-0.9c-0.4-0.1-0.4-0.1-0.8-0.1c0.4-0.3,0.5-1.1,0.9-1.5
	C291.7,221.6,292,222.6,291.3,222.4z"/>
<path class="st12" d="M289.4,223.5c-0.4,0.2-1.1,0.6-0.5,1.7c0.9,0.4,0.4-0.5,0.3-1c0.2,0.1,0.7-0.1,0.9,0.5
	C289.9,224.5,289.8,223.8,289.4,223.5z"/>
<path class="st12" d="M287.8,224.4l0.3,1.1l0.1-0.3l0.5,0.6c-0.1-0.2-0.7-1.4-0.3-1.6C287.8,223.9,288.1,224.5,287.8,224.4z"/>
<path class="st12" d="M290.6,228.9c-0.6-0.3-0.6,0.1-0.8,0.6c0.4-0.4,1.1-0.8,1-1.3l0.1,0.2c0.1-0.5,0.1-1.1,0-1.6
	C290.9,227.8,289.4,227.4,290.6,228.9z"/>
<path class="st12" d="M286.7,225.4c0.3,0,0.5-0.1,0.8-0.1l-0.3-0.2L286.7,225.4z"/>
<path class="st12" d="M289.2,227.7c-0.6,0.2,0.8,0.5,0.3,0.8c-0.1,0.2,0.7-0.5,0.5-1C289.6,227.5,289.7,228.4,289.2,227.7z"/>
<path class="st12" d="M286.2,225.6l-0.1,1L286.2,225.6z"/>
<path class="st12" d="M284.7,225.9l0.2,0.6c-0.7-0.1-1,0.9-2,0c0.4,0.6,0.5,1.4,1,1.4c-0.1-0.4,0-0.4-0.2-0.8c0.3,0,0.5,0.5,0.7,0.6
	c0-0.7,0.8-0.6,0.8-1.3c-0.1,0.2-0.2,0.1-0.3,0.1c0-1.2,1.4,0.9,0.8-0.7C285.7,226.3,284.8,225.6,284.7,225.9z"/>
<path class="st12" d="M286.7,229.3l0.6-0.1c0.2,0.8-0.6,0.4-0.3,1c0.3,0.4,0.8,0.3,0.8,0.6c-0.9-1.6,0.6-0.5-0.7-2
	c0.5-0.6,0.8,0.8,1.4,0.4l-0.3-0.9C287.7,229.1,287.1,228.5,286.7,229.3z"/>
<path class="st12" d="M284.7,230.1l-0.5-0.4l0.5,0.7c-1,0.7-3.2-2.1-3.6-1.4c-0.3,1.4-1.8,0.2-2.5,0.7c-0.1,0.8,0.5,0.2,0.8,0.6
	c0.4,1.4-0.7-0.5-0.4,0.6c0.3,1,1.3,0.7,1.9,1.1c0.3-0.3,0.1-0.6,0-1.1c0.3,0.5,0.7,0.5,1,1c0.3-1,1.3,0.2,1.6-0.9
	c0.5,0.6-0.4,0.4-0.2,0.4l0.4-0.2l-0.1-0.1c0.1-1,1.3-0.8,1.9-0.4c-0.4-0.1-0.8-0.6-0.7-1l0.7,0.7v-1.5
	C285.4,229.8,284,228.6,284.7,230.1z"/>
<path class="st12" d="M286.2,231.2c1,0-0.8-1.1,0.3-1.2l-0.8,0.5L286.2,231.2z"/>
<path class="st11" d="M281.7,230.9l-0.6-0.4C281.8,231.6,281.6,229.7,281.7,230.9z"/>
<polygon class="st11" points="280.4,231.5 280.1,230.3 280,231.1 "/>
<path class="st12" d="M278.6,230.7c0,0.7,0.5,1,0.7,0.7C279,231.5,278.7,231.1,278.6,230.7z"/>
<path class="st11" d="M275.9,229.3c0.6-0.2-0.6-0.1-0.5-1.2C275.4,228.6,275.3,229.3,275.9,229.3z"/>
<path class="st12" d="M273.1,227.3c0.1-0.3,0.3-0.1,0.4,0.2C273.4,227.5,273.2,227.4,273.1,227.3z"/>
<path class="st12" d="M281.5,227.8c0.1,0,0.1-0.1,0.2-0.1L281.5,227.8z"/>
<path class="st12" d="M294.5,219.6c0-0.1,0.1-0.2,0.2-0.3L294.5,219.6L294.5,219.6z"/>
<path class="st12" d="M295.8,220.6c0.1,0.9-1.6-0.9-1.9,0c0.2-0.3,0.3-0.7,0.5-1C295.6,220.2,294.6,220.4,295.8,220.6z"/>
<polygon class="st11" points="308.1,200.8 307.8,200.7 308.3,200.4 "/>
<path class="st11" d="M307.5,200.7c-0.3,0.2-0.5,0.4-0.8,0.5c0.4-1.4,0.7-2.9,0.8-4.3l0.4,0.2c0.1,0,0.2,0.2,0.2,0.6
	c-0.1,0.4-0.1,0.8-0.3,1.3C307.6,199.8,307.3,200.7,307.5,200.7z"/>
<path class="st11" d="M308,201.1c1.1,0.9-0.7,0.6,0,1.4c-0.5-0.6-1-1-0.6-1.3L308,201.1z"/>
<path class="st13" d="M309.8,203.5c-0.3,0.1,0,0.7-0.2,0.7C308.7,203.8,309.6,203.7,309.8,203.5z"/>
<path class="st12" d="M313.2,205.7v0.1c0-0.1-0.1-0.1-0.1-0.2L313.2,205.7z"/>
<path class="st12" d="M313,205.6l-0.4-0.2C312.7,205.4,312.9,205.4,313,205.6z"/>
<path class="st12" d="M313.1,205.8c0.1,0.2,0.2,0.4,0.3,0.5l0.1-0.1c0,0.2,0.3,0.7,0,0.6c0.2-0.3-0.1-0.4-0.7-0.7
	c-0.1,0.2-0.2,0.3-0.3,0.5C311.2,205.9,312.8,206.2,313.1,205.8z"/>
<path class="st13" d="M312.7,207.6l-0.5-0.9C313,206.9,312.8,207.4,312.7,207.6z"/>
<path class="st12" d="M311.5,208c-0.2-0.2,0.2-0.7-0.4-0.6c-0.1-0.2,0-0.2,0-0.3C311.1,207.5,312.2,207.6,311.5,208z"/>
<path class="st13" d="M309.5,200.4c-0.1,0-0.2,0-0.3-0.1L309.5,200.4z"/>
<path class="st12" d="M310.1,208.5l-0.1,0.2c0-0.1,0-0.1,0-0.2H310.1z"/>
<path class="st12" d="M305.4,192.5c-0.3,0.5-0.2,1.2,0.3,1.6c1.1-0.1,0.3,0.3,1.5,0.3c-0.1-0.4,0.1,0.4,0.4,1.2s0.4,1.8,0.7,1.4
	l-0.5-0.3l1.1,0.4c-0.3,0.4-1.3,0.9-0.7,1.3c-0.1,0-0.1-0.2-0.1-0.6s0.1-0.8,0.1-1.3c0-0.9,0-1.8-0.1-1.7c0.3-0.1,0.6,0.2,0.8,0.6
	c0.2,0.6,0.3,1.2,0.3,1.9c0.1,1.4-0.2,2.9,0.1,3.1l-0.7-0.1c0.6,0.8,1.1,1.6,1.6,2.4l-0.9-0.1c0.4-0.3-0.1-0.6-0.3-1.2
	c-0.1,0.8-0.6,0.8-0.7,1.4c1,0.4,0.7-0.3,1,0.6c-0.5,0-1.5-0.9-1.5-0.2c-0.6,0.6,1,1.1,0.8,1.9l0.6-0.3c-0.1,0.3-0.1,0.8-0.7,0.8
	c0.2-0.3,0-1.2-1-1.6c0.1,0.4-0.6,0.8-0.6,1.1l-0.6-0.5c-0.8-0.1,0.1,0.6-0.6,0.6c0.2,0.5,1.1,0.3,1.3,0.6c-0.3-0.1-0.9,0.3-0.6,0.8
	c1.5,0.6-0.1-0.9,1.5-0.6l-0.5,0.4c1.2,1.1,0.5-0.9,1.5-0.2c1.2,1.2-1.9,0.2-0.2,1.6c0.5-0.1,1-1,1.5-0.6c-0.7,0.1,0.2,0.8,0.1,1.4
	l-1,0.2c0.3,0.5,0.4,0.3,0.8,0.3c-1.2,0.3-1.1,2.2-2.7,2.6c-0.2,0.7,0.5,0.5,0.8,1.1c-1-0.2-0.8,0.8-1,1.1c-0.1,0.1,0.5,0.8,0.9,0.9
	l0.1-1.2c0.4,0.3,1.2,0.7,1.3,0.3c-1.7-0.8,1.8-0.6,0.1-1.9l0.8,0.5c0.1-0.5,0.1-1,0.2-1.5h-0.1c0.3,0.2,0-1.3,0.7-1.8
	c0.2,0.3-0.8,1.3,0.5,1.1c0.2,0.8-1.1,1.2-1.3,2.3l0.7,0.2c0.2,1.5-1.7,2-2.2,3l-0.5-0.8c-0.5,0.1-1.4,0.1-1,0.9
	c0.3-0.4,0.5,0.1,0.8,0.4c0,0.9-1.1,1.3-1.4,2.2c-0.1-0.1-0.1-0.2-0.2-0.2l-0.2,1.1c-0.4,0.3-0.9,0-1.5-0.1c0,0.2-0.3,0.5,0.2,0.7
	c0.1,0,0.2-0.1,0.2-0.1c0.4,1-0.5,0.1-0.4,0.9c-0.3-0.9-1-0.7-1.5-1.3c-0.2,0.8,1,1,1.3,1.4c-0.9,0.3-1.5-0.1-2.2,0.4
	c0.3,0.4,0.7-0.2,1.1,0.1c-0.3,0.1-0.4,0.3-0.3,0.5l0.7-0.1c-1,0.1-1.8,0.8-2.2,1.7l0.2,0.1l-1,0.4l-0.5-0.9c-0.1,0.4-0.9,0-0.5,0.7
	h0.1l-0.1,0.5l-0.3-1c-0.7,0.1,0.1,2-0.6,2.5c-1-0.9,0.8-1.4-0.3-2.6c-0.4,0-0.9,0.1-0.8,0.6c0.3,0.3,0.5,0.2,0.6,0.1
	c0,1.1-1.7,0.9-1.1,2.3h0.8c-0.4,0.6-1.9-0.5-1.4,0.4l-0.7-1.6c0,1-0.8,1.4-0.8,2.3c0.6,0.8,0.7-0.6,0.8-0.4l0.2,0.7
	c-1.1,0.2-0.6-0.3-1.9,0l0.4,0.5c-0.9-0.6-0.6,1.6-1.3,0l0.5,0.1l-0.5-0.6l-0.8,1.2c-0.2-0.6-0.7,0-1-0.8v0.8
	c-0.8-0.8,0-1.6-0.5-2.3c-0.3-0.4-0.5-0.2-0.5-0.1c0-1,1.3,0.4,1.8,0l-0.2-0.7l0.6,0.8c0-0.4-0.1-0.9-0.3-1.3
	c1.3,0.7,0.8-0.9,1.6-1.2c-0.2,0.9,0.9,0.4,1,0.7c0.3-0.2,0-2.1,1-1.5c0.5,0.2,0.1,0.8,0.6,0.6c0.2-0.4,0-0.9-0.4-1c0,0,0,0-0.1,0
	c0.4-0.8,1.3-1.2,1.8-1.8l0.3,0.6c0.8,0,0.5-1,0.2-1.7c0.2,0.1,0.1,0,0.3,0.3c1.2,0.3-0.3-1.5,0.6-2.2c-0.7-0.6-1.1-0.3-1,0.3
	l-0.7-0.8c-0.7,0.6-1.2,1.5-1.4,2.5l-0.3-0.8c-1.4-0.5,0.6,1.3-1,0.6c-0.1,0.6,0.6,0.2,0.6,0.7c-0.4,0-1.1-1.4-1.6-1
	c1.1-1.7,2.7-3.3,4-4.9c-0.1-0.1-0.2-0.1-0.4-0.1c-0.3-0.7,1.2-1.6,2.5-2.5s2.4-2,1.3-2.9c0.4,0.1,0.5,0.7,0.8,0.3
	c-0.2-0.2-0.4-0.4-0.7-0.5c1.8-0.1,1.3-2.1,2.8-2.8c-0.4-0.2-0.5-0.6-0.8-0.7c1.1,0.1,0.5-1.1,1.2-1.2l-0.5-0.1
	c0.2-0.4,0.4-0.8,0.5-1.2c-0.2-0.1-0.2,0.1-0.3,0.1c-0.1-0.4,0.4-0.2,0.9,0l-0.8-1c1.2-0.4,1.2-1.4,1.1-2.4s-0.3-1.9,0.3-2.7
	c-0.9-0.4-1.2-0.6-1.3-1l-0.3,0.2c-0.7-0.4,0.5,0,0.1-0.4c-0.5-0.3-1.3-0.1-0.9,0.2c-0.3,0.1-0.6,0.1-0.8-0.1
	C303.5,194.7,304,193.8,305.4,192.5z"/>
<path class="st12" d="M267.7,226.4c0.2,0.4-0.5,0.5,0,1.3c0.3,0.3,0.7,0.5,1.2,0.6c0.4,0,0.8,0,1.2-0.1c0.8-0.3,1.8-0.2,2.6,0.1
	c0.3,0.3,0.7,0.6,1.2,0.8c0-0.2-0.1-0.3-0.2-0.5c0.4-0.1,1-0.5,1.5-0.3c0-0.2-0.1-0.9-0.3-0.7c0.4-0.8,1.5,0.9,1.6,0.2
	c-0.5-0.3,0-0.7-0.4-0.9c0.6-0.3,1.4,2,2,2.1c0-0.2-0.1-0.4-0.2-0.4c1,0.8,1.4-1.3,2.2,0.3l-0.1-0.8c0.5,0.4,0.6,0.8,1.1,0.8
	c0.1-0.4-0.3-0.6-0.3-0.9c0.4,0.6,1,0,1.7,0.7c0.5,1-1.2-1.1-1.1,0c0.1,0.2,0.2,0.2,0.2,0.2c-1.8,0.6-4.3-1.8-5.3-0.5
	c-0.6-0.6-0.5,0.1-0.4,0.9c0.4,0.3,1.4,0.7,0.8-0.8l0.8,0.8c0.1-0.1,0.7,1.3,0.9,1.5c-0.4,0-0.2,1.5,0.4,1.9
	c-0.8,0.5-0.9-3.1-1.5-2.5l0.3,1.1c-0.1-0.6-0.9-0.9-1-0.4l0.2,0.2c-2.1,0.2-4.6,1.4-6.9,2.3c-1.1-2.6-1.5,1.2-2.4-0.9
	c-0.2,0.4,0.5,0.9,0.1,1.3c-0.2,0.2-0.3-0.5-0.4-0.7l-0.2,0.3C266.5,231,266.7,228.5,267.7,226.4z"/>
<path class="st11" d="M317,233c0.3,0.6,0.1,1.3-0.7,0.7c0.8,0.6,0.8,0.6,1.1,1.4c-0.5-0.4-0.6,0.1-0.7,0.3c0.5,0.1,0.7-0.1,1.2-0.5
	c-0.8-1.2,1.6-1,0.6-2.3C318,232.6,317,232.4,317,233z"/>
<path class="st11" d="M312.2,232.4l0.3,0.3v-1.1C312.6,232,312.6,232.7,312.2,232.4z"/>
<path class="st12" d="M311.2,235.4c-0.5-0.5-1.1-0.4-1.6-0.8c1.1,0.9-0.2,0.7-0.4,1.1l0.7,0.8c0.9,0.2,1.2-0.7,1.8-1.3L311.2,235.4z
	"/>
<path class="st11" d="M310.1,235.4l0.4,0.6C310.5,235.8,310.7,235.3,310.1,235.4z"/>
<path class="st11" d="M313.4,237.4c0.5-0.5-0.6,0-0.4-0.7C313.1,237.1,312.9,237.3,313.4,237.4z"/>
<polygon class="st12" points="310,238.1 310.5,236.7 309.8,236.9 "/>
<path class="st12" d="M308.2,236.6c0.1-0.1,0.6-0.1,0.7,0.4c-1-0.2-0.3,0.8-1.1,0.7v-0.6c-0.7-0.6,0.1,1.3-1.1,0.2
	c0.4,1.2,1.3,0.6,1.4,1.7c0.3-0.7,0.9-0.9,1.5-1.1c-0.4-0.1-0.4,0-0.7,0c0.3-0.3,0.3-1.1,0.5-1.6
	C308.4,235.8,308.9,236.7,308.2,236.6z"/>
<path class="st12" d="M306.6,238.1c-0.4,0.3-0.9,0.7-0.1,1.7c1,0.3,0.3-0.5,0.1-1c0.3,0,0.6-0.3,1,0.3
	C307.3,238.9,307,238.2,306.6,238.1z"/>
<path class="st12" d="M305.2,239.2l0.5,1v-0.3l0.6,0.5c-0.1-0.2-1-1.3-0.6-1.5C305.1,238.6,305.5,239.2,305.2,239.2z"/>
<path class="st12" d="M308.9,243c-0.6-0.1-0.5,0.2-0.6,0.7c0.3-0.5,0.9-1,0.6-1.4l0.1,0.2c0-0.5-0.2-1-0.4-1.5
	C308.9,241.9,307.4,241.8,308.9,243z"/>
<path class="st12" d="M309.4,242.6l0.2,0.7L309.4,242.6z"/>
<path class="st12" d="M304.4,240.4c0.3-0.1,0.5-0.1,0.8-0.2l-0.4-0.1C304.6,240.1,304.5,240.3,304.4,240.4z"/>
<path class="st12" d="M307.2,242.1c-0.5,0.3,0.8,0.4,0.4,0.8c0,0.2,0.5-0.6,0.2-1C307.6,241.8,307.9,242.7,307.2,242.1z"/>
<path class="st12" d="M304,240.6l0.1,1L304,240.6z"/>
<path class="st12" d="M302.6,241.2l0.3,0.5c-0.7,0-0.8,1.1-1.9,0.4c0.5,0.5,0.8,1.3,1.3,1.1c-0.2-0.3,0-0.4-0.4-0.8
	c0.3,0,0.5,0.4,0.8,0.4c-0.1-0.7,0.6-0.7,0.4-1.3c0,0.2-0.1,0.1-0.3,0.1c-0.2-1.2,1.5,0.6,0.6-0.8
	C303.6,241.4,302.6,240.8,302.6,241.2z"/>
<path class="st12" d="M305.3,244.1l0.5-0.2c0.4,0.7-0.4,0.5,0,1c0.3,0.3,0.9,0.1,0.9,0.5c-1.2-1.4,0.5-0.6-1.1-1.9
	c0.3-0.6,0.9,0.7,1.4,0.1l-0.5-0.8C306.2,243.7,305.5,243.2,305.3,244.1z"/>
<path class="st12" d="M303.6,245.2l-0.6-0.3l0.6,0.6c-0.8,0.9-3.5-1.4-3.7-0.6c0.1,1.4-1.6,0.6-2.2,1.2c0.1,0.8,0.6,0.1,0.9,0.4
	c0.8,1.2-0.8-0.4-0.2,0.7c0.6,0.9,1.4,0.4,2,0.6c0.2-0.3,0-0.6-0.3-1.1c0.4,0.4,0.8,0.3,1.2,0.7c0-1.1,1.3-0.1,1.2-1.2
	c0.7,0.5-0.3,0.4,0,0.4l0.3-0.3l-0.1-0.1c-0.1-0.9,1-1,1.6-0.8c-0.4,0-0.9-0.4-0.9-0.8l0.8,0.5l-0.4-1.4
	C304.1,244.8,302.6,243.9,303.6,245.2z"/>
<path class="st12" d="M305.2,245.9c0.9-0.1-1-1,0-1.2l-0.6,0.6L305.2,245.9z"/>
<path class="st11" d="M300.9,246.6l-0.7-0.3C301.2,247.2,300.6,245.5,300.9,246.6z"/>
<polygon class="st11" points="299.9,247.4 299.3,246.4 299.4,247.1 "/>
<path class="st12" d="M298,247c0.1,0.6,0.7,0.9,0.9,0.5C298.6,247.7,298.2,247.4,298,247z"/>
<path class="st11" d="M295.1,246.3c0.5-0.3-0.6,0.1-0.8-1.1C294.4,245.7,294.6,246.5,295.1,246.3z"/>
<path class="st12" d="M291.9,245.1c0.1-0.3,0.2-0.2,0.4,0C292.2,245.2,292.1,245.2,291.9,245.1z"/>
<path class="st12" d="M300,243.7c0.1,0,0.1-0.1,0.2-0.1L300,243.7z"/>
<path class="st12" d="M299.9,243.7l0.1-0.1C300,243.7,300,243.7,299.9,243.7z"/>
<path class="st12" d="M294.9,244.4L294.9,244.4l0.1,0.1L294.9,244.4z"/>
<path class="st12" d="M310.7,233.5c0-0.1,0.1-0.2,0.1-0.3L310.7,233.5L310.7,233.5z"/>
<path class="st12" d="M312.1,234.3c0.3,0.9-1.7-0.7-1.8,0.3c0.1-0.4,0.2-0.7,0.3-1.1C311.9,233.9,310.9,234.2,312.1,234.3z"/>
<polygon class="st11" points="320.7,213.8 320.4,213.8 320.8,213.4 "/>
<path class="st11" d="M320.1,213.8c-0.2,0.2-0.5,0.4-0.7,0.6c0.1-1.4,0.1-2.7-0.2-4.1l0.5,0.1c0.1,0,0.2,0.2,0.3,0.5
	c0,0.4,0,0.8,0,1.2s-0.1,0.9-0.1,1.2S320,213.8,320.1,213.8z"/>
<path class="st11" d="M320.6,214.1c1.3,0.6-0.6,0.6,0.3,1.3c-0.6-0.5-1.2-0.8-0.8-1.1L320.6,214.1z"/>
<path class="st13" d="M322.9,216c-0.3,0.2,0.2,0.6-0.1,0.7C321.9,216.5,322.8,216.2,322.9,216z"/>
<path class="st12" d="M326.6,217.6v0.1c0-0.1-0.1-0.1-0.1-0.2L326.6,217.6z"/>
<path class="st12" d="M326.4,217.5l-0.5-0.1C326.1,217.3,326.3,217.4,326.4,217.5z"/>
<path class="st12" d="M326.6,217.7c0.1,0.2,0.2,0.3,0.4,0.5l0.1-0.1c0.1,0.2,0.4,0.6,0.1,0.6c0.1-0.3-0.2-0.4-0.8-0.6
	c-0.1,0.2-0.1,0.4-0.2,0.5C324.7,218.1,326.4,218.2,326.6,217.7z"/>
<path class="st13" d="M326.5,219.5l-0.7-0.8C326.6,218.8,326.5,219.3,326.5,219.5z"/>
<path class="st12" d="M325.3,220.1c-0.2-0.2,0-0.7-0.4-0.5c-0.1-0.1-0.1-0.2,0-0.3C324.9,219.6,326,219.6,325.3,220.1z"/>
<path class="st12" d="M316.1,207.5c0,0.5-0.1,0.9,0.7,1.2c1-0.5,0.4,0.1,1.5-0.3c-0.2-0.3,0.2,0.2,0.7,0.9s0.9,1.4,1.1,1.1l-0.5-0.1
	h1.2c-0.2,0.5-1.1,1.1-0.4,1.3c-0.1,0-0.1-0.2-0.2-0.5s-0.1-0.7-0.2-1.1c-0.1-0.4-0.2-0.7-0.3-1.1c-0.1-0.3-0.2-0.4-0.3-0.4
	c0.3-0.2,0.6,0,0.9,0.3c0.4,0.5,0.6,1,0.8,1.6c0.2,0.6,0.3,1.2,0.5,1.9c0.1,0.5,0.2,0.9,0.3,1H321c0.7,0.6,1.4,1.3,2,2h-0.9
	c0.4-0.4-0.2-0.6-0.5-1.1c0.1,0.8-0.5,0.9-0.4,1.4c1.1,0.2,0.6-0.4,1.1,0.4c-0.5,0.1-1.6-0.6-1.5,0.1c-0.5,0.7,1.2,0.9,1.1,1.6
	c0.2-0.1,0.4-0.3,0.5-0.4c0,0.3,0.1,0.8-0.5,0.9c0.2-0.3-0.2-1.2-1.3-1.4c0.2,0.3-0.4,0.8-0.4,1.1l-0.7-0.4c-0.8,0,0.3,0.5-0.5,0.6
	c0.3,0.4,1.1,0.1,1.4,0.4c-0.3,0-0.9,0.4-0.5,0.8c1.6,0.4-0.2-0.9,1.4-0.8l-0.5,0.5c1.4,0.9,0.3-1,1.5-0.4c1.4,1-1.8,0.4,0,1.6
	c0.5-0.1,0.8-1.1,1.3-0.8c-0.7,0.1,0.3,0.7,0.4,1.3c-0.3,0.1-0.6,0.2-0.9,0.3c0.4,0.4,0.5,0.2,0.8,0.2c-1.2,0.5-0.7,2.3-2.3,2.9
	c-0.1,0.7,0.6,0.4,1,0.9c-1-0.1-0.6,0.8-0.8,1.2c-0.1,0.1,0.6,0.7,1,0.8l-0.1-1.2c0.4,0.3,1.3,0.5,1.3,0.1c-1.8-0.6,1.7-0.9-0.2-1.8
	l0.9,0.4l-0.1-1.5h-0.1c0.3,0.1-0.2-1.3,0.4-1.8c0.2,0.3-0.6,1.4,0.7,1c0.3,0.7-0.9,1.3-0.9,2.4l0.7,0.1c0.4,1.4-1.3,2.2-1.7,3.2
	l-0.6-0.7c-0.5,0.2-1.4,0.3-0.9,0.9c0.2-0.4,0.5,0,0.8,0.3c0.1,0.8-0.8,1.3-1,2.3c-0.1-0.1-0.2-0.1-0.3-0.2v1.1
	c-0.4,0.3-0.9,0.1-1.5,0c0,0.2-0.2,0.5,0.3,0.7c0.1,0,0.2-0.1,0.2-0.2c0.6,0.9-0.4,0.1-0.2,0.9c-0.4-0.8-1-0.5-1.7-1
	c-0.1,0.7,1.2,0.9,1.5,1.1c-0.9,0.4-1.5,0.1-2.1,0.7c0.4,0.3,0.6-0.3,1.1,0c-0.2,0.1-0.4,0.4-0.2,0.5l0.6-0.2
	c-0.9,0.3-1.6,1-1.8,1.9l0.3,0.1l-0.4,0.5L317,236c0,0.4-0.9,0.2-0.4,0.8h0.1v0.5l-0.5-0.9c-0.6,0.1,0.5,1.9-0.1,2.4
	c-1.1-0.7,0.5-1.4-0.8-2.5c-0.4,0-0.9,0.2-0.6,0.6c0.4,0.3,0.5,0.1,0.6,0c0.3,1.1-1.5,1.1-0.6,2.3l0.8-0.1c-0.3,0.6-1.9-0.2-1.3,0.6
	l-1-1.4c0.2,1-0.4,1.5-0.3,2.3c0.7,0.6,0.5-0.7,0.6-0.5l0.4,0.7c-1,0.3-0.6-0.2-1.8,0.3l0.5,0.4c-1-0.4-0.3,1.6-1.3,0.2h0.5
	l-0.6-0.5l-0.5,1.3c-0.3-0.5-0.6,0.1-1.1-0.6l0.2,0.8c-0.9-0.6-0.4-1.5-0.9-2.1c-0.4-0.3-0.5-0.1-0.5,0c-0.2-1,1.4,0.2,1.7-0.2
	l-0.3-0.7l0.7,0.7c-0.1-0.4-0.3-0.8-0.6-1.2c1.4,0.5,0.5-1,1.3-1.4c0,0.9,1,0.3,1.1,0.5c0.3-0.3-0.5-2.1,0.6-1.6
	c0.5,0.1,0.3,0.8,0.8,0.5c0.1-0.4-0.2-0.9-0.6-0.9l0,0c0.2-0.8,1-1.3,1.4-2l0.4,0.5c0.7-0.1,0.3-1-0.1-1.6c0.3,0.1,0.1-0.1,0.4,0.2
	c1.3,0.1-0.6-1.4,0.2-2.2c-0.8-0.4-1.1-0.1-0.9,0.4l-0.8-0.7c-0.6,0.7-0.9,1.6-0.9,2.6l-0.4-0.7c-1.5-0.3,0.8,1.2-0.8,0.7
	c0,0.6,0.6,0.1,0.8,0.6c-0.4,0.1-1.4-1.1-1.7-0.8c0.8-1.8,2-3.5,3-5.2c-0.1-0.1-0.3-0.1-0.4,0c-0.4-0.7,0.9-1.6,2-2.7
	c0.5-0.5,0.9-1,1.3-1.6c0.2-0.5,0-1.1-0.5-1.3c0.4,0.1,0.6,0.6,0.8,0.2c-0.2-0.2-0.5-0.3-0.7-0.4c1.8-0.3,0.9-2.2,2.2-3
	c-0.4-0.1-0.6-0.5-0.9-0.6c1.1-0.1,0.3-1.1,1-1.3H318c0.1-0.4,0.2-0.8,0.3-1.1c-0.2-0.1-0.2,0.1-0.3,0.1c-0.2-0.3,0.4-0.2,0.8-0.1
	c-0.3-0.3-0.7-0.5-1-0.8c0.4-0.2,0.8-0.6,0.8-1.1c0-0.4,0-0.9-0.2-1.3c-0.3-0.9-0.7-1.6-0.3-2.4c-0.9-0.1-1.3-0.2-1.5-0.5l-0.2,0.2
	c-0.8-0.1,0.4-0.1,0-0.3c-0.6,0-1.3,0.3-0.8,0.4c-0.2,0.2-0.5,0.2-0.8,0.1C314.8,209.8,315.2,209.1,316.1,207.5z"/>
<path class="st12" d="M286.5,245.7c0.3,0.3-0.4,0.6,0.4,1.2c0.8,0.4,1.7,0.3,2.4-0.2c0.7-0.5,1.6-0.7,2.5-0.6
	c0.4,0.2,0.8,0.4,1.3,0.4c-0.1-0.1-0.2-0.3-0.3-0.4c0.4-0.2,0.8-0.8,1.4-0.6c0-0.2-0.3-0.9-0.4-0.6c0.1-0.9,1.6,0.5,1.6-0.2
	c-0.5-0.2-0.1-0.7-0.6-0.8c0.5-0.5,1.9,1.6,2.5,1.5c-0.1-0.2-0.2-0.4-0.3-0.3c1.1,0.5,1-1.5,2.1-0.2l-0.3-0.7
	c0.5,0.3,0.7,0.6,1.2,0.6c0-0.4-0.4-0.5-0.5-0.8c0.5,0.5,0.9-0.2,1.8,0.3c0.7,0.8-1.4-0.8-1,0.2c0.1,0.2,0.2,0.2,0.3,0.2
	c-1.6,0.9-4.5-0.8-5.1,0.7c-0.7-0.4-0.5,0.3-0.2,1c0.4,0.1,1.5,0.3,0.6-0.9l0.9,0.5c0.1-0.2,1,1.1,1.2,1.3c-0.4,0.1,0.2,1.5,0.9,1.7
	c-0.6,0.7-1.7-2.8-2-2l0.5,1c-0.2-0.6-1.1-0.6-1-0.2l0.2,0.1c-1.9,0.7-3.9,2.5-5.7,3.9c-1.8-2.2-1,1.6-2.5-0.1
	c0,0.4,0.8,0.7,0.5,1.2c-0.1,0.3-0.5-0.4-0.6-0.6l-0.1,0.3C286.8,250.6,286.2,248.2,286.5,245.7z"/>
<path class="st11" d="M325.7,255.1c0.1,0.6-0.2,1.1-0.8,0.4c0.4,0.4,0.7,1,0.7,1.6c-0.4-0.5-0.6-0.2-0.7,0c0.4,0.3,0.7,0.2,1.2,0
	c-0.5-1.4,1.6-0.4,1-1.8C326.6,255.1,325.7,254.6,325.7,255.1z"/>
<path class="st11" d="M321.5,253l0.2,0.4l0.2-0.9C322,252.7,321.8,253.3,321.5,253z"/>
<path class="st12" d="M320.2,255.1c-0.3-0.6-0.9-0.8-1.2-1.3c0.8,1.2-0.3,0.6-0.5,0.9l0.5,1c0.7,0.5,1.2-0.2,1.8-0.5L320.2,255.1z"
	/>
<path class="st11" d="M319.3,254.8l0.2,0.7C319.5,255.3,319.8,255,319.3,254.8z"/>
<path class="st11" d="M321.8,257.8c0.5-0.2-0.5-0.2-0.2-0.7C321.5,257.3,321.4,257.5,321.8,257.8z"/>
<path class="st12" d="M318.7,257.1c0.2-0.3,0.5-0.7,0.7-1l-0.6-0.2L318.7,257.1z"/>
<path class="st12" d="M317.4,255.1c0.1-0.1,0.5,0.2,0.5,0.6c-0.8-0.5-0.4,0.6-1,0.2l0.1-0.5c-0.5-0.8-0.2,1.2-0.9-0.2
	c0.1,1.2,1,1,0.9,2c0.4-0.5,0.9-0.5,1.5-0.5c-0.3-0.2-0.3-0.1-0.6-0.3c0.3-0.2,0.4-0.9,0.7-1.2C317.8,254.5,318,255.5,317.4,255.1z"
	/>
<path class="st12" d="M315.9,255.8c-0.4,0.1-0.9,0.3-0.4,1.5c0.8,0.6,0.3-0.4,0.2-0.9c0.2,0.1,0.6,0,0.7,0.6
	C316.3,256.8,316.2,256.1,315.9,255.8z"/>
<path class="st12" d="M314.5,256.3l0.3,1.1l0.1-0.3l0.4,0.7c-0.1-0.2-0.6-1.5-0.2-1.6C314.5,255.8,314.8,256.4,314.5,256.3z"/>
<path class="st12" d="M316.9,261.1c-0.5-0.4-0.5,0-0.6,0.4c0.3-0.3,0.9-0.5,0.8-1l0.1,0.2c0.1-0.5,0.1-1,0-1.5
	C317.1,260.1,315.9,259.4,316.9,261.1z"/>
<polygon class="st12" points="313.6,257 314.3,257.1 314,256.9 "/>
<path class="st12" d="M315.7,259.6c-0.5,0.1,0.6,0.6,0.2,0.8c-0.1,0.2,0.6-0.3,0.4-0.8C316,259.5,316.1,260.4,315.7,259.6z"/>
<path class="st12" d="M313.2,257.1l-0.1,0.9L313.2,257.1z"/>
<path class="st12" d="M312,257.1l0.1,0.6c-0.6-0.3-0.8,0.7-1.6-0.3c0.3,0.6,0.4,1.4,0.8,1.5c-0.1-0.4,0-0.4-0.2-0.8
	c0.2,0.1,0.4,0.5,0.6,0.7c0-0.7,0.6-0.4,0.6-1c-0.1,0.2-0.1,0-0.2,0c0-1.1,1.1,1.1,0.6-0.5C312.8,257.7,312.1,256.8,312,257.1z"/>
<path class="st12" d="M313.6,260.7h0.5c0.2,0.8-0.5,0.3-0.2,0.9c0.2,0.4,0.7,0.4,0.7,0.8c-0.7-1.7,0.5-0.3-0.5-2.1
	c0.4-0.4,0.6,0.9,1.1,0.6l-0.3-0.9C314.5,260.7,314,260,313.6,260.7z"/>
<path class="st12" d="M312,261l-0.4-0.5l0.4,0.7c-0.8,0.5-2.5-2.6-2.9-1.9c-0.3,1.3-1.4-0.1-2,0.3c-0.1,0.8,0.4,0.3,0.6,0.7
	c0.4,1.4-0.5-0.6-0.3,0.5c0.3,1,1,0.8,1.5,1.3c0.2-0.2,0.1-0.5,0-1.1c0.3,0.5,0.6,0.6,0.8,1.1c0.3-1,1.1,0.4,1.3-0.6
	c0.4,0.7-0.3,0.3-0.1,0.3l0.3-0.1l-0.1-0.1c0.1-0.9,1-0.5,1.5-0.1c-0.3-0.2-0.7-0.7-0.5-1l0.5,0.8V260
	C312.6,260.9,311.5,259.5,312,261z"/>
<path class="st12" d="M313.2,262.3c0.8,0.2-0.6-1.2,0.2-1.1l-0.6,0.4L313.2,262.3z"/>
<path class="st11" d="M309.6,261.3l-0.5-0.5C309.7,262,309.6,260.2,309.6,261.3z"/>
<polygon class="st11" points="308.6,261.7 308.3,260.5 308.3,261.2 "/>
<path class="st12" d="M307.2,260.6c0,0.6,0.4,1,0.6,0.8C307.5,261.5,307.2,261,307.2,260.6z"/>
<path class="st11" d="M305,258.9c0.5-0.1-0.5-0.2-0.4-1.3C304.6,258.1,304.6,258.9,305,258.9z"/>
<path class="st12" d="M302.9,256.6c0.1-0.3,0.2-0.1,0.3,0.2C303,256.8,302.9,256.7,302.9,256.6z"/>
<path class="st12" d="M305.3,257.1L305.3,257.1l0.1,0.1L305.3,257.1z"/>
<path class="st12" d="M320.1,253.4c0-0.1,0.1-0.1,0.1-0.2L320.1,253.4L320.1,253.4z"/>
<path class="st12" d="M321.2,254.6c0.1,0.9-1.4-1.2-1.6-0.4c0.1-0.3,0.3-0.5,0.5-0.8C321,254.1,320.2,254.1,321.2,254.6z"/>
<path class="st11" d="M330.8,239.8l-0.3-0.1l0.5-0.3C330.9,239.6,330.8,239.7,330.8,239.8z"/>
<path class="st11" d="M330.2,239.7l-0.7,0.4c0.2-1.1,0.2-2.2,0.2-3.2l0.5,0.1c0.3,0,0.3,0.7,0.1,1.4S329.9,239.7,330.2,239.7z"/>
<path class="st11" d="M330.6,240c1.2,0.6-0.6,0.4,0.2,1.1c-0.5-0.4-1.2-0.8-0.8-1L330.6,240z"/>
<path class="st13" d="M332.9,241.8c-0.3,0.1,0.1,0.6-0.1,0.6C331.8,242.1,332.7,242,332.9,241.8z"/>
<path class="st12" d="M336.4,243.6v0.1l-0.1-0.2L336.4,243.6z"/>
<path class="st12" d="M336.2,243.5l-0.4-0.1C335.9,243.3,336.1,243.4,336.2,243.5z"/>
<path class="st12" d="M336.4,243.7c0.1,0.2,0.2,0.3,0.4,0.4l0.1-0.1c0.1,0.2,0.3,0.6,0,0.6c0.2-0.3-0.1-0.4-0.7-0.6l-0.3,0.4
	C334.5,243.9,336.1,244.1,336.4,243.7z"/>
<path class="st13" d="M336.2,245.3c-0.2-0.3-0.4-0.5-0.6-0.8C336.4,244.7,336.3,245.1,336.2,245.3z"/>
<path class="st12" d="M335,245.6c-0.2-0.2,0.1-0.6-0.4-0.5c-0.1-0.1-0.1-0.2,0-0.3C334.6,245.2,335.7,245.3,335,245.6z"/>
<path class="st12" d="M334.5,244.8v-0.1C334.6,244.7,334.6,244.8,334.5,244.8z"/>
<path class="st12" d="M333.7,246.1l-0.1,0.1C333.6,246.2,333.6,246.1,333.7,246.1L333.7,246.1z"/>
<path class="st12" d="M327.2,234.1c-0.1,0.4-0.3,0.8,0.3,1.1c1.1-0.2,0.3,0.1,1.5,0c-0.1-0.3,0.2,0.2,0.5,0.8s0.6,1.2,0.9,1
	l-0.5-0.1l1.1,0.1c-0.3,0.4-1.2,0.8-0.6,1c-0.2,0-0.1-0.7-0.2-1.4s-0.1-1.3-0.3-1.3c0.6-0.2,1.1,0.7,1.4,1.8s0.2,2.2,0.5,2.3
	l-0.7-0.1c0.7,0.5,1.3,1.2,1.9,1.8l-0.8-0.1c0.4-0.3-0.2-0.5-0.5-0.9c0,0.6-0.5,0.6-0.5,1.1c1.1,0.3,0.6-0.3,1.1,0.5
	c-0.5,0-1.5-0.7-1.5-0.1c-0.5,0.5,1.1,0.9,1,1.5l0.5-0.2c0,0.2,0.1,0.7-0.6,0.7c0.2-0.2-0.2-1-1.3-1.3c0.2,0.3-0.4,0.6-0.4,0.8
	l-0.7-0.4c-0.8-0.1,0.2,0.4-0.5,0.4c0.3,0.4,1.1,0.3,1.3,0.6c-0.3,0-0.9,0.2-0.5,0.6c1.5,0.6-0.2-0.7,1.4-0.4l-0.5,0.4
	c1.3,1,0.3-0.8,1.4-0.1c0.7,0.5,0.2,0.6-0.2,0.6s-0.7,0.1,0.1,0.7c0.5-0.1,0.9-0.8,1.3-0.5c-0.7,0,0.3,0.7,0.3,1.2l-0.9,0.1
	c0.3,0.4,0.4,0.3,0.8,0.3c-1.1,0.2-0.9,1.9-2.4,2.1c-0.2,0.6,0.5,0.5,0.8,1c-1-0.3-0.7,0.6-0.9,0.9c-0.1,0,0.5,0.8,0.9,0.9
	c0-0.4,0.1-0.7,0.1-1.1c0.4,0.3,1.1,0.7,1.3,0.4c-1.7-0.9,1.7-0.4,0-1.7l0.8,0.5c0-0.5,0.1-0.9,0.1-1.4h-0.1
	c0.3,0.2-0.1-1.2,0.6-1.6c0.2,0.3-0.7,1.1,0.6,1c0.3,0.7-1,1.1-1.1,2l0.6,0.2c0.2,1.4-1.5,1.7-2,2.6l-0.5-0.8
	c-0.5,0.1-1.3-0.1-1,0.7c0.2-0.4,0.5,0.1,0.7,0.4c0,0.8-1,1-1.3,1.8c-0.1-0.1-0.1-0.2-0.2-0.2l-0.2,1c-0.4,0.2-0.8-0.1-1.4-0.4
	c0,0.2-0.3,0.4,0.2,0.7c0.1,0,0.2,0,0.2-0.1c0.4,1-0.4,0-0.4,0.8c-0.3-0.9-0.9-0.8-1.4-1.4c-0.2,0.6,0.9,1.2,1.1,1.5
	c-0.9,0.1-1.4-0.4-2-0.1c0.3,0.4,0.6,0,1,0.4c-0.2,0-0.4,0.2-0.3,0.4h0.6c-0.8-0.1-1.6,0.4-2,1.1l0.2,0.2l-0.4,0.3l-0.4-0.9
	c-0.1,0.4-0.8-0.2-0.5,0.5h0.1l-0.1,0.4l-0.3-1c-0.6-0.1,0.1,1.9-0.6,2.1c-0.9-1,0.7-1-0.2-2.5c-0.3-0.1-0.8-0.1-0.6,0.3
	s0.4,0.3,0.5,0.2c0,1.1-1.5,0.4-1,1.8l0.7,0.2c-0.3,0.4-1.6-0.9-1.2,0l-0.6-1.6c0,1-0.6,1.2-0.7,2c0.5,0.8,0.6-0.4,0.6-0.2l0.2,0.7
	c-0.9-0.1-0.5-0.4-1.6-0.4l0.3,0.6c-0.8-0.7-0.5,1.4-1.1-0.3l0.4,0.2l-0.4-0.7c-0.2,0.3-0.4,0.6-0.6,1c-0.2-0.5-0.5-0.2-0.8-0.9v0.8
	c-0.7-0.9,0-1.5-0.4-2.3c-0.3-0.4-0.4-0.3-0.4-0.2c0-0.9,1.1,0.6,1.5,0.4l-0.1-0.7l0.5,0.8c0-0.4-0.1-0.9-0.3-1.2
	c1,0.9,0.6-0.7,1.3-0.8c-0.2,0.8,0.8,0.6,0.9,0.9c0.3-0.1,0-2,0.8-1.1c0.4,0.3,0.1,0.8,0.5,0.7c0.2-0.4,0-0.8-0.4-1
	c0.4-0.6,1.1-0.8,1.6-1.2l0.3,0.6c0.7,0.2,0.5-0.8,0.2-1.5c0.2,0.2,0.1,0,0.3,0.3c1.1,0.5-0.3-1.4,0.5-1.8c-0.6-0.7-1-0.5-0.9,0
	l-0.6-0.8c-0.6,0.4-1.1,1.1-1.2,1.9l-0.2-0.8c-1.2-0.8,0.5,1.3-0.8,0.3c-0.1,0.5,0.5,0.3,0.5,0.8c-0.4-0.1-1-1.5-1.4-1.3
	c0.9-1.3,2.3-2.3,3.3-3.4c-0.1-0.1-0.2-0.2-0.3-0.2c-0.3-0.7,1-1,2-1.6s2-1.3,0.9-2.2c0.4,0.2,0.6,0.6,0.7,0.3
	c-0.2-0.2-0.4-0.4-0.7-0.5c0.5,0.2,1.1-0.1,1.2-0.7c0,0,0,0,0-0.1c0.2-0.5,0.3-1,0.9-1.2c-0.4-0.2-0.5-0.5-0.8-0.6
	c1.1,0.2,0.3-0.8,1-0.8l-0.5-0.1c0.1-0.3,0.2-0.6,0.3-0.9c-0.2-0.1-0.2,0-0.3,0.1c-0.2-0.3,0.4-0.1,0.8,0c-0.3-0.3-0.6-0.5-1-0.7
	c1.1-0.3,1-1,0.7-1.7s-0.6-1.4,0-2c-0.9-0.2-1.3-0.3-1.4-0.6l-0.3,0.1c-0.8-0.2,0.5,0,0.1-0.3c-0.6-0.1-1.3,0.1-0.8,0.2
	c-0.3,0.1-0.6,0.1-0.8,0C325.4,235.9,325.9,235.3,327.2,234.1z"/>
<path class="st12" d="M298.6,255.2c0.2,0.4-0.4,0.4,0,1.3c1.2,1.6,2.5,0,3.9,1c0.2,0.3,0.5,0.7,0.9,0.9c0-0.1-0.1-0.3-0.1-0.5
	c0.3,0,0.8-0.4,1.2-0.1c0-0.2-0.1-0.9-0.2-0.7c0.3-0.7,1.1,1,1.3,0.4c-0.4-0.4,0-0.7-0.3-1c0.5-0.2,1.1,2.1,1.6,2.3
	c0-0.2-0.1-0.4-0.2-0.4c0.8,0.9,1.1-1,1.7,0.6l-0.1-0.8c0.4,0.5,0.5,0.9,0.9,1c0.1-0.3-0.2-0.6-0.3-0.9c0.3,0.6,0.8,0.1,1.4,1
	c0.4,1-1-1.2-0.9-0.2c0.1,0.2,0.1,0.3,0.2,0.3c-1.5,0.3-3.4-2.3-4.2-1.3c-0.4-0.7-0.4,0.1-0.3,0.8c0.3,0.3,1.1,0.8,0.6-0.6l0.6,0.9
	c0.1-0.1,0.6,1.4,0.7,1.6c-0.3-0.1-0.1,1.4,0.4,1.9c-0.6,0.4-0.7-3.2-1.2-2.6l0.2,1.1c-0.1-0.6-0.7-0.9-0.8-0.5l0.1,0.2
	c-1.7-0.1-3.6,0.9-5.3,1.5c-0.8-2.6-1.1,1.1-1.9-1c-0.1,0.4,0.4,0.9,0.1,1.3c-0.2,0.2-0.3-0.5-0.3-0.7l-0.1,0.2
	C297.7,259.8,297.9,257.4,298.6,255.2z"/>
<radialGradient id="SVGID_1_" cx="-3888.9951" cy="87.6547" r="28.9698" gradientTransform="matrix(-0.71 0 0 1 -2709.1799 8)" gradientUnits="userSpaceOnUse">
	<stop  offset="0" style="stop-color:#F390B0;stop-opacity:0.1"/>
	<stop  offset="1" style="stop-color:#EE613C"/>
</radialGradient>
<path class="st14" d="M71.7,84.5c0.2-5.8-3.9-10.3-8-11.3c-2.9-0.6-5.9-0.1-8.3,1.5c-4.6,3-7.8,9.1-10.3,15.4s-4.4,13-7.5,18.7
	s-7.9,10.1-13,9.5"/>
<radialGradient id="SVGID_2_" cx="-3152.1299" cy="56.8801" r="39.15" gradientTransform="matrix(1 0 0 1 0 8)" gradientUnits="userSpaceOnUse">
	<stop  offset="0" style="stop-color:#F390B0;stop-opacity:0.1"/>
	<stop  offset="1" style="stop-color:#EE613C"/>
</radialGradient>
<path class="st15" d="M74.4,76.3c2.6-4.6,1.6-11.7-1.3-15.9s-7.1-6-11.2-6.6c-10.4-1.6-20.8,2.8-31.1,5.9S9.4,64.4,0,57.7"/>
<radialGradient id="SVGID_3_" cx="294.4" cy="152.7369" r="30.3321" gradientTransform="matrix(1 0 0 1 0 8)" gradientUnits="userSpaceOnUse">
	<stop  offset="0" style="stop-color:#F390B0;stop-opacity:0.1"/>
	<stop  offset="1" style="stop-color:#EE613C"/>
</radialGradient>
<path class="st16" d="M262.2,141.8c13.4-9.3,37.3-17,46.9,12.8c4.4,26.4,13.3,28.4,17.5,33.4"/>
<radialGradient id="SVGID_4_" cx="302.1" cy="115.3861" r="32.9469" gradientTransform="matrix(1 0 0 1 0 8)" gradientUnits="userSpaceOnUse">
	<stop  offset="0" style="stop-color:#F390B0;stop-opacity:0.1"/>
	<stop  offset="1" style="stop-color:#EE613C"/>
</radialGradient>
<path class="st17" d="M258.7,138.5c0.5-9.8,5.3-36.2,45.9-29c13.7,2.1,34.1,12.2,40.9,21"/>
<radialGradient id="SVGID_5_" cx="-543.5728" cy="5276.8516" r="32.94" gradientTransform="matrix(0.15 0.47 0.33 -0.1 -1426.3301 1225.83)" gradientUnits="userSpaceOnUse">
	<stop  offset="0" style="stop-color:#F390B0;stop-opacity:0.1"/>
	<stop  offset="1" style="stop-color:#EE613C"/>
</radialGradient>
<path class="st18" d="M223.2,411.5c-3.1,1.2-11.1,6.2-2.8,24.6c2.7,6.2,9,14.9,12.9,17.2"/>
<radialGradient id="SVGID_6_" cx="-2407.8066" cy="5376.0986" r="32.94" gradientTransform="matrix(-0.11 0.48 0.33 8.000000e-02 -1848.5601 1167.48)" gradientUnits="userSpaceOnUse">
	<stop  offset="0" style="stop-color:#F390B0;stop-opacity:0.1"/>
	<stop  offset="1" style="stop-color:#EE613C"/>
</radialGradient>
<path class="st19" d="M223.1,406.9c-3.3-0.5-12.7-0.3-14.8,19.9c-0.8,6.8,0.3,17.4,2.4,21.4"/>
<path class="st11" d="M66.9,129.4c0.3-0.2,0.6-0.2,0.5,0.2c0-0.3,0.2-0.6,0.5-0.7c-0.1,0.3,0.1,0.3,0.3,0.3
	c-0.1-0.3-0.2-0.3-0.5-0.5c-0.5,0.6-0.7-0.6-1.2,0C66.6,128.9,66.6,129.5,66.9,129.4z"/>
<path class="st11" d="M67.7,131.8l0.1-0.2l-0.6,0.1C67.3,131.6,67.7,131.6,67.7,131.8z"/>
<path class="st12" d="M69.5,131.7c-0.1,0.3,0.1,0.6,0.1,0.9c0.1-0.7,0.5-0.1,0.7-0.1l0.2-0.5c-0.2-0.4-0.8-0.4-1.3-0.5L69.5,131.7z"
	/>
<path class="st11" d="M69.9,132.1l0.2-0.3C70,131.9,69.6,131.9,69.9,132.1z"/>
<path class="st11" d="M69.9,130.2c-0.3-0.1,0.2,0.3-0.2,0.3C69.8,130.4,70,130.4,69.9,130.2z"/>
<polygon class="st12" points="71.3,131.5 70.4,131.7 70.8,131.9 "/>
<path class="st12" d="M71.2,132.7c-0.1,0-0.2-0.2-0.2-0.3c0,0,0-0.1,0.1-0.1c0.3,0.5,0.5-0.1,0.8,0.3l-0.3,0.1
	c0,0.5,0.6-0.4,0.5,0.4c0.4-0.5-0.2-0.7,0.3-1.1c-0.4,0.1-0.8,0-1.1-0.3c0.1,0.2,0.1,0.1,0.3,0.3c-0.3,0-0.6,0.2-1,0.2
	C70.7,132.8,71,132.3,71.2,132.7z"/>
<path class="st12" d="M72.6,132.9c0.3,0.1,0.7,0.1,0.8-0.5c-0.3-0.4-0.4,0.1-0.5,0.3c-0.1-0.1-0.4-0.2-0.2-0.5
	C72.7,132.4,72.4,132.7,72.6,132.9z"/>
<path class="st12" d="M73.7,133.1l0.2-0.5l-0.1,0.1v-0.4c0,0.1-0.2,0.8-0.4,0.7C73.5,133.3,73.5,132.9,73.7,133.1z"/>
<path class="st12" d="M73.8,130.4c0.2,0.3,0.3,0.1,0.5,0c-0.3,0-0.7,0-0.8,0.2v-0.1c-0.2,0.2-0.4,0.4-0.5,0.6
	C73.4,130.8,73.9,131.4,73.8,130.4z"/>
<path class="st12" d="M73.5,130.3l0.2-0.3L73.5,130.3z"/>
<polygon class="st12" points="74.6,133 74.2,132.8 74.3,132.9 "/>
<path class="st12" d="M74.1,131.3c0.3,0.1-0.2-0.4,0.1-0.4c0.1-0.1-0.5,0-0.5,0.3C73.8,131.3,74.1,130.9,74.1,131.3z"/>
<path class="st12" d="M74.9,133l0.4-0.4L74.9,133z"/>
<path class="st12" d="M75.8,133.3l0.1-0.3c0.4,0.2,0.8-0.2,1.1,0.4c-0.1-0.4,0.1-0.8-0.2-0.8c0,0.2-0.2,0.2-0.1,0.4
	c-0.1-0.1-0.1-0.3-0.2-0.4c-0.2,0.3-0.6,0.1-0.7,0.4c0.1-0.1,0.1,0,0.2,0c-0.4,0.5-0.5-0.7-0.6,0.1
	C75.4,132.8,75.6,133.4,75.8,133.3z"/>
<path class="st12" d="M75.7,131.3l-0.3-0.1c0.1-0.4,0.4,0,0.4-0.4s-0.3-0.3-0.2-0.5c0,0.9-0.4,0.1-0.2,1.1c-0.4,0.1-0.1-0.6-0.5-0.5
	l-0.1,0.5C75.2,131.1,75.3,131.5,75.7,131.3z"/>
<path class="st12" d="M76.9,131.4l0.2,0.3L76.9,131.4c0.7-0.2,1.3,1.5,1.7,1.2c0.4-0.6,1,0.1,1.6,0c0.2-0.4-0.3-0.2-0.3-0.4
	c0-0.7,0.3,0.3,0.3-0.3s-0.6-0.4-0.9-0.7c-0.2,0.1-0.2,0.3-0.2,0.6c-0.1-0.3-0.3-0.3-0.4-0.6c-0.3,0.5-0.6-0.3-1,0.2
	c-0.2-0.4,0.3-0.1,0.2-0.1h-0.2v0.1c-0.3,0.4-0.8,0.1-1-0.1c0.2,0.1,0.3,0.4,0.1,0.6l-0.2-0.4l-0.3,0.7
	C76.5,131.4,76.9,132.2,76.9,131.4z"/>
<path class="st12" d="M76.4,130.6c-0.4-0.2,0.1,0.7-0.4,0.5l0.5-0.1L76.4,130.6z"/>
<path class="st11" d="M78.6,131.5l0.3,0.3C78.7,131.2,78.4,132.1,78.6,131.5z"/>
<polygon class="st11" points="79.4,131.4 79.4,132 79.5,131.6 "/>
<path class="st12" d="M80.3,132c0.1-0.3-0.1-0.5-0.3-0.4C80.1,131.5,80.3,131.8,80.3,132z"/>
<path class="st11" d="M81.8,132.8c-0.4,0.1,0.4,0.1,0.2,0.6C82,133.2,82.1,132.8,81.8,132.8z"/>
<path class="st12" d="M83.4,133.8c-0.1,0.1-0.2,0.1-0.3-0.1C83.2,133.7,83.3,133.8,83.4,133.8z"/>
<path class="st12" d="M68.7,131.5c0.4-0.3,0.1,0.9,0.7,0.8c-0.2,0-0.5,0.1-0.7,0.1C68.5,131.7,69,132,68.7,131.5z"/>
<polygon class="st11" points="57,124.6 56.9,124.7 56.9,124.3 "/>
<path class="st11" d="M56.8,124.8v0.6c-0.6-0.8-1.1-1.7-1.5-2.6h0.2c0.1-0.1,0.3,0.5,0.6,1.1S56.7,124.9,56.8,124.8z"/>
<path class="st11" d="M57.1,124.7c0.7-0.1,0,0.5,0.7,0.5c-0.4,0-0.8,0-0.8-0.2L57.1,124.7z"/>
<path class="st13" d="M58.7,124.8c0,0.2,0.3,0.2,0.3,0.3C58.5,125.3,58.7,124.9,58.7,124.8z"/>
<path class="st12" d="M60.4,123.9l-0.2,0.1C60.2,124,60.3,123.9,60.4,123.9z"/>
<path class="st12" d="M60.5,123.9c0.1,0,0.2,0,0.3,0v-0.1c0.1,0,0.3,0,0.2,0.1c-0.1-0.1-0.2,0-0.4,0.2l0.1,0.2
	C60,124.7,60.6,124.1,60.5,123.9z"/>
<path class="st13" d="M61.1,124.3l-0.5,0.1C60.9,124.1,61,124.3,61.1,124.3z"/>
<path class="st12" d="M60.9,124.9c-0.1,0-0.3-0.2-0.3,0.1c-0.1,0-0.1,0-0.1,0C60.7,125,61,124.6,60.9,124.9z"/>
<path class="st13" d="M57.3,123.8L57.3,123.8L57.3,123.8z"/>
<path class="st12" d="M53.5,119.4c-0.1,0.5-0.1,1.1,0.3,1.5c0.5-0.1,0.2,0.2,0.8,0.1c-0.1-0.3,0.1,0.3,0.4,0.8s0.7,1,0.7,0.8h-0.3
	l0.6-0.1c0,0.3-0.3,0.9,0.1,0.9c-0.1,0.1-0.3-0.5-0.6-1.1s-0.4-1.2-0.5-1.1c0.3-0.2,0.7,0.6,1.1,1.3s0.9,1.4,1.1,1.4l-0.3,0.2
	c0.5,0.2,1.1,0.1,1.5,0.3l-0.3,0.3c0-0.3-0.3-0.2-0.6-0.3c0.3,0.3,0.1,0.6,0.4,0.8c0.4-0.3,0-0.4,0.5-0.2c-0.1,0.2-0.8,0.4-0.4,0.6
	c0.2,0.5,0.8-0.1,1,0.2v-0.3c0.1,0.1,0.4,0.2,0.3,0.5c-0.3-0.2-0.7-0.2-1,0.1c0.2,0.1,0.3,0.5,0.4,0.6l-0.3,0.2
	c-0.1,0.4,0.3,0.1,0.2,0.5c0.3,0,0.3-0.5,0.5-0.5c-0.1,0.1,0.1,0.6,0.3,0.5c0.5-0.6-0.5-0.2-0.1-0.9l0.2,0.4
	c0.7-0.4-0.4-0.4,0.1-0.8c0.8-0.4-0.2,1,0.7,0.4c0-0.3-0.3-0.6,0-0.8c-0.1,0.3,0.4,0,0.6,0.1v0.5c0.3-0.1,0.2-0.2,0.2-0.3
	c0,0.6,0.9,0.7,1,1.5c0.4,0.1,0.2-0.3,0.5-0.4c-0.1,0.5,0.4,0.4,0.5,0.5s0.4-0.3,0.4-0.5c-0.2,0-0.4,0-0.5,0
	c0.2-0.2,0.3-0.6,0.2-0.6c-0.5,0.8-0.2-0.8-0.8,0l0.3-0.4L62,126v0.1c0.1-0.1-0.6-0.1-0.7-0.4c0.2-0.1,0.4,0.4,0.6-0.2
	c0.3,0,0.4,0.6,0.8,0.7l0.1-0.3c0.6-0.1,0.7,0.7,1.2,0.9l-0.4,0.3c0.1,0.2,0.1,0.7,0.4,0.4c-0.2-0.1,0-0.3,0.2-0.4
	c0.4-0.1,0.6,0.4,1.1,0.4c0,0-0.1,0.1-0.1,0.2l0.5-0.1c0.2,0.1,0.1,0.4,0.1,0.7c0.1,0,0.3,0,0.3-0.2L66,128c0.4-0.4,0.1,0.2,0.4,0
	c-0.3,0.3-0.2,0.6-0.3,1c0.4,0,0.3-0.7,0.4-0.8c0.3,0.4,0.2,0.7,0.6,0.9c0.1-0.2-0.2-0.3-0.2-0.5c0.1,0.1,0.2,0.1,0.3,0l-0.2-0.3
	c0.2,0.4,0.7,0.6,1.2,0.5v-0.1l0.3,0.1l-0.2,0.4c0.2-0.1,0.2,0.4,0.4,0h-0.1l0.2-0.1l-0.3,0.4c0.2,0.3,0.8-0.6,1.1-0.5
	c0,0.7-0.7,0.1-1,0.9c0.1,0.2,0.3,0.4,0.4,0.1s-0.1-0.3-0.2-0.3c0.4-0.3,0.8,0.4,1.2-0.2l-0.2-0.3c0.3,0,0.4,0.9,0.6,0.4l-0.4,0.8
	c0.4-0.3,0.8-0.2,1.1-0.5c0.1-0.5-0.4,0-0.4-0.1l0.2-0.3c0.4,0.3,0.1,0.3,0.6,0.6v-0.3c0.1,0.5,0.8-0.4,0.5,0.5l-0.1-0.2v0.4
	l0.7-0.2c-0.1,0.3,0.2,0.2,0.1,0.6l0.3-0.3c0.1,0.6-0.5,0.6-0.6,1s0.1,0.2,0.2,0.2c-0.3,0.4-0.4-0.6-0.7-0.6l-0.2,0.3V131
	c-0.2,0.2-0.3,0.3-0.3,0.6c-0.2-0.7-0.6,0.1-1.1-0.1c0.4-0.2-0.2-0.5-0.1-0.6c-0.2,0-0.8,0.7-0.9,0.1c-0.1-0.3,0.3-0.3,0-0.4
	c-0.2,0-0.3,0.2-0.3,0.4c0,0,0,0,0,0.1c-0.5,0-0.9-0.1-1.3-0.3l0.2-0.3c-0.2-0.3-0.6,0-0.8,0.3c0-0.1,0-0.1,0-0.2
	c-0.2-0.6-0.6,0.5-1.2,0.2c-0.1,0.4,0.1,0.6,0.4,0.4l-0.2,0.5c0.5,0.2,1.1,0.2,1.6,0.1l-0.3,0.3c0.2,0.8,0.4-0.6,0.6,0.3
	c0.3-0.1-0.1-0.3,0.1-0.5c0.2,0.2-0.3,0.9,0.1,0.9c-1.3-0.1-2.6-0.4-3.8-0.9c0,0.1,0,0.1,0,0.2c-0.3,0.3-1.2-0.4-2-1.1
	s-1.5-1.3-1.9-0.7c0-0.2,0.3-0.3,0.1-0.4c-0.1,0.1-0.2,0.2-0.3,0.3c-0.2-1-1.4-1-1.7-1.9c-0.1,0.2-0.4,0.1-0.5,0.2
	c0.2-0.6-0.6-0.5-0.6-1l-0.1,0.2c-0.2-0.2-0.4-0.4-0.6-0.7c-0.1,0,0,0.1,0,0.2c-0.2-0.1,0-0.3,0.2-0.4c-0.2,0-0.5,0-0.7,0
	c0-0.8-0.5-1.2-0.9-1.7c-0.6-0.4-0.9-1.1-1-1.8c-0.5,0-0.7-0.1-0.9-0.4l-0.1,0.2c-0.5-0.2,0.2-0.1-0.1-0.3s-0.7,0.2-0.3,0.4
	c-0.1,0.2-0.3,0.2-0.4,0.1C52.5,121.6,52.8,120.4,53.5,119.4z"/>
<path class="st12" d="M87.3,133.7c-0.2-0.1,0.4-0.4-0.1-0.7c-1.1-0.5-2.3,0.6-3.5,0.3c-0.2-0.1-0.5-0.3-0.7-0.3c0,0.1,0,0.2,0.1,0.2
	c-0.3,0.1-0.7,0.3-1,0.1c0,0.1,0,0.5,0.1,0.4c-0.3,0.4-0.9-0.5-1-0.2c0.3,0.2-0.1,0.4,0.2,0.5c-0.4,0.1-0.6-1.1-1-1.2
	c0,0.1,0,0.2,0.1,0.2c-0.4-0.4-1.1,0.5-1.3-0.4l-0.1,0.4c-0.2-0.3-0.2-0.4-0.5-0.5c-0.2,0.2,0,0.3,0,0.5c-0.1-0.3-0.6-0.1-0.8-0.6
	c-0.1-0.5,0.4,0.7,0.6,0.2c0-0.1,0-0.1-0.1-0.1c1.1,0,2.2,1.4,3.1,0.8c0.3,0.3,0.4,0,0.4-0.4c-0.2-0.1-0.8-0.4-0.6,0.4l-0.4-0.4
	c-0.1,0.1-0.3-0.7-0.3-0.8c0.2,0,0.3-0.7,0-1c0.5-0.2,0.2,1.6,0.6,1.3l-0.1-0.6c0,0.3,0.4,0.5,0.5,0.3l-0.1-0.1
	c1.4-0.1,2.8-0.6,4.1-1.4c0.8,1.2,0.8-0.8,1.5,0.1c0.1-0.2-0.4-0.4-0.2-0.6s0.3,0.2,0.3,0.3l0.1-0.1
	C87.8,131.2,87.9,132.6,87.3,133.7z"/>
<path class="st11" d="M64.7,143.1c0.2-0.2,0.5-0.3,0.4,0.2c0-0.3,0.2-0.6,0.4-0.8c-0.1,0.3,0.1,0.3,0.2,0.3c0-0.3-0.2-0.3-0.4-0.4
	c-0.4,0.6-0.6-0.5-1,0.1C64.5,142.7,64.5,143.2,64.7,143.1z"/>
<path class="st11" d="M65.3,145.4l0.1-0.2l-0.5,0.2C65,145.3,65.3,145.1,65.3,145.4z"/>
<path class="st12" d="M66.8,145.1c-0.1,0.3,0.1,0.6,0,0.9c0.1-0.7,0.4-0.1,0.6-0.1l0.2-0.5c-0.1-0.4-0.6-0.3-1-0.4L66.8,145.1z"/>
<path class="st11" d="M67.1,145.6l0.2-0.3C67.2,145.4,66.9,145.4,67.1,145.6z"/>
<path class="st11" d="M67.2,143.7c-0.3-0.1,0.1,0.3-0.2,0.3C67.1,143.9,67.2,143.9,67.2,143.7z"/>
<path class="st12" d="M68.3,144.9c-0.2,0.1-0.5,0.1-0.7,0.2l0.2,0.3L68.3,144.9z"/>
<path class="st12" d="M68.2,146.1c-0.1-0.1-0.2-0.2-0.1-0.3c0,0,0,0,0-0.1c0.2,0.4,0.4-0.1,0.6,0.3l-0.2,0.2c0,0.4,0.5-0.4,0.4,0.4
	c0.3-0.5-0.2-0.7,0.2-1.1c-0.3,0.1-0.6,0-0.9-0.3c0.1,0.2,0.1,0.1,0.2,0.3c-0.2,0-0.5,0.2-0.8,0.3C67.8,146.2,68,145.8,68.2,146.1z"
	/>
<path class="st12" d="M69.3,146.3c0.2,0.1,0.6,0.1,0.7-0.5c-0.2-0.4-0.3,0.1-0.4,0.3c-0.1-0.1-0.3-0.2-0.2-0.5
	C69.4,145.8,69.2,146.1,69.3,146.3z"/>
<path class="st12" d="M70.2,146.4l0.2-0.5l-0.1,0.1v-0.4c0,0.1-0.1,0.8-0.4,0.8C70,146.6,70.1,146.3,70.2,146.4z"/>
<path class="st12" d="M70.3,143.8c0.1,0.3,0.2,0.1,0.4,0c-0.2,0.1-0.6,0-0.6,0.3V144c-0.2,0.2-0.3,0.4-0.4,0.7
	C70,144.2,70.4,144.7,70.3,143.8z"/>
<path class="st12" d="M70,143.7l0.2-0.3L70,143.7z"/>
<polygon class="st12" points="70.9,146.3 70.6,146.1 70.6,146.3 "/>
<path class="st12" d="M70.5,144.7c0.3,0.1-0.1-0.4,0.1-0.4c0.1-0.1-0.4,0-0.4,0.3C70.3,144.6,70.5,144.2,70.5,144.7z"/>
<path class="st12" d="M71.2,146.4l0.3-0.4L71.2,146.4z"/>
<path class="st12" d="M71.9,146.6v-0.3c0.3,0.2,0.7-0.2,0.9,0.4c-0.1-0.4,0.1-0.7-0.2-0.8c0,0.2-0.1,0.2-0.1,0.4
	c-0.1-0.1-0.1-0.3-0.2-0.4c-0.2,0.3-0.5,0.1-0.6,0.4c0.1-0.1,0.1,0,0.2,0c-0.3,0.5-0.4-0.7-0.5,0.1
	C71.6,146.2,71.8,146.7,71.9,146.6z"/>
<path class="st12" d="M71.8,144.6l-0.2-0.1c0.1-0.4,0.3,0,0.3-0.4s-0.3-0.3-0.2-0.5c0,0.9-0.3,0.1-0.2,1.1c-0.3,0.1-0.1-0.6-0.4-0.5
	l-0.1,0.5C71.4,144.5,71.4,144.9,71.8,144.6z"/>
<path class="st12" d="M72.7,144.7l0.1,0.3L72.7,144.7c0.5-0.2,1,1.5,1.3,1.2c0.3-0.6,0.8,0.2,1.3,0c0.1-0.4-0.2-0.2-0.3-0.4
	c-0.1-0.7,0.3,0.3,0.3-0.3s-0.5-0.5-0.7-0.8c-0.1,0.1-0.1,0.3-0.1,0.5c-0.1-0.3-0.3-0.3-0.3-0.6c-0.3,0.4-0.5-0.3-0.8,0.2
	c-0.1-0.4,0.2-0.1,0.1-0.1h-0.2v0.1c-0.2,0.4-0.7,0.1-0.8-0.2c0.1,0.1,0.2,0.4,0.1,0.6l-0.1-0.4l-0.3,0.7
	C72.4,144.7,72.7,145.6,72.7,144.7z"/>
<path class="st12" d="M72.3,143.9c-0.3-0.2,0.1,0.7-0.3,0.5l0.4-0.1L72.3,143.9z"/>
<path class="st11" d="M74.1,144.9l0.2,0.3C74.2,144.6,74,145.5,74.1,144.9z"/>
<polygon class="st11" points="74.8,144.8 74.8,145.4 74.9,145.1 "/>
<path class="st12" d="M75.5,145.4c0.1-0.3-0.1-0.5-0.3-0.4C75.4,145,75.5,145.2,75.5,145.4z"/>
<path class="st11" d="M76.7,146.3c-0.3,0.1,0.3,0.1,0.2,0.6C76.9,146.7,77,146.3,76.7,146.3z"/>
<path class="st12" d="M78.1,147.4c-0.1,0.1-0.2,0.1-0.2-0.1C78,147.3,78.1,147.3,78.1,147.4z"/>
<path class="st12" d="M66.1,145c0.3-0.3,0.1,0.9,0.6,0.7c-0.2,0-0.4,0.1-0.6,0.1C66,145.2,66.4,145.5,66.1,145z"/>
<polygon class="st11" points="55.7,141.1 55.6,141.3 55.6,141 "/>
<path class="st11" d="M55.6,141.4l0.2,0.5l-1-0.6l-0.9-0.7l0.2-0.1c0.1-0.1,0.4,0.2,0.8,0.5S55.5,141.5,55.6,141.4z"/>
<path class="st11" d="M55.8,141.3c0.6-0.4,0.2,0.4,0.7,0.2c-0.3,0.2-0.6,0.4-0.7,0.1V141.3z"/>
<path class="st13" d="M57.2,140.6c0,0.2,0.3,0,0.3,0.1C57.1,141.2,57.2,140.8,57.2,140.6z"/>
<path class="st12" d="M58.4,139.3l-0.1,0.2C58.3,139.4,58.4,139.3,58.4,139.3z"/>
<path class="st12" d="M58.5,139.2c0.1,0,0.2-0.1,0.2-0.1V139c0.1,0,0.3-0.1,0.2,0c-0.1-0.1-0.2,0-0.3,0.3l0.2,0.1
	C58.3,140.1,58.7,139.4,58.5,139.2z"/>
<path class="st13" d="M59.2,139.4l-0.4,0.3C58.9,139.3,59.1,139.4,59.2,139.4z"/>
<path class="st12" d="M59.2,140c-0.1,0.1-0.3-0.1-0.3,0.2c-0.1,0.1-0.1,0-0.1,0C59,140.1,59.1,139.6,59.2,140z"/>
<path class="st13" d="M55.8,140.4c0,0.1,0,0.1-0.1,0.1L55.8,140.4z"/>
<path class="st12" d="M51.1,139.3c0.1,0.4,0.4,0.7,0.8,0.8c0.4-0.4,0.3,0,0.7-0.4c0.2,0.1,0.4,0.2,0.6,0.4c0.4,0.2,0.9,0.4,0.8,0.2
	l-0.3,0.1l0.5-0.4c0.1,0.3,0,0.8,0.3,0.7c-0.1,0.2-1.5-1.2-1.5-1.1c0.3-0.6,2.4,1.3,2.7,1l-0.2,0.3c0.5-0.1,1-0.4,1.3-0.4l-0.2,0.4
	c-0.1-0.2-0.3,0-0.6,0c0.3,0.1,0.3,0.4,0.5,0.5c0.3-0.5,0-0.4,0.4-0.4c0,0.3-0.6,0.6-0.3,0.7c0.2,0.3,0.6-0.4,0.9-0.3l-0.1-0.3
	c0.1,0,0.4,0.1,0.3,0.4c-0.1-0.1-0.6,0-0.8,0.4c0.2,0,0.3,0.3,0.5,0.4l-0.3,0.3c-0.1,0.4,0.3,0,0.3,0.3c0.3-0.1,0.2-0.5,0.3-0.6
	c0,0.1,0.1,0.5,0.3,0.3c0.3-0.7-0.4,0-0.2-0.8l0.2,0.3c0.6-0.6-0.4-0.2,0-0.7c0.6-0.6,0,0.9,0.7,0.1c0-0.2-0.4-0.5-0.2-0.7
	c0,0.3,0.3-0.1,0.6-0.1v0.5c0.2-0.2,0.1-0.2,0.2-0.4c0.1,0.6,0.9,0.4,1.1,1.1c0.3,0,0.2-0.3,0.4-0.5c-0.1,0.5,0.3,0.3,0.5,0.3
	s0.3-0.4,0.3-0.6l-0.5,0.1c0.1-0.2,0.2-0.6,0.1-0.6c-0.3,0.9-0.2-0.8-0.7,0.2l0.2-0.4l-0.6,0.1v0.1c0.1-0.1-0.5,0.1-0.7-0.2
	c0.1-0.1,0.5,0.3,0.5-0.3c0.3-0.2,0.4,0.4,0.9,0.4l0.1-0.3c0.5-0.2,0.7,0.5,1.2,0.6l-0.3,0.4c0.1,0.2,0.1,0.6,0.4,0.3
	c-0.2-0.1,0-0.2,0.1-0.4c0.3-0.1,0.5,0.3,0.9,0.2c0,0,0,0.1-0.1,0.1l0.4-0.1c0.1,0.1,0.1,0.4,0.1,0.7c0.1,0,0.2,0,0.3-0.3
	c0,0-0.1-0.1-0.1,0c0.3-0.4,0.1,0.2,0.4,0c-0.3,0.3-0.1,0.6-0.3,1c0.3-0.1,0.2-0.7,0.3-0.9c0.2,0.3,0.2,0.7,0.5,0.9
	c0.1-0.3-0.2-0.2-0.1-0.5c0.1,0.1,0.2,0.1,0.2,0l-0.1-0.3c0.2,0.4,0.6,0.6,1,0.4V142l0.2,0.1l-0.2,0.4c0.2-0.1,0.2,0.4,0.3,0l0,0
	l0.2-0.1l-0.3,0.4c0.2,0.3,0.6-0.7,0.9-0.6c0,0.6-0.6,0.1-0.8,1c0.1,0.1,0.3,0.3,0.4,0.1s-0.1-0.2-0.1-0.3c0.4-0.4,0.7,0.4,1-0.3
	l-0.2-0.3c0.3,0,0.3,0.9,0.4,0.4l-0.3,0.8c0.3-0.4,0.6-0.2,0.9-0.5c0.1-0.5-0.3,0-0.3-0.1l0.2-0.3c0.3,0.3,0.1,0.3,0.5,0.6V143
	c0.1,0.5,0.6-0.4,0.4,0.4L69,143v0.4l0.6-0.2c-0.1,0.3,0.2,0.2,0.1,0.6l0.2-0.3c0.1,0.6-0.4,0.6-0.4,1.1c0,0.3,0.1,0.2,0.1,0.2
	c-0.3,0.4-0.3-0.6-0.6-0.6l-0.2,0.3l0.1-0.5c-0.1,0.2-0.2,0.4-0.3,0.6c-0.2-0.7-0.5,0.1-0.9-0.1c0.3-0.2-0.1-0.5-0.1-0.6
	c-0.2,0-0.7,0.7-0.8,0.1c-0.1-0.2,0.3-0.3,0-0.4c-0.2,0.1-0.3,0.3-0.3,0.5c-0.4,0-0.8,0-1.1-0.2l0.2-0.3c-0.2-0.3-0.5,0.1-0.7,0.4
	c0-0.1,0,0,0-0.2c-0.2-0.6-0.5,0.6-1,0.3c-0.1,0.4,0.1,0.5,0.3,0.4L64,145c0.4,0.1,0.9,0.1,1.3-0.1l-0.2,0.3
	c0.2,0.8,0.3-0.6,0.5,0.2c0.3-0.1-0.1-0.3,0.1-0.5c0.1,0.2-0.2,0.9,0,0.9c-0.5,0-1,0-1.6-0.1c-0.5-0.1-1-0.2-1.5-0.4
	c0,0.1,0,0.1,0,0.2c-0.3,0.3-1-0.2-1.6-0.7s-1.3-0.9-1.6-0.3c0-0.2,0.3-0.3,0.1-0.4c-0.1,0.1-0.2,0.2-0.2,0.4
	c-0.2-0.9-1.2-0.5-1.6-1.3c-0.1,0.2-0.3,0.2-0.4,0.4c0.1-0.6-0.6-0.3-0.6-0.7l-0.1,0.3l-0.6-0.4c-0.1,0.1,0,0.1,0,0.2
	c-0.2,0-0.1-0.2,0-0.4l-0.6,0.3c-0.1-0.6-0.6-0.8-1.1-1c-0.6-0.1-1-0.4-1.3-0.9c-0.4,0.2-0.7,0.3-0.9,0.1v0.2
	c-0.5,0.1,0.1-0.2-0.2-0.2s-0.5,0.5-0.2,0.4c0,0.2-0.2,0.3-0.3,0.3C51.2,141,50.9,140.1,51.1,139.3z"/>
<path class="st12" d="M81.4,147.4c-0.2-0.2,0.3-0.3-0.1-0.6c-0.5-0.2-1-0.2-1.4,0c-0.5,0.2-1,0.2-1.5,0.1c-0.2-0.2-0.4-0.3-0.6-0.4
	c0,0.1,0,0.2,0.1,0.2c-0.2,0-0.6,0.2-0.8,0.1c0,0.1,0,0.5,0.1,0.4c-0.3,0.4-0.7-0.5-0.9-0.2c0.2,0.2-0.1,0.4,0.1,0.5
	c-0.3,0.1-0.6-1.1-0.8-1.2c0,0.1,0,0.2,0.1,0.2c-0.4-0.5-0.9,0.4-1-0.4l-0.1,0.4c-0.2-0.3-0.2-0.5-0.4-0.6c-0.1,0.1,0,0.3,0,0.5
	c-0.1-0.4-0.5-0.1-0.7-0.6s0.4,0.7,0.5,0.2c0-0.1,0-0.1-0.1-0.1c0.9,0,1.8,1.4,2.5,0.9c0.3,0.3,0.3,0,0.3-0.4
	c-0.2-0.1-0.6-0.4-0.5,0.3l-0.3-0.4c-0.1,0.1-0.2-0.7-0.3-0.8c0.2,0,0.2-0.7-0.1-1c0.4-0.2,0.2,1.6,0.5,1.4l-0.1-0.6
	c0,0.3,0.4,0.5,0.4,0.3l-0.1-0.1c0.5,0,1.1-0.1,1.6-0.3c0.6-0.2,1.1-0.5,1.6-0.8c0.8,1.2,0.6-0.8,1.2,0.2c0-0.2-0.4-0.4-0.2-0.6
	s0.2,0.2,0.3,0.3L81,144C81.7,145,81.8,146.3,81.4,147.4z"/>
<path class="st11" d="M60.9,160.2c0.1-0.3,0.3-0.4,0.2,0.1c0-0.3,0.1-0.6,0.2-0.8c0,0.3,0.1,0.3,0.1,0.2c0-0.2-0.1-0.3-0.2-0.4
	c-0.2,0.7-0.3-0.4-0.6,0.3C60.7,159.9,60.7,160.3,60.9,160.2z"/>
<path class="st11" d="M61.3,162.4v-0.2l-0.3,0.3C61.1,162.3,61.3,162.1,61.3,162.4z"/>
<path class="st12" d="M62.2,161.9c0,0.4,0.1,0.6,0.1,0.9c0-0.7,0.2-0.1,0.4-0.2V162c-0.1-0.4-0.4-0.2-0.7-0.3L62.2,161.9z"/>
<path class="st11" d="M62.4,162.3l0.1-0.3C62.4,162.1,62.3,162.1,62.4,162.3z"/>
<path class="st11" d="M62.3,160.4c-0.2-0.1,0.1,0.2-0.1,0.3C62.3,160.6,62.3,160.6,62.3,160.4z"/>
<path class="st12" d="M63.1,161.5c-0.1,0.1-0.3,0.2-0.4,0.3l0.2,0.2L63.1,161.5z"/>
<path class="st12" d="M63.1,162.6c-0.1,0-0.2-0.2-0.1-0.4c0.2,0.4,0.2-0.2,0.4,0.2l-0.1,0.2c0,0.4,0.3-0.5,0.3,0.3
	c0.1-0.6-0.2-0.7,0-1.1c-0.2,0.2-0.4,0-0.6-0.1c0.1,0.2,0.1,0.1,0.2,0.3c-0.1,0-0.3,0.3-0.5,0.4C62.9,162.8,63,162.3,63.1,162.6z"/>
<path class="st12" d="M63.8,162.7c0.2,0,0.4,0,0.4-0.6c-0.2-0.4-0.2,0.1-0.2,0.4c0-0.1-0.2-0.1-0.2-0.4
	C63.8,162.2,63.8,162.5,63.8,162.7z"/>
<path class="st12" d="M64.4,162.7v-0.6v0.1l-0.1-0.4c0,0.1,0.1,0.8-0.1,0.8C64.4,163,64.3,162.6,64.4,162.7z"/>
<path class="st12" d="M64.1,160.1c0.1,0.3,0.2,0.1,0.2-0.1c-0.1,0.1-0.3,0.1-0.3,0.3v-0.1c-0.1,0.2-0.1,0.5-0.1,0.7
	C64,160.5,64.3,161,64.1,160.1z"/>
<polygon class="st12" points="64.9,162.5 64.6,162.4 64.7,162.5 "/>
<path class="st12" d="M64.4,161c0.2,0-0.2-0.4,0-0.4s-0.2,0.1-0.2,0.3C64.2,160.9,64.3,160.5,64.4,161z"/>
<path class="st12" d="M65,162.6l0.1-0.4L65,162.6z"/>
<path class="st12" d="M65.6,162.7v-0.3c0.2,0.2,0.4-0.3,0.7,0.3c-0.1-0.3-0.1-0.7-0.3-0.8c0,0.1,0,0.3,0,0.4
	c-0.1-0.1-0.1-0.3-0.2-0.4c0,0.3-0.3,0.1-0.3,0.4c0-0.1,0,0,0.1,0c-0.1,0.5-0.4-0.6-0.3,0.2C65.3,162.3,65.5,162.9,65.6,162.7z"/>
<path class="st12" d="M65.1,160.8l-0.2-0.1c0-0.4,0.2-0.1,0.1-0.4s-0.2-0.3-0.2-0.5c0.2,0.9-0.2,0.1,0.1,1.1
	c-0.2,0.1-0.2-0.5-0.3-0.4v0.5C64.8,160.7,65,161.1,65.1,160.8z"/>
<path class="st12" d="M65.7,160.8l0.2,0.3L65.7,160.8c0.3-0.2,1,1.3,1.1,1c0-0.6,0.6,0.1,0.8-0.1c0-0.4-0.2-0.1-0.3-0.4
	c-0.3-0.7,0.3,0.3,0.1-0.3s-0.5-0.4-0.7-0.7c-0.1,0.1,0,0.3,0.1,0.5c-0.1-0.3-0.2-0.3-0.4-0.6c0,0.4-0.4-0.2-0.4,0.2
	c-0.2-0.4,0.1-0.1,0-0.1h-0.1v0.1c0,0.4-0.4,0.1-0.5-0.1c0.1,0.2,0.2,0.3,0.2,0.6l-0.2-0.4v0.7C65.5,160.8,65.9,161.6,65.7,160.8z"
	/>
<path class="st12" d="M65.3,160c-0.3-0.2,0.2,0.6-0.1,0.5l0.2-0.1L65.3,160z"/>
<path class="st11" d="M66.6,160.8l0.2,0.3C66.5,160.5,66.6,161.4,66.6,160.8z"/>
<polygon class="st11" points="66.9,160.7 67.1,161.3 67.1,160.9 "/>
<path class="st12" d="M67.6,161.2c0-0.3-0.2-0.5-0.3-0.4C67.3,160.8,67.5,161,67.6,161.2z"/>
<path class="st11" d="M68.6,161.9c-0.2,0.1,0.2,0,0.3,0.6C68.9,162.3,68.8,161.9,68.6,161.9z"/>
<path class="st12" d="M70,162.8c0,0.1-0.1,0.1-0.2,0C69.9,162.7,69.9,162.7,70,162.8z"/>
<path class="st12" d="M61.8,161.9c0.2-0.4,0.1,0.9,0.4,0.6c-0.1,0.1-0.2,0.1-0.3,0.2C61.7,162.1,62,162.4,61.8,161.9z"/>
<polygon class="st11" points="55.1,160.1 55,160.2 55,160 "/>
<path class="st11" d="M54.9,160.4v0.4l-0.7-0.4l-0.6-0.5l0.2-0.1c0.1-0.1,0.3,0.1,0.5,0.3S54.9,160.5,54.9,160.4z"/>
<path class="st11" d="M55.1,160.2c0.5-0.5,0,0.3,0.5,0.1c-0.3,0.2-0.5,0.4-0.5,0.2V160.2z"/>
<path class="st13" d="M56.2,159.4c0,0.1,0.2,0,0.2,0.1C56.1,159.9,56.3,159.5,56.2,159.4z"/>
<path class="st12" d="M57.4,157.9l-0.1,0.2C57.3,158.1,57.3,158,57.4,157.9z"/>
<path class="st12" d="M57.5,157.9c0.1-0.1,0.1-0.1,0.2-0.2l0,0c0.1,0,0.2-0.2,0.2,0c0-0.1-0.1,0.1-0.3,0.3l0.1,0.1
	C57.2,158.7,57.5,158,57.5,157.9z"/>
<path class="st13" d="M57.8,157.9l-0.3,0.3C57.7,157.8,57.8,157.9,57.8,157.9z"/>
<path class="st12" d="M57.8,158.4c-0.1,0.1-0.2,0-0.2,0.2s-0.1,0-0.1,0S57.8,158.1,57.8,158.4z"/>
<path class="st13" d="M55.3,159.5c0,0.1-0.1,0.1-0.1,0.1L55.3,159.5z"/>
<path class="st12" d="M51.7,159.1c0,0.3,0.1,0.5,0.5,0.6c0.4-0.4,0.2,0,0.6-0.4c-0.1-0.1,0.1,0.1,0.4,0.2s0.7,0.2,0.7,0l-0.2,0.1
	l0.5-0.4c0,0.2-0.2,0.7,0.1,0.5c-0.1,0.2-1-0.8-1-0.7c0.4-0.5,1.7,0.7,1.9,0.5l-0.2,0.3c0.4-0.2,0.8-0.5,1.1-0.6l-0.2,0.4
	c0-0.2-0.2,0-0.4,0.1c0.2,0.1,0.1,0.3,0.3,0.3c0.3-0.5,0-0.3,0.4-0.4c-0.1,0.2-0.5,0.6-0.3,0.7c0.1,0.3,0.5-0.5,0.7-0.4v-0.2
	c0.1,0,0.3,0,0.2,0.3c0-0.1-0.4,0.1-0.7,0.6c0.1-0.1,0.2,0.2,0.3,0.2L56,161c-0.1,0.4,0.2-0.1,0.2,0.3c0.2-0.1,0.2-0.5,0.3-0.6
	c0,0.1,0,0.4,0.2,0.2c0.3-0.7-0.3,0.1,0-0.6l0.1,0.2c0.5-0.6-0.3-0.1,0.1-0.7s-0.1,0.8,0.5,0c0-0.2-0.2-0.4,0-0.6
	c-0.1,0.3,0.3-0.2,0.4-0.2v0.4c0.1-0.1,0.2-0.2,0.2-0.4c0,0.5,0.5,0.1,0.6,0.8c0.2,0,0.2-0.3,0.3-0.6c-0.1,0.5,0.2,0.2,0.3,0.2
	c0.1-0.2,0.2-0.4,0.3-0.6l-0.3,0.2c0.1-0.2,0.2-0.6,0.1-0.6c-0.3,0.9,0-0.7-0.5,0.3l0.2-0.4l-0.4,0.2v0.1c0.1-0.1-0.4,0.2-0.4-0.1
	c0.1-0.1,0.3,0.2,0.4-0.4c0.2-0.2,0.2,0.3,0.5,0.1l0.1-0.3c0.3-0.4,0.4,0.3,0.6,0.3l-0.2,0.4c0,0.2,0,0.6,0.2,0.2
	c-0.1,0,0-0.2,0.1-0.4s0.3,0.1,0.5,0c0,0,0,0.1,0,0.2l0.3-0.2c0,0.2,0,0.4,0,0.6c0-0.1,0.1,0,0.2-0.3c0,0,0-0.1,0,0
	c0.2-0.5,0,0.1,0.2-0.1c-0.1,0.3-0.2,0.7-0.2,1c0.2-0.1,0.2-0.7,0.2-0.9c0.1,0.3,0.1,0.6,0.3,0.7c0-0.3-0.1-0.2-0.1-0.5
	c0,0.1,0.1,0.1,0.1,0l-0.1-0.2c0.1,0.3,0.3,0.4,0.5,0.3v-0.1h0.1l-0.1,0.5c0.1-0.1,0.1,0.3,0.2-0.1l0,0l0.1-0.1l-0.1,0.5
	c0.1,0.2,0.3-0.8,0.5-0.7c0,0.6-0.3,0.2-0.4,1.1c0,0.1,0.2,0.3,0.2,0.1s0-0.2-0.1-0.2c0.2-0.4,0.4,0.3,0.5-0.5l-0.2-0.4
	c0.1-0.1,0.2,0.8,0.3,0.3l-0.1,0.8c0.2-0.4,0.3-0.3,0.5-0.6c0-0.5-0.2,0-0.2-0.1l0.1-0.4c0.2,0.3,0.1,0.3,0.3,0.6v-0.3
	c0.1,0.5,0.3-0.5,0.3,0.4l-0.1-0.2v0.4l0.3-0.3c0,0.3,0.1,0.2,0.1,0.6l0.1-0.4c0.1,0.5-0.1,0.7-0.1,1.1c0,0.3,0.1,0.2,0.1,0.2
	c-0.1,0.4-0.3-0.5-0.4-0.5v0.4v-0.5c-0.1,0.2-0.1,0.4-0.1,0.6c-0.2-0.6-0.3,0.2-0.5,0c0.2-0.3-0.1-0.5-0.1-0.6s-0.3,0.8-0.4,0.2
	c0-0.2,0.1-0.3,0-0.5c-0.1,0.2-0.2,0.4-0.1,0.5c-0.2,0.1-0.4,0-0.7,0l0.1-0.3c-0.1-0.3-0.3,0.1-0.4,0.5c0-0.1,0-0.2,0-0.2
	c-0.1-0.6-0.3,0.6-0.6,0.5c-0.1,0.4,0.1,0.5,0.2,0.3l-0.1,0.5c0.3,0.1,0.6-0.1,0.8-0.3l-0.1,0.4c0.1,0.7,0.2-0.6,0.3,0.2
	c0.2-0.2-0.1-0.3,0-0.5c0.1,0.1-0.1,0.9,0.1,0.9c-0.7,0.1-1.3,0.1-2,0c0,0.1,0,0.1,0,0.2c-0.2,0.3-0.7-0.1-1.1-0.4s-0.8-0.6-1.1,0
	c0-0.2,0.2-0.4,0.1-0.4c-0.1,0.1-0.1,0.3-0.2,0.4c0-0.8-0.8-0.3-1-0.9c-0.1,0.2-0.2,0.3-0.3,0.4c0.1-0.5-0.4-0.2-0.4-0.5l-0.1,0.3
	l-0.4-0.2c-0.1,0.1,0,0.1,0,0.1c-0.2,0.1,0-0.2,0.1-0.4l-0.5,0.4c0-0.6-0.3-0.6-0.7-0.7s-0.8-0.2-0.9-0.6c-0.4,0.3-0.6,0.3-0.8,0.2
	v0.2c-0.4,0.1,0.2-0.2-0.1-0.1s-0.5,0.5-0.2,0.4c0,0.1-0.2,0.3-0.3,0.3C51.5,160.5,51.4,159.8,51.7,159.1z"/>
<path class="st12" d="M72.4,162.3c-0.2-0.1,0.1-0.3-0.3-0.6c-0.4-0.1-0.8-0.1-1.1,0.2c-0.3,0.2-0.6,0.3-1,0.3
	c-0.2-0.1-0.4-0.2-0.6-0.3c0,0.1,0.1,0.2,0.1,0.2c-0.1,0.1-0.3,0.3-0.6,0.2c0,0.1,0.1,0.4,0.2,0.3c-0.1,0.4-0.7-0.4-0.7-0.1
	c0.2,0.1,0,0.4,0.3,0.4c-0.2,0.2-0.7-1-0.9-1c0,0.1,0.1,0.2,0.1,0.2c-0.4-0.4-0.5,0.5-0.8-0.3l0.1,0.4c-0.2-0.2-0.2-0.4-0.4-0.5
	c0,0.2,0.1,0.3,0.1,0.4c-0.2-0.3-0.3-0.1-0.6-0.5s0.4,0.6,0.4,0.1c0-0.1-0.1-0.1-0.1-0.1c0.6-0.1,1.6,1.2,1.9,0.6
	c0.3,0.3,0.2-0.1,0.1-0.4c-0.2-0.1-0.5-0.3-0.2,0.4l-0.3-0.4c0,0.1-0.4-0.6-0.4-0.8c0.1,0-0.1-0.7-0.3-0.9c0.2-0.2,0.6,1.5,0.7,1.2
	l-0.2-0.5c0.1,0.3,0.4,0.4,0.4,0.2l-0.1-0.1c0.4,0,0.7-0.2,1-0.5c0.3-0.2,0.5-0.5,0.8-0.9c1,0.9,0.1-0.7,0.9,0
	c-0.1-0.2-0.4-0.3-0.4-0.5s0.3,0.1,0.3,0.2v-0.1C71.6,160.1,72.2,161.2,72.4,162.3z"/>
<ellipse class="st20" cx="71.2" cy="95.5" rx="1.9" ry="2.4"/>
<path class="st11" d="M245.1,439.1c0-0.3,0.2-0.5,0.4,0c-0.1-0.3-0.2-0.6-0.1-0.8c0.1,0.3,0.2,0.2,0.3,0.1c-0.1-0.2-0.3-0.2-0.5-0.2
	c0,0.7-0.7-0.2-0.6,0.6C244.7,438.9,245,439.3,245.1,439.1z"/>
<path class="st11" d="M246.6,440.8v-0.2l-0.2,0.4C246.3,440.8,246.5,440.6,246.6,440.8z"/>
<path class="st21" d="M247.4,439.9c0.1,0.3,0.4,0.5,0.5,0.8c-0.3-0.6,0.2-0.2,0.3-0.4l-0.2-0.5c-0.3-0.3-0.6,0-0.9,0.1H247.4z"/>
<path class="st11" d="M247.9,440.2v-0.4C247.8,439.9,247.6,440.1,247.9,440.2z"/>
<path class="st11" d="M247,438.5c-0.2,0,0.2,0.2,0,0.4C247,438.7,247.1,438.7,247,438.5z"/>
<polygon class="st21" points="248.3,439.1 247.9,439.5 248.2,439.7 "/>
<path class="st21" d="M248.8,440.1c-0.1,0-0.3-0.1-0.2-0.3c0.4,0.3,0.2-0.3,0.5,0L249,440c0.2,0.4,0.1-0.6,0.5,0.1
	c-0.1-0.6-0.5-0.5-0.4-1c-0.2,0.3-0.4,0.2-0.7,0.2c0.1,0.1,0.1,0.1,0.3,0.2c-0.1,0.1-0.3,0.4-0.4,0.5
	C248.6,440.4,248.5,439.9,248.8,440.1z"/>
<path class="st21" d="M249.6,439.9c0.2,0,0.4-0.2,0.2-0.7c-0.4-0.3-0.1,0.2-0.1,0.4c-0.1,0-0.3,0-0.4-0.3
	C249.4,439.4,249.5,439.7,249.6,439.9z"/>
<path class="st21" d="M250.4,439.6l-0.2-0.5v0.1l-0.2-0.3c0,0.1,0.4,0.7,0.2,0.8C250.3,439.9,250.2,439.5,250.4,439.6z"/>
<path class="st21" d="M249,437.3c0.2,0.2,0.2,0,0.2-0.2c-0.1,0.1-0.3,0.2-0.3,0.5v-0.1c0,0.2,0,0.5,0.1,0.7
	C249,437.8,249.6,438.1,249,437.3z"/>
<path class="st21" d="M248.8,437.3l-0.1-0.3L248.8,437.3z"/>
<polygon class="st21" points="250.8,439.2 250.4,439.2 250.6,439.3 "/>
<path class="st21" d="M249.6,438c0.2,0-0.3-0.3-0.1-0.4s-0.2,0.2-0.1,0.4C249.5,438,249.4,437.6,249.6,438z"/>
<path class="st21" d="M251.6,439l-0.1-0.3c0.3,0,0.3-0.5,0.9-0.1c-0.3-0.2-0.4-0.6-0.6-0.6c0.1,0.2,0,0.2,0.2,0.4
	c-0.1,0-0.3-0.2-0.4-0.3c0.1,0.3-0.3,0.3-0.2,0.6c0-0.1,0.1,0,0.1,0c0.1,0.6-0.7-0.4-0.3,0.3C251.1,438.8,251.6,439.1,251.6,439z"/>
<path class="st21" d="M250.4,437.4h-0.2c-0.2-0.3,0.2-0.1,0-0.4s-0.3-0.2-0.4-0.3c0.5,0.7-0.2,0.2,0.5,0.9c-0.1,0.2-0.4-0.4-0.5-0.2
	l0.2,0.4C250.1,437.4,250.3,437.8,250.4,437.4z"/>
<path class="st21" d="M251,437.1l0.3,0.2L251,437.1c0.2-0.4,1.6,0.7,1.6,0.3c-0.2-0.6,0.6-0.3,0.8-0.6c-0.2-0.4-0.3,0-0.5-0.1
	c-0.5-0.5,0.4,0.1,0-0.3s-0.6-0.1-1-0.2c0,0.1,0.1,0.2,0.3,0.5c-0.2-0.2-0.4-0.1-0.6-0.3c0.1,0.5-0.5,0-0.4,0.5
	c-0.3-0.2,0.1-0.2,0-0.2l-0.1,0.1h0.1c0.1,0.4-0.4,0.4-0.6,0.2c0.1,0,0.4,0.3,0.4,0.4l-0.4-0.3l0.2,0.6
	C250.8,437.2,251.6,437.7,251,437.1z"/>
<path class="st21" d="M250.3,436.6c-0.3,0,0.4,0.5,0.1,0.5l0.2-0.2L250.3,436.6z"/>
<path class="st11" d="M252,436.6l0.3,0.1C251.8,436.3,252.3,437.1,252,436.6z"/>
<polygon class="st11" points="252.3,436.2 252.7,436.6 252.5,436.3 "/>
<path class="st21" d="M253.2,436.3c-0.2-0.3-0.4-0.3-0.5-0.2C252.8,436,253,436.1,253.2,436.3z"/>
<path class="st11" d="M254.6,436.2c-0.1,0.2,0.3-0.1,0.6,0.3C255,436.4,254.8,436.1,254.6,436.2z"/>
<path class="st21" d="M256.3,436c0.1,0.1-0.1,0.1-0.2,0.1C256.1,436,256.2,436,256.3,436z"/>
<path class="st21" d="M246.9,440.1c0-0.4,0.5,0.8,0.7,0.4c-0.1,0.1-0.2,0.2-0.3,0.3C247,440.3,247.4,440.5,246.9,440.1z"/>
<polygon class="st11" points="238.5,442.8 238.6,443 238.3,442.8 "/>
<path class="st11" d="M238.6,443.1l0.4,0.3c-0.6,0.1-1.2,0.2-1.8,0.3v-0.2C237.1,443.2,238.7,443.3,238.6,443.1z"/>
<path class="st11" d="M238.6,442.8c0.1-0.7,0.3,0.2,0.5-0.3c-0.1,0.3-0.1,0.7-0.3,0.5L238.6,442.8z"/>
<path class="st13" d="M239,441.5c0.1,0.1,0.2-0.2,0.3-0.1C239.3,441.9,239.1,441.5,239,441.5z"/>
<path class="st21" d="M239,439.5c0-0.1,0-0.2,0.1-0.3l0,0c0-0.1,0.1-0.3,0.1-0.1s-0.1,0.1,0,0.5h0.2
	C239.4,440.3,239.2,439.5,239,439.5z"/>
<path class="st13" d="M239.5,439.2l-0.1,0.5C239.3,439.3,239.4,439.2,239.5,439.2z"/>
<path class="st21" d="M239.9,439.6c0,0.1-0.2,0.1-0.1,0.3s0,0.1-0.1,0.1S239.6,439.4,239.9,439.6z"/>
<path class="st21" d="M235.1,444.8c0.3,0.2,0.6,0.2,0.9-0.1c-0.1-0.5,0.1-0.2,0.1-0.7c-0.4,0.1,1.4-0.5,1-0.7l-0.1,0.3V443
	c0.2,0.1,0.5,0.5,0.6,0.2c0.1,0.2-1.5,0.2-1.4,0.4c-0.2-0.6,2-0.9,2-1.2l0.1,0.3c0.2-0.4,0.3-0.9,0.5-1.2l0.1,0.4
	c-0.2-0.1-0.2,0.2-0.3,0.4c0.3-0.1,0.4,0.1,0.6,0c-0.1-0.5-0.2-0.2,0-0.6c0.1,0.2,0,0.8,0.3,0.7c0.3,0.1,0.1-0.7,0.4-0.8l-0.2-0.2
	c0.1,0,0.2-0.2,0.4,0.1c-0.1,0-0.3,0.3-0.2,0.9c0.1-0.1,0.4,0,0.5,0v0.4c0.2,0.3,0.1-0.2,0.3,0.1c0.1-0.2-0.2-0.5-0.1-0.7
	c0,0.1,0.3,0.3,0.4,0c-0.2-0.8-0.2,0.3-0.5-0.5l0.3,0.1c0-0.8-0.4,0.1-0.4-0.6c0-0.8,0.5,0.7,0.5-0.4c-0.1-0.2-0.5-0.1-0.5-0.4
	c0.2,0.3,0.1-0.3,0.3-0.4l0.3,0.3c0-0.3,0-0.3-0.1-0.4c0.4,0.4,0.7-0.2,1.3,0.2c0.2-0.2,0-0.4,0-0.6c0.2,0.5,0.4,0,0.5,0
	s0-0.5-0.1-0.6l-0.3,0.4c0-0.3-0.2-0.6-0.3-0.6c0.3,0.9-0.6-0.5-0.4,0.6l-0.1-0.5l-0.4,0.4v0.1c0-0.2-0.3,0.4-0.6,0.2
	c0-0.2,0.5-0.1,0.1-0.5c0.1-0.3,0.5,0.1,0.8-0.2l-0.1-0.3c0.2-0.5,0.8,0,1.1-0.2v0.5c0.2,0.1,0.4,0.4,0.4,0
	c-0.1,0.1-0.1-0.2-0.1-0.4c0.1-0.3,0.5-0.1,0.7-0.3v0.1l0.2-0.3c0.2,0,0.3,0.3,0.4,0.5c0-0.1,0.2-0.1,0-0.3h-0.1
	c0-0.5,0.1,0.1,0.2-0.2c0,0.4,0.2,0.5,0.3,1c0.2-0.2-0.2-0.7-0.2-0.9c0.3,0.1,0.5,0.5,0.8,0.5c-0.1-0.3-0.2-0.1-0.3-0.4
	c0.1,0,0.1,0,0.1,0s0,0,0-0.1l-0.2-0.1c0.4,0.2,0.6,0.2,0.9-0.1l-0.1-0.1h0.2l0.1,0.5c0.1-0.1,0.3,0.2,0.2-0.2l0,0l0.1-0.2v0.5
	c0.2,0.1,0.1-0.9,0.4-0.9c0.3,0.6-0.3,0.4-0.1,1.2c0.1,0.1,0.3,0.2,0.3,0s-0.1-0.2-0.2-0.2c0.1-0.5,0.6,0,0.5-0.7l-0.3-0.2
	c0.1-0.1,0.6,0.6,0.5,0.1l0.2,0.8c0-0.5,0.3-0.5,0.3-0.8c-0.2-0.4-0.2,0.1-0.3,0l-0.1-0.4c0.4,0.1,0.2,0.2,0.6,0.4l-0.1-0.3
	c0.3,0.4,0.2-0.6,0.4,0.2l-0.2-0.1l0.2,0.4l0.2-0.4c0.1,0.3,0.2,0.1,0.4,0.5v-0.4c0.3,0.5,0.1,0.7,0.3,1.1c0.1,0.2,0.2,0.1,0.2,0.1
	c0,0.5-0.5-0.4-0.7-0.3l0.1,0.4l-0.2-0.4c0,0.2,0,0.4,0.1,0.6c-0.4-0.5-0.3,0.3-0.6,0.3c0.1-0.4-0.3-0.4-0.3-0.5
	c-0.1,0-0.1,1-0.4,0.5c-0.2-0.2,0-0.4-0.2-0.4c-0.1,0.2-0.1,0.4,0.1,0.5c-0.2,0.2-0.5,0.2-0.8,0.3V439c-0.3-0.2-0.3,0.3-0.3,0.6
	c-0.1-0.1-0.1,0-0.1-0.2c-0.4-0.4-0.1,0.7-0.5,0.7c0.2,0.4,0.3,0.4,0.4,0.2l0.1,0.5c0.4-0.1,0.7-0.3,0.8-0.7v0.4
	c0.5,0.6-0.1-0.7,0.4,0c0.1-0.2-0.2-0.2-0.2-0.5c0.2,0.1,0.3,0.9,0.5,0.8c-0.7,0.4-1.4,0.8-2.2,1c0,0.1,0.1,0.1,0.1,0.1
	c-0.1,0.8-2.7-0.5-2.5,0.8c-0.1-0.2,0-0.4-0.2-0.4c0,0.1,0,0.3,0.1,0.4c-0.6-0.6-1,0.3-1.6-0.1c0.1,0.2,0,0.4,0,0.5
	c-0.3-0.5-0.5,0.1-0.7-0.1l0.1,0.3l-0.5,0.1c0,0.1,0.1,0.1,0.1,0.1s-0.2-0.1-0.2-0.4l-0.1,0.6c-0.8-0.8-1.5,0.8-2.4,0.3
	c-0.1,0.5-0.1,0.6-0.4,0.7l0.1,0.1c-0.2,0.4,0-0.2-0.2,0s0,0.7,0.2,0.4c0.1,0.1,0.1,0.3,0,0.4C236.1,445.9,235.4,445.5,235.1,444.8z
	"/>
<path class="st21" d="M258.2,433.3c-0.2,0.1-0.1-0.4-0.6-0.2c-0.4,0.3-0.7,0.7-0.8,1.2c-0.1,0.5-0.4,0.9-0.8,1.2
	c-0.2,0-0.5,0.1-0.7,0.2c0.1,0,0.2,0.1,0.2,0.1c-0.1,0.2-0.2,0.5-0.5,0.6c0.1,0.1,0.3,0.3,0.3,0.2c0.1,0.4-0.8,0.1-0.7,0.4
	c0.3,0,0.2,0.3,0.4,0.3c-0.1,0.3-1.1-0.4-1.4-0.3c0.1,0.1,0.1,0.1,0.2,0.1c-0.6-0.1-0.3,0.8-0.9,0.3l0.2,0.3
	c-0.3-0.1-0.4-0.3-0.6-0.2c0,0.2,0.2,0.2,0.3,0.3c-0.3-0.2-0.4,0.1-0.8-0.1s0.7,0.4,0.4-0.1c-0.1-0.1-0.1-0.1-0.1-0.1
	c0.6-0.4,2.2,0.1,2.2-0.8c0.4,0.1,0.2-0.2-0.1-0.5c-0.2,0-0.7,0.1-0.1,0.5l-0.5-0.1c0,0.1-0.6-0.4-0.8-0.4c0.1,0-0.4-0.6-0.7-0.6
	c0.1-0.3,1.3,1,1.3,0.7l-0.4-0.3c0.2,0.2,0.6,0.1,0.5,0h-0.1c0.6-0.7,1-1.6,0.9-2.6c0.7,0,0.6-0.2,0.5-0.4s-0.3-0.4,0.3-0.4
	c-0.2-0.1-0.5,0.1-0.7-0.1s0.3-0.1,0.4-0.1l-0.1-0.1C256.2,432.1,257.4,432.3,258.2,433.3z"/>
<path class="st11" d="M251.1,452.3c-0.1-0.3,0-0.4,0.2,0c-0.2-0.2-0.3-0.5-0.4-0.7c0.2,0.3,0.2,0.1,0.2,0.1
	c-0.1-0.1-0.2-0.2-0.4-0.2c0.3,0.6-0.5-0.1-0.2,0.6C250.8,452.2,251.1,452.5,251.1,452.3z"/>
<path class="st11" d="M252.7,453.8l-0.1-0.2v0.4C252.6,453.8,252.6,453.6,252.7,453.8z"/>
<path class="st21" d="M253,452.9c0.2,0.3,0.4,0.4,0.6,0.6c-0.4-0.6,0.1-0.2,0.1-0.4l-0.3-0.5c-0.3-0.3-0.4,0-0.6,0.1L253,452.9z"/>
<path class="st11" d="M253.4,453.1l-0.2-0.3C253.3,452.9,253.2,453,253.4,453.1z"/>
<path class="st11" d="M252.1,451.7c-0.1,0.1,0.2,0.1,0.2,0.3C252.3,451.9,252.3,451.8,252.1,451.7z"/>
<path class="st21" d="M253.3,452.1l-0.1,0.4l0.3,0.1L253.3,452.1z"/>
<path class="st21" d="M254.1,453c0,0-0.2-0.1-0.3-0.3c0.4,0.3,0-0.3,0.4-0.1v0.2c0.3,0.3-0.1-0.5,0.4,0.1c-0.3-0.5-0.5-0.4-0.7-0.9
	c0,0.2-0.3,0.2-0.5,0.2c0.1,0.1,0.1,0.1,0.3,0.1c-0.1,0.1,0,0.4-0.1,0.5C254,453.3,253.8,452.9,254.1,453z"/>
<path class="st21" d="M254.6,452.7c0.1,0,0.3-0.2-0.1-0.6c-0.4-0.2,0,0.2,0.1,0.4c-0.1,0-0.2,0-0.4-0.3
	C254.3,452.3,254.4,452.6,254.6,452.7z"/>
<path class="st21" d="M255,452.5l-0.3-0.5v0.1l-0.3-0.3c0.1,0.1,0.5,0.6,0.4,0.7C255.1,452.7,254.9,452.4,255,452.5z"/>
<path class="st21" d="M253.2,450.5c0.2,0.1,0.2,0,0.1-0.2c0,0.1-0.2,0.2,0,0.4L253.2,450.5c0.1,0.3,0.2,0.5,0.3,0.7
	C253.4,450.9,253.9,451.2,253.2,450.5z"/>
<path class="st21" d="M253.1,450.6l-0.2-0.3L253.1,450.6z"/>
<polygon class="st21" points="255.2,452.1 254.9,452.1 255.1,452.2 "/>
<path class="st21" d="M253.9,451.1c0.1,0-0.3-0.3-0.3-0.3s-0.1,0.1,0.1,0.3S253.6,450.8,253.9,451.1z"/>
<path class="st21" d="M255.3,452.1l-0.2-0.4L255.3,452.1z"/>
<path class="st21" d="M255.8,452l-0.2-0.2c0.3,0,0.1-0.4,0.7,0c-0.3-0.2-0.5-0.5-0.7-0.5c0.1,0.1,0.1,0.2,0.3,0.3
	c-0.1,0-0.3-0.2-0.4-0.2c0.2,0.3-0.1,0.2,0.1,0.5c0-0.1,0,0,0.1,0c0.3,0.5-0.6-0.4-0.1,0.3C255.4,451.8,255.8,452.1,255.8,452z"/>
<path class="st21" d="M254.4,450.6h-0.2c-0.3-0.3,0.1-0.1-0.2-0.4s-0.3-0.1-0.4-0.3c0.6,0.6-0.1,0.1,0.7,0.8c0,0.2-0.4-0.4-0.5-0.2
	l0.3,0.4C254.1,450.6,254.4,450.9,254.4,450.6z"/>
<path class="st21" d="M254.8,450.4l0.3,0.1l-0.3-0.3c0.1-0.2,1.5,0.8,1.5,0.5c-0.3-0.5,0.5-0.1,0.5-0.4c-0.2-0.3-0.2,0-0.4-0.2
	c-0.5-0.5,0.4,0.1-0.1-0.3s-0.6-0.2-0.9-0.3c0,0.1,0.1,0.2,0.4,0.4c-0.2-0.2-0.4-0.2-0.6-0.3c0.2,0.4-0.4,0-0.2,0.4
	c-0.3-0.2,0-0.1-0.1-0.1v0.1h0.1c0.2,0.4-0.2,0.3-0.4,0.1c0.1,0,0.4,0.2,0.4,0.4l-0.4-0.3l0.4,0.6
	C254.6,450.5,255.4,450.9,254.8,450.4z"/>
<path class="st21" d="M254,449.9c-0.3,0,0.5,0.4,0.2,0.4l0.1-0.2L254,449.9z"/>
<path class="st11" d="M255.4,450l0.3,0.1C255.2,449.8,255.8,450.5,255.4,450z"/>
<polygon class="st11" points="255.7,449.8 256.1,450.2 255.9,449.9 "/>
<path class="st21" d="M256.4,450c-0.2-0.2-0.4-0.3-0.4-0.2S256.3,449.8,256.4,450z"/>
<path class="st11" d="M257.6,450.2c-0.1,0.1,0.2,0,0.6,0.4C258,450.4,257.8,450.1,257.6,450.2z"/>
<path class="st21" d="M259.1,450.5c0.1,0.1,0,0.1-0.2,0C259,450.5,259,450.5,259.1,450.5z"/>
<path class="st21" d="M252.7,453.1c-0.1-0.4,0.6,0.6,0.6,0.3c0,0.1-0.1,0.2-0.1,0.3C252.8,453.3,253.2,453.4,252.7,453.1z"/>
<polygon class="st11" points="247.9,456.2 247.9,456.3 247.8,456.2 "/>
<path class="st11" d="M248,456.5l0.3,0.2c-0.4,0.2-0.8,0.3-1.2,0.4v-0.2C247,456.6,248.1,456.7,248,456.5z"/>
<path class="st11" d="M248,456.2c-0.1-0.7,0.3,0.2,0.3-0.3c0,0.3,0,0.7-0.1,0.5L248,456.2z"/>
<path class="st13" d="M247.9,454.9c0.1,0.1,0.1-0.2,0.1-0.1C248.2,455.3,248,454.9,247.9,454.9z"/>
<path class="st21" d="M247.5,453l0.1,0.2C247.5,453.2,247.5,453.1,247.5,453z"/>
<path class="st21" d="M247.5,452.9c0-0.1,0-0.2,0-0.3l0,0c0-0.1,0-0.3,0.1-0.1s0,0.1,0.1,0.4h0.1C247.9,453.7,247.6,453,247.5,452.9
	z"/>
<path class="st13" d="M247.7,452.7l0.1,0.5C247.6,452.7,247.7,452.7,247.7,452.7z"/>
<path class="st21" d="M248,453.1c0,0.1-0.1,0.1,0,0.3s0,0.1,0,0.1S247.8,452.9,248,453.1z"/>
<path class="st13" d="M247.5,455.6c0,0,0.1,0.1,0.1,0.2L247.5,455.6z"/>
<path class="st21" d="M245.8,458.3c0.2,0.1,0.4,0.2,0.6-0.1c-0.1-0.5,0.1-0.2,0-0.7c-0.2,0.1,0.9-0.5,0.6-0.7v0.3l-0.1-0.6
	c0.1,0.1,0.4,0.5,0.4,0.2c0.1,0.2-1,0.3-0.9,0.4c-0.2-0.6,1.2-0.9,1.1-1.2l0.1,0.3c0.1-0.4,0-0.9,0.1-1.2l0.2,0.4
	c-0.1-0.1-0.1,0.2-0.1,0.4c0.1-0.1,0.3,0.1,0.4,0c-0.2-0.5-0.2-0.2-0.1-0.6c0.1,0.2,0.2,0.8,0.3,0.7c0.2,0.1-0.1-0.7,0.1-0.8
	l-0.2-0.1c0.1,0,0.1-0.2,0.3,0.1c-0.1,0-0.1,0.3,0.1,0.9c0-0.1,0.3,0,0.3,0l0.1,0.4c0.2,0.3,0.1-0.2,0.3,0.1c0-0.2-0.3-0.5-0.3-0.7
	c0.1,0.1,0.3,0.3,0.3,0c-0.3-0.7-0.1,0.3-0.5-0.4l0.2,0.1c-0.2-0.8-0.2,0.1-0.4-0.5c-0.2-0.8,0.5,0.7,0.2-0.4
	c-0.1-0.2-0.3-0.1-0.4-0.4c0.2,0.3,0-0.3,0.1-0.4l0.3,0.3c0-0.1-0.1-0.3-0.2-0.4c0.3,0.4,0.4-0.3,0.9,0.2c0.1-0.2-0.1-0.3-0.2-0.6
	c0.3,0.4,0.2,0,0.3,0c-0.1-0.2-0.1-0.4-0.3-0.6v0.4c-0.1-0.2-0.3-0.6-0.3-0.5c0.4,0.8-0.5-0.4-0.1,0.5l-0.2-0.4l-0.1,0.4v0.1
	c-0.1-0.2-0.1,0.4-0.3,0.2c0-0.1,0.3-0.1-0.1-0.5c0-0.3,0.3,0,0.4-0.2l-0.2-0.3c0-0.5,0.4,0,0.6-0.2l0.1,0.4c0.1,0.1,0.4,0.4,0.3,0
	c-0.1,0.1-0.1-0.2-0.2-0.4s0.3-0.1,0.3-0.3c0,0.1,0,0.1,0.1,0.1v-0.3c0.1,0,0.3,0.2,0.4,0.5c0-0.1,0.1-0.1-0.1-0.3h-0.1
	c-0.2-0.5,0.1,0.1,0.1-0.2c0.2,0.3,0.3,0.6,0.5,0.8c0-0.2-0.4-0.6-0.5-0.8c0.3,0.1,0.5,0.4,0.6,0.4c-0.1-0.2-0.2-0.1-0.4-0.3
	c0.1,0,0.1,0,0.1-0.1l-0.2-0.1c0.3,0.2,0.5,0.1,0.5-0.1l-0.1-0.1h0.1l0.2,0.4c0-0.1,0.3,0.2,0.1-0.1l0,0v-0.2l0.2,0.4
	c0.2,0.1-0.3-0.8-0.1-0.8c0.4,0.5-0.1,0.4,0.4,1c0.1,0.1,0.3,0.1,0.2-0.1s-0.2-0.2-0.2-0.1c-0.1-0.4,0.4,0,0.1-0.6l-0.2-0.1
	c0-0.1,0.6,0.5,0.4,0.1l0.4,0.7c-0.1-0.4,0-0.4-0.1-0.8c-0.3-0.4-0.1,0.1-0.2,0l-0.2-0.3c0.3,0.1,0.2,0.2,0.6,0.3l-0.2-0.3
	c0.4,0.3-0.1-0.5,0.4,0.2l-0.2-0.1l0.3,0.3v-0.4c0.2,0.2,0.2,0.1,0.4,0.4l-0.2-0.3c0.4,0.4,0.3,0.6,0.6,0.9s0.2,0.1,0.2,0.1
	c0.2,0.4-0.5-0.3-0.6-0.2l0.2,0.3l-0.3-0.4c0.1,0.2,0.2,0.4,0.3,0.5c-0.5-0.4-0.1,0.3-0.3,0.3c-0.1-0.3-0.4-0.3-0.4-0.4
	c-0.1,0,0.3,0.8-0.1,0.4c-0.2-0.2-0.1-0.3-0.3-0.4c0,0.2,0.1,0.4,0.3,0.5c0,0.2-0.3,0.3-0.4,0.4l-0.1-0.3c-0.3-0.2-0.1,0.3,0.1,0.6
	c-0.1-0.1,0,0-0.1-0.2c-0.4-0.4,0.2,0.6-0.1,0.7c0.3,0.4,0.4,0.4,0.3,0.1l0.3,0.4c0.2-0.1,0.4-0.4,0.3-0.7l0.1,0.4
	c0.5,0.5-0.3-0.6,0.3-0.1c0-0.2-0.2-0.2-0.3-0.4c0.1,0.1,0.5,0.7,0.6,0.7c-0.3,0.5-0.7,0.9-1.2,1.1c0,0.1,0.1,0.1,0.1,0.1
	c0.1,0.3-0.4,0.3-0.9,0.3s-0.9,0.1-0.6,0.7c-0.1-0.2-0.1-0.4-0.2-0.3c0,0.1,0.1,0.3,0.2,0.4c-0.6-0.5-0.6,0.3-1.1,0
	c0.1,0.2,0.1,0.4,0.1,0.5c-0.3-0.5-0.3,0.1-0.5-0.1l0.1,0.2l-0.3,0.1c0,0.1,0.1,0.1,0.1,0.1s-0.1-0.1-0.2-0.3v0.6
	c-0.7-0.8-0.9,0.8-1.6,0.4c0,0.5,0,0.7-0.1,0.7l0.1,0.1c-0.1,0.4,0-0.2-0.1,0s0.1,0.7,0.2,0.4c0.1,0.1,0.1,0.3,0.1,0.4
	C246.7,459.2,246.1,458.9,245.8,458.3z"/>
<path class="st21" d="M260.9,449.6c-0.2,0-0.1-0.3-0.5-0.4c-1-0.1-0.7,0.8-1.5,0.9c-0.2-0.1-0.4-0.1-0.6-0.1l0.2,0.1
	c-0.1,0.1-0.1,0.3-0.4,0.3c0,0.1,0.3,0.3,0.3,0.2c0.1,0.3-0.7-0.1-0.6,0.1c0.2,0.1,0.2,0.3,0.4,0.3c-0.1,0.2-1.1-0.6-1.3-0.5
	c0.1,0.1,0.1,0.1,0.2,0.1c-0.5-0.2-0.1,0.6-0.8,0l0.2,0.3c-0.3-0.1-0.4-0.3-0.6-0.3c0.1,0.1,0.3,0.2,0.3,0.3
	c-0.3-0.2-0.3,0.1-0.7-0.2s0.7,0.4,0.3,0c-0.1-0.1-0.1-0.1-0.1-0.1c0.4-0.3,1.8,0.4,1.8-0.2c0.4,0.1,0.1-0.1-0.2-0.4
	c-0.2,0-0.6-0.1,0,0.4l-0.5-0.2c-0.3-0.1-0.5-0.3-0.7-0.5c0.1,0-0.4-0.5-0.7-0.6c0.1-0.2,1.3,1,1.2,0.8l-0.4-0.4
	c0.2,0.2,0.5,0.2,0.4,0h-0.1c0.5-0.3,0.7-1,0.8-1.6c1.3,0.5-0.2-0.6,0.8-0.2c-0.1-0.1-0.5-0.1-0.6-0.3s0.3,0.1,0.4,0.1l-0.1-0.1
	C259.2,448,260.2,448.7,260.9,449.6z"/>
<circle class="st20" cx="228.9" cy="412.6" r="1.7"/>
<path class="st22" d="M180.3,253.8c-3.1,26.7-4.3,53.6-3.6,80.4"/>
<path class="st22" d="M180.7,253.3c-4.9,4.4-8.7,10-10.8,16.2s-3.5,12.7-4,19.2c-0.7,7.1-0.7,15,3.9,20.5"/>
<ellipse transform="matrix(0.9172 -0.3984 0.3984 0.9172 -91.0718 98.7546)" class="st23" cx="192.1" cy="268.5" rx="1.8" ry="2.2"/>
<radialGradient id="SVGID_7_" cx="257.813" cy="147.3167" r="12.1423" gradientTransform="matrix(1 0 0 1 0 8)" gradientUnits="userSpaceOnUse">
	<stop  offset="0" style="stop-color:#F390B0;stop-opacity:0.1"/>
	<stop  offset="1" style="stop-color:#EE613C"/>
</radialGradient>
<path class="st24" d="M250.9,141.3c0.4,1.1,1.3,8.6,14.3,20.8c-4.2,3.8-6.9,5.5-10.3,6.6c-2.2,0.7-7.2,1.9-2.3-5.8
	c1.7-2.6,3.7-4.9,5.8-7.1C252.6,147.3,250.9,141.3,250.9,141.3z"/>
<path class="st25" d="M276.8,175.2c-2.6-1.7-7.2-3.6-7.4-3.3c1.3,2.7,1.4,3.3,1,7.1"/>
<g class="st4">
	<path class="st8" d="M333,470.9c-0.5,1.2-1.3,1.8-1.6,2.6c-0.2,0.5-0.3,0.9,0.1,1.3c0.4,0.3,1.1,0.4,1.6,0.2c0.9-0.3,1.4-1,2-1.6
		c0.4,0.3,0.1,0.6,0.1,0.9c0,0.6,0.2,1.1,0.8,1.4c0.6,0.3,1.3,0.1,1.6-0.3c0.7-0.9,1.3-0.4,2,0c4.8,2.9,10.1,4.1,15.8,3.8
		c1.2-0.1,2.2-0.1,1.5,1.4c-0.3,0.7-0.1,1.5,0.5,2.1c0.5,0.6,1,1.4,2,1.1c0.9-0.3,1.1-1,1-1.8c-0.1-0.6-0.2-1.1-0.3-1.7
		c0.9,0.2,1.8,1,2.5,0c0.3-0.5,0.8-1.1,0.3-1.8c-0.6-0.7-1.6-1.1-2.5-0.9c-1.1,0.1-1.7-0.3-2.3-1c-3.9-4.5-8.9-7.9-14.4-10.8
		c-0.7-0.4-1.6-0.6-0.6-1.5c0.4-0.4,0.6-1.2-0.1-1.8c-1-0.8-1.7,0.1-2.6,0.5c0-1,0.6-2.5-0.9-2.5c-1.7-0.1-1.4,1.5-1.4,2.8
		c-4.6-1.6-9.4-2.7-14.3-3.4c2,1.3,3.6,2.3,5.2,3.2c0.6,0.3,1.1,0.9,1.2,1.5c0.2,1.3,0.7,2.5,1.5,3.6c0.5,0.7,0.5,1.2-0.3,1.7
		c-1,0.6-1.8,1.5-2.4,2.5c-0.1,0.2-0.8,0.5-0.2,0.8c0.4,0.3,0.9,0.2,1.2,0C330.8,472.4,331.7,471.8,333,470.9z"/>
	<g class="st6">
	</g>
</g>
</svg>
