<?xml version="1.0" encoding="utf-8"?>
<!-- Generator: Adobe Illustrator 23.0.0, SVG Export Plug-In . SVG Version: 6.00 Build 0)  -->
<svg version="1.1" id="圖層_1" xmlns="http://www.w3.org/2000/svg" xmlns:xlink="http://www.w3.org/1999/xlink" x="0px" y="0px"
	 viewBox="0 0 523.6 449.8" style="enable-background:new 0 0 523.6 449.8;" xml:space="preserve">
<style type="text/css">
	.st0{fill:#D0B650;}
	.st1{fill:#BAC950;}
	.st2{opacity:0.73;}
	.st3{fill:url(#SVGID_1_);}
	.st4{fill:#C7C499;}
	.st5{fill:url(#SVGID_2_);stroke:url(#SVGID_3_);stroke-miterlimit:10;}
	.st6{fill:url(#SVGID_4_);stroke:url(#SVGID_5_);stroke-miterlimit:10;}
	.st7{fill:url(#SVGID_6_);stroke:url(#SVGID_7_);stroke-miterlimit:10;}
	.st8{fill:url(#SVGID_8_);stroke:url(#SVGID_9_);stroke-miterlimit:10;}
	.st9{fill:url(#SVGID_10_);stroke:url(#SVGID_11_);stroke-miterlimit:10;}
	.st10{fill:url(#SVGID_12_);stroke:url(#SVGID_13_);stroke-miterlimit:10;}
	.st11{fill:url(#SVGID_14_);stroke:url(#SVGID_15_);stroke-miterlimit:10;}
	.st12{fill:url(#SVGID_16_);stroke:url(#SVGID_17_);stroke-miterlimit:10;}
	.st13{fill:url(#SVGID_18_);stroke:url(#SVGID_19_);stroke-miterlimit:10;}
	.st14{fill:url(#SVGID_20_);stroke:url(#SVGID_21_);stroke-miterlimit:10;}
	.st15{fill:url(#SVGID_22_);stroke:url(#SVGID_23_);stroke-miterlimit:10;}
	.st16{fill:url(#SVGID_24_);stroke:url(#SVGID_25_);stroke-miterlimit:10;}
	.st17{fill:#FF4874;stroke:#DB9CE5;stroke-width:2;stroke-miterlimit:10;}
	.st18{fill:url(#SVGID_26_);stroke:#DB9CE5;stroke-width:2;stroke-miterlimit:10;}
	.st19{fill:url(#SVGID_27_);stroke:#D2D4CD;stroke-width:2;stroke-miterlimit:10;}
	.st20{fill:url(#SVGID_28_);stroke:#D2D4CD;stroke-width:2;stroke-miterlimit:10;}
	.st21{fill:#292929;stroke:#D2D4CD;stroke-miterlimit:10;}
	.st22{fill:#FAFAFA;stroke:#737779;stroke-miterlimit:10;}
	.st23{fill:url(#SVGID_29_);stroke:#D2D4CD;stroke-miterlimit:10;}
	.st24{fill:#FF4874;}
	.st25{fill:#292929;}
	.st26{fill:#FFFFFF;}
	.st27{fill:#666666;stroke:#D2D4CD;stroke-miterlimit:10;}
	.st28{fill:#FFFFFF;stroke:#D2D4CD;stroke-miterlimit:10;}
</style>
<g id="燈籠魚_ok_拷貝">
	<path class="st0" d="M250.4,162.8c-6.1-0.1-11.8,0.5-17.5-0.2c-15.3-1.9-26.4-10.9-35.8-22.2c-6.6-7.8-11.8-16.6-14.1-26.7
		c-1-4.3,0.2-6.1,4.6-5.7c11.4,1.1,22.6,2.5,32.5,9.3s20.6,12.9,30.9,19.2c1,0.6,2.2,1.8,3.4,0.9s0.5-2.2,0-3.1
		c-7.5-14.8-5.6-30.1-2.6-45.5c2-10.6,4.3-21,8.6-30.9c1-2.5,2.2-4.9,3.6-7.2c1.3-2.1,3.1-4.1,5.6-4s2.7,2.9,3.5,4.8
		c3.5,8.3,7.6,16.4,10.5,25c3.8,11.2,6,22.6,5.6,34.5c-0.2,5.1,0.1,10.2-0.1,15.2c-0.1,3.4,0.8,4.5,3.8,2.6
		c3.8-2.3,7.7-4.2,11.8-5.8c11.8-4.8,24.5-7.3,37.3-7.5c3.9,0,8.6,0,10.2,4.3c1.6,4.1-1.9,7.2-4.7,9.7
		c-11.2,9.8-25.1,16.1-39.8,18.3c-2.5,0.2-5,0.8-7.3,1.7c0.1,0.5,0.1,0.9,0.2,1c17.1,9.2,28.8,23.3,36.4,40.9
		c2.5,5.8,5.6,11.4,6.8,17.7c0.9,4.5,0,5.5-4.6,5.7c-13.7,0.7-25.1-5.6-36.6-11.7c-9.3-4.9-17.3-11.9-23.4-20.4
		c-0.9-1.3-1.8-3.4-3.8-2.8c-1.7,0.5-1.4,2.6-1.7,4.1c-2.4,10.4-5.6,20.7-9.4,30.8c-2.3,6.1-5.9,11.3-11.6,14.7
		c-5.1,3-7.6,2.1-9.9-3.3c-8.8-21.7-6.8-42.2,6.7-61.5C249.8,164.1,250.1,163.5,250.4,162.8z"/>
	<path class="st1" d="M233.8,326.5c-13.7-1-24.8-1.7-35.9,0.1c-6.4,1-10.7,4.5-13.2,10.5c-4.2,10.4-6.8,21.2-10.5,31.8
		c-1,3.1-2.6,6-4.7,8.4c-4.1,4.6-9.1,4.5-12.9-0.3c-3.5-4.4-5.4-9.5-7.2-14.8s-3.4-10.1-6.2-14.8c-1-1.9-2.4-3.5-3.9-5
		c-4.2-3.8-6.2-4-10.6-0.4c-3.2,2.5-6.2,5.3-9.3,7.9c-1,0.8-2,1.6-3.1,2.2c-4.8,2.5-10.3,4.1-14.9,1s-3.8-8.6-3.5-13.6
		c0.9-12.2,6.1-23.1,10.1-34.4c1-2.5,1.1-5.2,0.2-7.7c-4-10.8-7.9-21.7-11.7-32.6c-1.2-3.5-1.3-7.3-0.2-10.9c1.5-5.3,5-7,10.5-6
		c10.5,2,20,6.7,29.9,10.7c8.3,3.3,10,2.8,14.1-5.4c3.5-7,6.8-13.9,8.6-21.6c0.9-3.9,2.8-7.4,5.6-10.3c5.4-5.6,11.5-4.4,14,2.9
		c3.5,10.1,7.5,20.2,10,30.6c3.4,14.3,13.1,23.3,23.9,31.6c3.6,2.8,7.3,5.3,11.2,7.6c7.4,4.5,13.1,11.4,16.2,19.5
		C243.7,322.3,240.7,326.7,233.8,326.5z"/>
	<g class="st2">
		<path class="st1" d="M521.7,343.9c-0.6-0.5-1.6-0.3-2.4-0.1s-1.6,0.5-2.4,0.7c-11.9,3.2-22.4,2.7-30.7-5.2
			c-4.3-4.1-9.4-7.7-17-8.2c2-0.5,3.8-2,5.9-0.7s3.6,1,4.5-1c0.6-1.1,1.9-1.1,3.1-1.2c1.6-0.1,1.7,0.7,1.9,1.5
			c0.2,1,1.2,1.7,2.2,1.6c0.8,0.1,1.6-0.3,2.1-1c0.6-1,0.8-2.2,2.9-2.1s3.1,1.1,3.5,2.6c0.2,1.1,1.3,1.9,2.4,1.7c1.5-0.1,2-1,2-2
			c0-0.7-0.1-1.4,1-1.6c0.9-0.2,1.8,0.1,2.5,0.9c0.7,0.6,1.6,1.2,2.5,1.5c1.2,0.5,2.1,0.1,2.4-1c1.1-3,2.4-3.5,6.6-2.5
			c1.7,0.4,3.2-0.1,2.8-1.3c-0.6-2.1,1.2-3.2,2.6-4.6c0.9-0.8,2.1-1.6,1.6-3.2c-4.8,2.6-10.1,2.9-15.3,2.4c-8.4-0.8-16.8-1-25.3-1.1
			c-4.1,0-7.3,0.4-10.2,1.6c0.4-0.7,0.7-1.5,1-2.3c0.6-1.5,1.9-2.3,3.3-3.2c3.5-2.2,6.7-4.9,9.4-8c0.3-0.4,0.3-0.9,1-1
			c4.2-0.5,3.2-2.5,2.3-4.4c-0.5-1.1-0.7-1.9,0.4-2.9s2.5-0.5,3.7-0.1c0.6,0.2,1.1,0.3,1.7,0.4c1.5,0.2,3.1,0.3,3.8-1.1
			c0.5-1.2-0.5-2-1.8-2.5s-3.1-0.7-1.9-2.4c0.7-1.4,2.5-2.1,4-1.5c1.9,0.5,4.1,1,5-1s-1.7-2.4-3.4-2.9s-2.7-1.3-2.5-2.8
			s1.4-2.1,3.3-2.4s3.4-0.7,3.3-2.3c0-1.5-1.6-1.7-3.1-2c-3.4-0.7-4.3-2.5-2.4-5.1c0.5-0.7,1.7-1.7,0.8-2.1
			c-2.5-1.3-2.8-3.9-5.3-5.6c-1,1.6-0.6,2.7-0.6,3.9c0,9.5-1.1,18.4-13.1,24.5c-5.9,3-11,7-12.1,13c-0.3,1.3-2,2.5-3.2,3.8
			c-0.4,0.6-1.2,0.8-1.9,0.6c-1-0.4-0.9-1-0.5-1.7c2.2-3.4,0-3.9-3.7-3.2c-1.1,0.2-2.2,0.2-2.6-0.7s0.5-1.2,1.2-1.6
			c1.4-0.8,2.7-1.7,1.8-3.2s-2.5-1.5-4.2-1.1c-3.5,0.8-3.9-1.3-4.8-3s-1.3-3.1,1.8-3.8c1.5-0.3,2.8-1.2,2.4-2.6s-1.8-1.9-3.4-1.6
			c-2.3,0.4-3.3-0.3-3.7-1.9c-0.4-1.5-1.3-2.8,1.3-3.8c2.9-1.1,2.8-2.6,0-3.8c-4.7-2-4.7-4.7-0.1-6.9c1.2-0.6,2.4-1.1,2.1-2.4
			s-1.8-1.6-3.1-1.4c-2.9,0.3-3.4-1.1-4.1-2.8c-0.8-1.9,0-3.1,2.3-3.9c1.5-0.5,2.4-1.5,1.9-2.8c-0.5-1.2-1.8-1.4-3.2-1.5
			s-3.4,0.5-4-0.9s1.5-1.8,2.6-2.4s2-1.5,1.4-2.7c-0.6-1-1.9-1.5-3-1c-4.9,2.2-6.9-0.8-9.7-2.7c-2.5-1.6-4.8-3.6-8.9-3.3
			c1,2,1.7,3.8,2.8,5.4c5.5,8.4,5.1,17.3,3.1,26.4c-0.9,4.2-2.2,8.4-2.2,12.7c-0.1,6.9,1.3,13.8,3.9,20.3c-1.2-0.1-2.1,0.8-2.8,2
			s-1.8,2.1-3,1c-2.4-2.3-6.5-3.6-5.1-8.3c0.5-1.2-0.1-2.7-1.3-3.2c0,0,0,0-0.1,0c-1.4-0.5-2.3,0.3-3.2,1.4c-2,2.6-5.8,3.1-8.4,1
			c-0.6-0.5-1.1-1-1.5-1.7c-0.8-1.3-1.4-2.6-3.1-2.3c-1.5,0.3-1.9,1.5-2,2.9c-0.1,2-1.4,2.5-3,3s-2.4-0.2-2.9-1.6
			c-0.3-1.3-1.7-2.1-3-1.8c-1.3,0.3-1.6,1.3-1.9,2.5c-1,3.2-3.9,3.9-6.1,1.4c-0.9-1-1.5-2.2-3-1.7s-2,1.9-1.9,3.4s-0.2,3.5-1.9,2.9
			c-4.5-1.5-5.2,0.3-4.8,4.2c0.1,0.8-1.2,1.8-1.9,2.7s-1.6,1.6-0.8,2.6s1.8,0.5,2.8,0.3s1.9-0.6,2.8-0.9c13.7-4.3,25.8-3,35.2,9.5
			c4.9,6.5,10.6,12.2,19.4,13.4c-2.3,0.7-4.4,2.8-6.8,0.8s-4.1-1.6-5.2,1.2c-0.7,1.7-2.2,1.6-3.6,1.7c-1.8,0.1-2-1.1-2.2-2.5
			c-0.1-1.3-1.1-2.4-2.5-2.5c-1-0.1-2,0.5-2.4,1.4c-0.8,1.4-0.9,3.4-3.4,3s-3.5-1.9-4-4.2c-0.3-1.4-1-2.8-2.8-2.7s-2.3,1.4-2.3,3
			c0,1,0.1,2.1-1.2,2.4s-2-0.5-2.8-1.4c-0.8-1-1.8-1.8-2.9-2.4c-1.4-0.8-2.4-0.3-2.8,1.3c-1.3,4.6-2.8,5.3-7.6,3.5
			c-1.9-0.7-3.6-0.1-3.3,1.8c0.6,3.3-1.5,4.9-3.1,6.9c-1,1.2-2.4,2.4-2,4.8c5.5-3.7,11.7-3.9,17.6-2.9c9.6,1.5,19.3,2.5,29,2.9
			c4.8,0.2,8.7-0.2,12-2.1c-1.1,1-2.1,2.2-3,3.4c-0.3,0.4-0.3,0.9-0.8,0.9c-3.2,0.2-2.6,2.2-2,4.1c0.3,1.1,0.4,1.9-0.5,2.8
			s-1.9,0.3-2.8-0.1c-0.4-0.2-0.9-0.3-1.3-0.5c-1.2-0.3-2.4-0.5-3,0.8c-0.5,1.1,0.3,1.9,1.2,2.5s2.3,0.9,1.3,2.5
			c-0.8,1.2-1.6,1.9-3.1,1.2c-1.4-0.6-3.1-1.2-3.9,0.7s1.2,2.5,2.5,3.1c1.2,0.4,2,1.6,1.8,2.9c-0.2,1.6-1.2,2-2.6,2.1
			s-2.6,0.4-2.7,2c0,1.4,1.1,1.8,2.3,2.1c2.6,0.9,3.2,2.8,1.5,5.1c-0.5,0.7-1.4,1.5-0.8,2c1.9,1.5,1.9,4,3.7,5.9
			c0.9-1.5,0.6-2.6,0.7-3.7c0.6-9.3,1.9-17.9,11.5-23.1c4.7-2.5,8.8-6.2,10.1-11.9c0.3-1.3,1.7-2.4,2.6-3.5c0.4-0.5,0.9-0.8,1.5-0.5
			c0.8,0.4,0.6,1,0.3,1.7c-1.9,3.2-0.2,3.8,2.7,3.4c0.9-0.1,1.7-0.1,2,0.9s-0.4,1.2-1,1.5c-1.1,0.7-2.2,1.5-1.6,3s1.8,1.6,3.2,1.3
			c2.8-0.6,2.9,1.5,3.5,3.2s0.8,3.1-1.6,3.6c-1.2,0.2-2.2,1-2,2.4c0.1,1.1,1.1,2,2.3,1.8c0.1,0,0.2,0,0.2,0c1.8-0.3,2.5,0.5,2.7,2.1
			c0.2,1.5,0.8,2.8-1.3,3.6c-2.3,0.9-2.3,2.4-0.2,3.7c3.5,2.3,3.4,4.9-0.3,6.8c-1,0.5-1.9,1-1.8,2.2s1.3,1.6,2.3,1.6
			c2.2-0.1,2.5,1.3,3,3c0.5,2-0.2,3-2,3.6c-1.1,0.2-1.9,1.4-1.6,2.5v0.1c0.3,1.2,1.3,1.5,2.4,1.7s2.6-0.3,3,1.1s-1.3,1.6-2.2,2.2
			s-1.6,1.3-1.2,2.5c0.2,0.9,1.2,1.5,2.1,1.2h0.1c3.9-1.8,5.3,1.3,7.3,3.3c1.8,1.8,3.4,3.8,6.6,3.8c-0.7-2-1.1-3.8-1.8-5.4
			c-3.7-8.6-2.9-17.2-0.8-25.9c1-4.1,2.2-8.1,2.4-12.3c0.8-11.2-1.4-22.5-6.4-32.5c0.8,0,1.5-0.4,2-0.9c0.9-0.8,1.5-1.5,3-1
			c1.7,0.6,0.7,1.5,0.5,2.4c-0.3,1.1-0.4,2.1,1.1,2.6c1.3,0.4,2.6-0.1,3.3-1.2c0.6-0.8,1.5-1.5,2.6-0.7c2.1,1.4,5.7,2.2,4.6,5.3
			c-0.3,0.8,0.1,1.6,0.9,1.9c0.1,0,0.3,0.1,0.4,0.1c1,0.2,2.1-0.2,2.8-1c2.3-2.2,6.7-2.2,8.6,0.2c0.7,0.8,1.3,1.6,2.8,1.4
			c1-0.1,1.7-0.9,1.7-1.9l0,0c0-1.3,1.2-1.7,2.6-2c1-0.4,2.1,0,2.6,1c0.5,0.9,1.6,1.4,2.6,1.1c1.1-0.2,1.4-0.9,1.6-1.7
			c0.8-2.1,3.4-2.6,5.3-1.1c0.8,0.6,1.3,1.4,2.7,1c1.1-0.2,1.8-1.2,1.6-2.3c-0.1-1,0.1-2.3,1.6-2c3.9,0.9,4.5-0.3,4.1-2.9
			c-0.1-0.5,1.1-1.2,1.6-1.8S522.4,344.5,521.7,343.9z M431,353l-0.2,0.1c0.2-0.2,0.3-0.4,0.5-0.5c0.7-0.6,1.4-1.2,2.1-1.8
			C432.7,351.7,431.9,352.4,431,353z M432.9,318.2c-1.8-0.9-1-2.1-0.6-3.3c0.6,1.2,1.3,2.4,2,3.5
			C433.8,318.5,433.3,318.4,432.9,318.2L432.9,318.2z"/>
	</g>
	
		<radialGradient id="SVGID_1_" cx="378.67" cy="442.89" r="153.2297" gradientTransform="matrix(1 0 0 1 0 -66)" gradientUnits="userSpaceOnUse">
		<stop  offset="0" style="stop-color:#A2FF32"/>
		<stop  offset="0.17" style="stop-color:#B3BC62;stop-opacity:0.74"/>
		<stop  offset="0.47" style="stop-color:#CF4AB4;stop-opacity:0.3"/>
		<stop  offset="0.61" style="stop-color:#9E95C3;stop-opacity:0.3"/>
		<stop  offset="0.75" style="stop-color:#78CFD0;stop-opacity:0.3"/>
		<stop  offset="0.86" style="stop-color:#6AE4D4;stop-opacity:0.3"/>
	</radialGradient>
	<path class="st3" d="M331.5,292.9c-2.5,8.5-1.3,17-1.5,25.6c-0.3,5.2,1.7,10.3,5.5,14c3.4,3.5,6.4,7.1,8.4,11.6
		c1.7,3.8,0.9,5.2-3,6.6c-2.8,0.9-5.9,0.9-8.8,0.2c-10.3-2-11.8-1.1-16.7,8.1c-2.3,4.4-4.3,8.9-5.8,13.6c-0.9,2.5-2,5-3.3,7.3
		c-1.7,3.2-4.4,5.6-8.1,4.8c-3.5-0.8-3.7-4.4-3.9-7.3c-0.4-6,0.2-12.1-1.6-18c-1.1-3.6-3-6-6.5-7.1c-4.2-1.3-8.4-2.4-12.6-3.7
		c-9.1-3-11.4-11.1-5.4-18.6c2.7-3.3,5.9-6.1,9.6-8.2c3-1.8,4.4-4.4,5.4-7.7c3-9.8,1.9-19.9,3.2-29.8c0.1-1.3,0.3-2.5,0.6-3.7
		c2.1-7,8.4-8.8,13.8-3.9c4.8,4.4,8.8,9.5,12,15.2c1.5,2.6,2.6,3,4.6,0.7c1.4-1.6,3-3,4.6-4.3c1.8-1.7,4.5-2.1,6.7-1
		C331.3,288.3,331.1,290.6,331.5,292.9z"/>
	<path class="st4" d="M243.2,153.1c-1,0.1-2.4,0.8-3.6,0.3c-6.3-1.6-12.3-4-17.9-7.2c-5.6-3.2-10.7-7.3-14.9-12.3
		c-4.6-5.1-8.7-10.7-12.3-16.6c1.1,1.6,1.9,3.4,3.4,4.8c2.8,2.6,5.9,4.9,9.1,6.9c3,1.9,7,3.4,9.8,5.9c2.6,2.2,5.5,4,8.7,5.3
		c1.9,0.7,2.4,0.7,1.3,0.2c1.4,0.6,2.9-0.1,4.5,0.2c3,0.8,5.3,2.7,7.9,4c0.7-0.1,1.4,0.1,2,0.4c3.2,2.1,6,4.5,10.4,5.9l-0.9,0.2
		l1.8,1.3C249.4,152.7,246.3,153,243.2,153.1z"/>
	<path class="st4" d="M296.1,164.1c0.8,0.3,2.2,0.1,2.8,0.9c3.8,3.3,7.4,6.9,10.6,10.8c3.2,3.9,6.1,8.1,8.5,12.5
		c3.1,4.9,5.6,9.3,8.4,14.1c-0.8-1.3-1.4-2.8-2.5-3.9c-2.4-2.1-4.6-4-7.1-5.9c-2.3-1.8-5.5-3.4-7.2-6c-1.6-2.3-3.4-4.5-5.5-6.4
		c-1.2-1.1-1.7-1.2-1-0.5c-0.9-0.9-2.4-0.7-3.5-1.3c-2.1-1.5-3-3.9-4.4-5.7c-0.5-0.2-1-0.5-1.4-0.9c-1.5-2.8-2.4-5.8-5-8.4l0.8,0.1
		l-0.7-1.7C291.3,162.5,293.7,163.2,296.1,164.1z"/>
	<path class="st4" d="M265.1,125.5c-0.5-0.8-1.7-1.8-1.8-3c-1.3-6.1-2-12.2-2.1-18.4c-0.1-6.2,0.4-12.4,1.6-18.5
		c1-6.6,2.5-13.2,4.3-19.6c-0.4,1.8-1.2,3.6-1.2,5.6c0,3.7,0.3,7.5,0.8,11.2c0.4,3.4,1.7,7.5,1.4,11.3c-0.3,3.4-0.2,6.8,0.2,10.2
		c0.3,1.9,0.6,2.4,0.5,1.3c0.2,1.6,1.5,2.5,2.1,4c0.8,3,0.1,5.9,0.2,8.8c0.3,0.6,0.5,1.2,0.6,1.9c-0.4,3.8-1.4,7.3-0.8,11.7
		l-0.5-0.7c-0.1,0.9-0.2,1.3-0.4,2.1C268.1,130.8,266.5,128.2,265.1,125.5z"/>
	<g>
		
			<radialGradient id="SVGID_2_" cx="-2308.5027" cy="1840.2853" r="29.48" gradientTransform="matrix(-0.33 -0.54 0.51 -0.31 -1538.22 -331.83)" gradientUnits="userSpaceOnUse">
			<stop  offset="0" style="stop-color:#FFB432"/>
			<stop  offset="4.000000e-02" style="stop-color:#FDA645;stop-opacity:0.9"/>
			<stop  offset="0.13" style="stop-color:#F98B6B;stop-opacity:0.69"/>
			<stop  offset="0.21" style="stop-color:#F5738C;stop-opacity:0.51"/>
			<stop  offset="0.3" style="stop-color:#F361A5;stop-opacity:0.38"/>
			<stop  offset="0.37" style="stop-color:#F155B6;stop-opacity:0.28"/>
			<stop  offset="0.44" style="stop-color:#EF4DC1;stop-opacity:0.22"/>
			<stop  offset="0.5" style="stop-color:#EF4AC5;stop-opacity:0.2"/>
			<stop  offset="1" style="stop-color:#6AE4D4;stop-opacity:0.1"/>
		</radialGradient>
		
			<linearGradient id="SVGID_3_" gradientUnits="userSpaceOnUse" x1="-1944.679" y1="942.8911" x2="-1932.929" y2="942.8911" gradientTransform="matrix(-0.44 -0.72 0.67 -0.41 -1318.9601 -654.44)">
			<stop  offset="0" style="stop-color:#F390B0;stop-opacity:0.1"/>
			<stop  offset="0.34" style="stop-color:#6ACF93;stop-opacity:0.2"/>
			<stop  offset="0.36" style="stop-color:#6FCA8F;stop-opacity:0.23"/>
			<stop  offset="0.49" style="stop-color:#95AB76;stop-opacity:0.46"/>
			<stop  offset="0.62" style="stop-color:#B59062;stop-opacity:0.66"/>
			<stop  offset="0.73" style="stop-color:#CE7C51;stop-opacity:0.8"/>
			<stop  offset="0.84" style="stop-color:#DF6D46;stop-opacity:0.91"/>
			<stop  offset="0.93" style="stop-color:#EA643F;stop-opacity:0.98"/>
			<stop  offset="1" style="stop-color:#EE613C"/>
		</linearGradient>
		<path class="st5" d="M165.6,346.9l3.1,4.5c1,1.4,0.7,2.6-1.3,2.6l-5.8,0.2c-2.1,0-2.1-1.6-1.4-3.2l2.9-4.2c0.4-0.7,1.3-0.9,2-0.5
			C165.3,346.5,165.4,346.7,165.6,346.9z"/>
	</g>
	<g>
		
			<radialGradient id="SVGID_4_" cx="-1816.29" cy="1688.2" r="38.27" gradientTransform="matrix(1 0 0 1 0 -66)" gradientUnits="userSpaceOnUse">
			<stop  offset="0" style="stop-color:#FFB432"/>
			<stop  offset="4.000000e-02" style="stop-color:#FDA645;stop-opacity:0.9"/>
			<stop  offset="0.13" style="stop-color:#F98B6B;stop-opacity:0.69"/>
			<stop  offset="0.21" style="stop-color:#F5738C;stop-opacity:0.51"/>
			<stop  offset="0.3" style="stop-color:#F361A5;stop-opacity:0.38"/>
			<stop  offset="0.37" style="stop-color:#F155B6;stop-opacity:0.28"/>
			<stop  offset="0.44" style="stop-color:#EF4DC1;stop-opacity:0.22"/>
			<stop  offset="0.5" style="stop-color:#EF4AC5;stop-opacity:0.2"/>
			<stop  offset="1" style="stop-color:#6AE4D4;stop-opacity:0.1"/>
		</radialGradient>
		
			<linearGradient id="SVGID_5_" gradientUnits="userSpaceOnUse" x1="-1924.2889" y1="956.8419" x2="-1909.329" y2="956.8419" gradientTransform="matrix(-0.44 -0.72 0.67 -0.41 -1318.9601 -654.44)">
			<stop  offset="0" style="stop-color:#F390B0;stop-opacity:0.1"/>
			<stop  offset="0.34" style="stop-color:#6ACF93;stop-opacity:0.2"/>
			<stop  offset="0.36" style="stop-color:#6FCA8F;stop-opacity:0.23"/>
			<stop  offset="0.49" style="stop-color:#95AB76;stop-opacity:0.46"/>
			<stop  offset="0.62" style="stop-color:#B59062;stop-opacity:0.66"/>
			<stop  offset="0.73" style="stop-color:#CE7C51;stop-opacity:0.8"/>
			<stop  offset="0.84" style="stop-color:#DF6D46;stop-opacity:0.91"/>
			<stop  offset="0.93" style="stop-color:#EA643F;stop-opacity:0.98"/>
			<stop  offset="1" style="stop-color:#EE613C"/>
		</linearGradient>
		<path class="st6" d="M165.9,324.1l4,5.8c1.2,1.9,0.9,3.5-1.7,3.4l-7.5,0.3c-2.7,0-2.7-2.1-1.8-4.2l3.7-5.5
			c0.5-0.9,1.7-1.2,2.6-0.6C165.5,323.5,165.7,323.8,165.9,324.1z"/>
	</g>
	<g>
		
			<radialGradient id="SVGID_6_" cx="-1797.6801" cy="1699.8" r="38.27" gradientTransform="matrix(1 0 0 1 0 -66)" gradientUnits="userSpaceOnUse">
			<stop  offset="0" style="stop-color:#FFB432"/>
			<stop  offset="4.000000e-02" style="stop-color:#FDA645;stop-opacity:0.9"/>
			<stop  offset="0.13" style="stop-color:#F98B6B;stop-opacity:0.69"/>
			<stop  offset="0.21" style="stop-color:#F5738C;stop-opacity:0.51"/>
			<stop  offset="0.3" style="stop-color:#F361A5;stop-opacity:0.38"/>
			<stop  offset="0.37" style="stop-color:#F155B6;stop-opacity:0.28"/>
			<stop  offset="0.44" style="stop-color:#EF4DC1;stop-opacity:0.22"/>
			<stop  offset="0.5" style="stop-color:#EF4AC5;stop-opacity:0.2"/>
			<stop  offset="1" style="stop-color:#6AE4D4;stop-opacity:0.1"/>
		</radialGradient>
		
			<linearGradient id="SVGID_7_" gradientUnits="userSpaceOnUse" x1="-1910.2589" y1="965.7737" x2="-1895.299" y2="965.7737" gradientTransform="matrix(-0.44 -0.72 0.67 -0.41 -1318.9601 -654.44)">
			<stop  offset="0" style="stop-color:#F390B0;stop-opacity:0.1"/>
			<stop  offset="0.34" style="stop-color:#6ACF93;stop-opacity:0.2"/>
			<stop  offset="0.36" style="stop-color:#6FCA8F;stop-opacity:0.23"/>
			<stop  offset="0.49" style="stop-color:#95AB76;stop-opacity:0.46"/>
			<stop  offset="0.62" style="stop-color:#B59062;stop-opacity:0.66"/>
			<stop  offset="0.73" style="stop-color:#CE7C51;stop-opacity:0.8"/>
			<stop  offset="0.84" style="stop-color:#DF6D46;stop-opacity:0.91"/>
			<stop  offset="0.93" style="stop-color:#EA643F;stop-opacity:0.98"/>
			<stop  offset="1" style="stop-color:#EE613C"/>
		</linearGradient>
		<path class="st7" d="M165.7,310.4l4,5.8c1.2,1.9,0.9,3.4-1.6,3.4l-7.5,0.3c-2.7,0-2.7-2.1-1.8-4.2l3.7-5.5
			c0.5-0.9,1.7-1.2,2.6-0.7C165.3,309.9,165.5,310.1,165.7,310.4z"/>
	</g>
	<g>
		
			<radialGradient id="SVGID_8_" cx="-2258.9102" cy="1601.636" r="38.27" gradientTransform="matrix(-0.61 -0.17 0.16 -0.57 -1511.0499 825.22)" gradientUnits="userSpaceOnUse">
			<stop  offset="0" style="stop-color:#FFB432"/>
			<stop  offset="4.000000e-02" style="stop-color:#FDA645;stop-opacity:0.9"/>
			<stop  offset="0.13" style="stop-color:#F98B6B;stop-opacity:0.69"/>
			<stop  offset="0.21" style="stop-color:#F5738C;stop-opacity:0.51"/>
			<stop  offset="0.3" style="stop-color:#F361A5;stop-opacity:0.38"/>
			<stop  offset="0.37" style="stop-color:#F155B6;stop-opacity:0.28"/>
			<stop  offset="0.44" style="stop-color:#EF4DC1;stop-opacity:0.22"/>
			<stop  offset="0.5" style="stop-color:#EF4AC5;stop-opacity:0.2"/>
			<stop  offset="1" style="stop-color:#6AE4D4;stop-opacity:0.1"/>
		</radialGradient>
		
			<linearGradient id="SVGID_9_" gradientUnits="userSpaceOnUse" x1="-1911.3932" y1="765.2148" x2="-1896.4331" y2="765.2148" gradientTransform="matrix(-0.81 -0.22 0.21 -0.76 -1574 441.3)">
			<stop  offset="0" style="stop-color:#F390B0;stop-opacity:0.1"/>
			<stop  offset="0.34" style="stop-color:#6ACF93;stop-opacity:0.2"/>
			<stop  offset="0.36" style="stop-color:#6FCA8F;stop-opacity:0.23"/>
			<stop  offset="0.49" style="stop-color:#95AB76;stop-opacity:0.46"/>
			<stop  offset="0.62" style="stop-color:#B59062;stop-opacity:0.66"/>
			<stop  offset="0.73" style="stop-color:#CE7C51;stop-opacity:0.8"/>
			<stop  offset="0.84" style="stop-color:#DF6D46;stop-opacity:0.91"/>
			<stop  offset="0.93" style="stop-color:#EA643F;stop-opacity:0.98"/>
			<stop  offset="1" style="stop-color:#EE613C"/>
		</linearGradient>
		<path class="st8" d="M124,271.9l6.9,1.5c2.2,0.5,3,1.9,1.1,3.6l-5.3,5.4c-2,1.9-3.4,0.3-4.2-1.8l-1.1-6.5c-0.2-1,0.4-2,1.5-2.3
			C123.4,271.8,123.7,271.8,124,271.9z"/>
	</g>
	<g>
		
			<radialGradient id="SVGID_10_" cx="-2178.9509" cy="1935.4635" r="24.58" gradientTransform="matrix(-0.34 -0.54 0.5 -0.32 -1545.7401 -311.8801)" gradientUnits="userSpaceOnUse">
			<stop  offset="0" style="stop-color:#FFB432"/>
			<stop  offset="4.000000e-02" style="stop-color:#FDA645;stop-opacity:0.9"/>
			<stop  offset="0.13" style="stop-color:#F98B6B;stop-opacity:0.69"/>
			<stop  offset="0.21" style="stop-color:#F5738C;stop-opacity:0.51"/>
			<stop  offset="0.3" style="stop-color:#F361A5;stop-opacity:0.38"/>
			<stop  offset="0.37" style="stop-color:#F155B6;stop-opacity:0.28"/>
			<stop  offset="0.44" style="stop-color:#EF4DC1;stop-opacity:0.22"/>
			<stop  offset="0.5" style="stop-color:#EF4AC5;stop-opacity:0.2"/>
			<stop  offset="1" style="stop-color:#6AE4D4;stop-opacity:0.1"/>
		</radialGradient>
		
			<linearGradient id="SVGID_11_" gradientUnits="userSpaceOnUse" x1="-1845.3566" y1="1002.1147" x2="-1835.3965" y2="1002.1147" gradientTransform="matrix(-0.45 -0.71 0.67 -0.42 -1330.47 -635.78)">
			<stop  offset="0" style="stop-color:#F390B0;stop-opacity:0.1"/>
			<stop  offset="0.34" style="stop-color:#6ACF93;stop-opacity:0.2"/>
			<stop  offset="0.36" style="stop-color:#6FCA8F;stop-opacity:0.23"/>
			<stop  offset="0.49" style="stop-color:#95AB76;stop-opacity:0.46"/>
			<stop  offset="0.62" style="stop-color:#B59062;stop-opacity:0.66"/>
			<stop  offset="0.73" style="stop-color:#CE7C51;stop-opacity:0.8"/>
			<stop  offset="0.84" style="stop-color:#DF6D46;stop-opacity:0.91"/>
			<stop  offset="0.93" style="stop-color:#EA643F;stop-opacity:0.98"/>
			<stop  offset="1" style="stop-color:#EE613C"/>
		</linearGradient>
		<path class="st9" d="M170.2,245.5l2.6,3.7c0.8,1.2,0.6,2.2-1,2.2l-4.8,0.3c-1.8,0-1.7-1.3-1.2-2.7l2.3-3.5
			c0.4-0.6,1.1-0.7,1.7-0.4C170,245.2,170.1,245.4,170.2,245.5z"/>
	</g>
	<g>
		
			<radialGradient id="SVGID_12_" cx="-2170.1008" cy="1950.9435" r="15.55" gradientTransform="matrix(-0.34 -0.54 0.5 -0.32 -1545.7401 -311.8801)" gradientUnits="userSpaceOnUse">
			<stop  offset="0" style="stop-color:#FFB432"/>
			<stop  offset="4.000000e-02" style="stop-color:#FDA645;stop-opacity:0.9"/>
			<stop  offset="0.13" style="stop-color:#F98B6B;stop-opacity:0.69"/>
			<stop  offset="0.21" style="stop-color:#F5738C;stop-opacity:0.51"/>
			<stop  offset="0.3" style="stop-color:#F361A5;stop-opacity:0.38"/>
			<stop  offset="0.37" style="stop-color:#F155B6;stop-opacity:0.28"/>
			<stop  offset="0.44" style="stop-color:#EF4DC1;stop-opacity:0.22"/>
			<stop  offset="0.5" style="stop-color:#EF4AC5;stop-opacity:0.2"/>
			<stop  offset="1" style="stop-color:#6AE4D4;stop-opacity:0.1"/>
		</radialGradient>
		
			<linearGradient id="SVGID_13_" gradientUnits="userSpaceOnUse" x1="-1835.0966" y1="1011.9733" x2="-1828.4265" y2="1011.9733" gradientTransform="matrix(-0.45 -0.71 0.67 -0.42 -1330.47 -635.78)">
			<stop  offset="0" style="stop-color:#F390B0;stop-opacity:0.1"/>
			<stop  offset="0.34" style="stop-color:#6ACF93;stop-opacity:0.2"/>
			<stop  offset="0.36" style="stop-color:#6FCA8F;stop-opacity:0.23"/>
			<stop  offset="0.49" style="stop-color:#95AB76;stop-opacity:0.46"/>
			<stop  offset="0.62" style="stop-color:#B59062;stop-opacity:0.66"/>
			<stop  offset="0.73" style="stop-color:#CE7C51;stop-opacity:0.8"/>
			<stop  offset="0.84" style="stop-color:#DF6D46;stop-opacity:0.91"/>
			<stop  offset="0.93" style="stop-color:#EA643F;stop-opacity:0.98"/>
			<stop  offset="1" style="stop-color:#EE613C"/>
		</linearGradient>
		<path class="st10" d="M172.4,236.7l1.7,2.4c0.5,0.8,0.4,1.4-0.6,1.4l-3.1,0.2c-1.1,0-1.1-0.9-0.8-1.7l1.5-2.2
			c0.2-0.4,0.7-0.5,1.1-0.3C172.2,236.5,172.3,236.6,172.4,236.7z"/>
	</g>
	<g>
		
			<radialGradient id="SVGID_14_" cx="-2238.7805" cy="1670.8741" r="24.58" gradientTransform="matrix(-0.56 -0.29 0.27 -0.53 -1601.91 506.3)" gradientUnits="userSpaceOnUse">
			<stop  offset="0" style="stop-color:#FFB432"/>
			<stop  offset="4.000000e-02" style="stop-color:#FDA645;stop-opacity:0.9"/>
			<stop  offset="0.13" style="stop-color:#F98B6B;stop-opacity:0.69"/>
			<stop  offset="0.21" style="stop-color:#F5738C;stop-opacity:0.51"/>
			<stop  offset="0.3" style="stop-color:#F361A5;stop-opacity:0.38"/>
			<stop  offset="0.37" style="stop-color:#F155B6;stop-opacity:0.28"/>
			<stop  offset="0.44" style="stop-color:#EF4DC1;stop-opacity:0.22"/>
			<stop  offset="0.5" style="stop-color:#EF4AC5;stop-opacity:0.2"/>
			<stop  offset="1" style="stop-color:#6AE4D4;stop-opacity:0.1"/>
		</radialGradient>
		
			<linearGradient id="SVGID_15_" gradientUnits="userSpaceOnUse" x1="-1889.1873" y1="805.7123" x2="-1879.2273" y2="805.7123" gradientTransform="matrix(-0.75 -0.38 0.36 -0.7 -1584.39 117.8199)">
			<stop  offset="0" style="stop-color:#F390B0;stop-opacity:0.1"/>
			<stop  offset="0.34" style="stop-color:#6ACF93;stop-opacity:0.2"/>
			<stop  offset="0.36" style="stop-color:#6FCA8F;stop-opacity:0.23"/>
			<stop  offset="0.49" style="stop-color:#95AB76;stop-opacity:0.46"/>
			<stop  offset="0.62" style="stop-color:#B59062;stop-opacity:0.66"/>
			<stop  offset="0.73" style="stop-color:#CE7C51;stop-opacity:0.8"/>
			<stop  offset="0.84" style="stop-color:#DF6D46;stop-opacity:0.91"/>
			<stop  offset="0.93" style="stop-color:#EA643F;stop-opacity:0.98"/>
			<stop  offset="1" style="stop-color:#EE613C"/>
		</linearGradient>
		<path class="st11" d="M116.5,265l4.2,1.8c1.3,0.6,1.6,1.6,0.2,2.4l-4,2.7c-1.5,0.9-2.2-0.3-2.4-1.7l0.2-4.2c0-0.7,0.6-1.2,1.2-1.2
			C116.2,264.9,116.4,264.9,116.5,265z"/>
	</g>
	<g>
		
			<radialGradient id="SVGID_16_" cx="-1731.28" cy="1749.26" r="38.27" gradientTransform="matrix(1 0 0 1 0 -66)" gradientUnits="userSpaceOnUse">
			<stop  offset="0" style="stop-color:#FFB432"/>
			<stop  offset="4.000000e-02" style="stop-color:#FDA645;stop-opacity:0.9"/>
			<stop  offset="0.13" style="stop-color:#F98B6B;stop-opacity:0.69"/>
			<stop  offset="0.21" style="stop-color:#F5738C;stop-opacity:0.51"/>
			<stop  offset="0.3" style="stop-color:#F361A5;stop-opacity:0.38"/>
			<stop  offset="0.37" style="stop-color:#F155B6;stop-opacity:0.28"/>
			<stop  offset="0.44" style="stop-color:#EF4DC1;stop-opacity:0.22"/>
			<stop  offset="0.5" style="stop-color:#EF4AC5;stop-opacity:0.2"/>
			<stop  offset="1" style="stop-color:#6AE4D4;stop-opacity:0.1"/>
		</radialGradient>
		
			<linearGradient id="SVGID_17_" gradientUnits="userSpaceOnUse" x1="-1860.179" y1="1003.4563" x2="-1845.2289" y2="1003.4563" gradientTransform="matrix(-0.44 -0.72 0.67 -0.41 -1318.9601 -654.44)">
			<stop  offset="0" style="stop-color:#F390B0;stop-opacity:0.1"/>
			<stop  offset="0.34" style="stop-color:#6ACF93;stop-opacity:0.2"/>
			<stop  offset="0.36" style="stop-color:#6FCA8F;stop-opacity:0.23"/>
			<stop  offset="0.49" style="stop-color:#95AB76;stop-opacity:0.46"/>
			<stop  offset="0.62" style="stop-color:#B59062;stop-opacity:0.66"/>
			<stop  offset="0.73" style="stop-color:#CE7C51;stop-opacity:0.8"/>
			<stop  offset="0.84" style="stop-color:#DF6D46;stop-opacity:0.91"/>
			<stop  offset="0.93" style="stop-color:#EA643F;stop-opacity:0.98"/>
			<stop  offset="1" style="stop-color:#EE613C"/>
		</linearGradient>
		<path class="st12" d="M169.1,259.2l4,5.8c1.2,1.9,0.9,3.4-1.6,3.4l-7.5,0.3c-2.7,0-2.7-2.1-1.8-4.2l3.7-5.5
			c0.5-0.9,1.7-1.2,2.6-0.7C168.6,258.7,168.9,258.9,169.1,259.2z"/>
	</g>
	<g>
		
			<radialGradient id="SVGID_18_" cx="-2303.0642" cy="1756.3571" r="79.58" gradientTransform="matrix(-0.37 -0.51 0.48 -0.35 -1560.9299 -279.07)" gradientUnits="userSpaceOnUse">
			<stop  offset="0" style="stop-color:#FFB432"/>
			<stop  offset="4.000000e-02" style="stop-color:#FDA645;stop-opacity:0.9"/>
			<stop  offset="0.13" style="stop-color:#F98B6B;stop-opacity:0.69"/>
			<stop  offset="0.21" style="stop-color:#F5738C;stop-opacity:0.51"/>
			<stop  offset="0.3" style="stop-color:#F361A5;stop-opacity:0.38"/>
			<stop  offset="0.37" style="stop-color:#F155B6;stop-opacity:0.28"/>
			<stop  offset="0.44" style="stop-color:#EF4DC1;stop-opacity:0.22"/>
			<stop  offset="0.5" style="stop-color:#EF4AC5;stop-opacity:0.2"/>
			<stop  offset="1" style="stop-color:#6AE4D4;stop-opacity:0.1"/>
		</radialGradient>
		
			<linearGradient id="SVGID_19_" gradientUnits="userSpaceOnUse" x1="-1959.3546" y1="895.6086" x2="-1929.3246" y2="895.6086" gradientTransform="matrix(-0.49 -0.68 0.64 -0.46 -1367.72 -618.33)">
			<stop  offset="0" style="stop-color:#F390B0;stop-opacity:0.1"/>
			<stop  offset="0.34" style="stop-color:#6ACF93;stop-opacity:0.2"/>
			<stop  offset="0.36" style="stop-color:#6FCA8F;stop-opacity:0.23"/>
			<stop  offset="0.49" style="stop-color:#95AB76;stop-opacity:0.46"/>
			<stop  offset="0.62" style="stop-color:#B59062;stop-opacity:0.66"/>
			<stop  offset="0.73" style="stop-color:#CE7C51;stop-opacity:0.8"/>
			<stop  offset="0.84" style="stop-color:#DF6D46;stop-opacity:0.91"/>
			<stop  offset="0.93" style="stop-color:#EA643F;stop-opacity:0.98"/>
			<stop  offset="1" style="stop-color:#EE613C"/>
		</linearGradient>
		<path class="st13" d="M162.4,279.4l9.3,11.4c2.9,3.7,2.4,7-2.9,7.3l-15.6,1.9c-5.7,0.5-5.9-4-4.5-8.3l6.8-11.9
			c1-2,3.5-2.7,5.4-1.7C161.6,278.4,162.1,278.8,162.4,279.4z"/>
	</g>
	<g>
		
			<radialGradient id="SVGID_20_" cx="-2622.2529" cy="954.2356" r="56.03" gradientTransform="matrix(-0.56 -0.3 0.28 -0.52 -1615.8 22.3499)" gradientUnits="userSpaceOnUse">
			<stop  offset="0" style="stop-color:#FFB432"/>
			<stop  offset="4.000000e-02" style="stop-color:#FDA645;stop-opacity:0.9"/>
			<stop  offset="0.13" style="stop-color:#F98B6B;stop-opacity:0.69"/>
			<stop  offset="0.21" style="stop-color:#F5738C;stop-opacity:0.51"/>
			<stop  offset="0.3" style="stop-color:#F361A5;stop-opacity:0.38"/>
			<stop  offset="0.37" style="stop-color:#F155B6;stop-opacity:0.28"/>
			<stop  offset="0.44" style="stop-color:#EF4DC1;stop-opacity:0.22"/>
			<stop  offset="0.5" style="stop-color:#EF4AC5;stop-opacity:0.2"/>
			<stop  offset="1" style="stop-color:#6AE4D4;stop-opacity:0.1"/>
		</radialGradient>
		
			<linearGradient id="SVGID_21_" gradientUnits="userSpaceOnUse" x1="-2192.3269" y1="277.2385" x2="-2170.8967" y2="277.2385" gradientTransform="matrix(-0.74 -0.4 0.38 -0.69 -1587.5201 -366.73)">
			<stop  offset="0" style="stop-color:#F390B0;stop-opacity:0.1"/>
			<stop  offset="0.34" style="stop-color:#6ACF93;stop-opacity:0.2"/>
			<stop  offset="0.36" style="stop-color:#6FCA8F;stop-opacity:0.23"/>
			<stop  offset="0.49" style="stop-color:#95AB76;stop-opacity:0.46"/>
			<stop  offset="0.62" style="stop-color:#B59062;stop-opacity:0.66"/>
			<stop  offset="0.73" style="stop-color:#CE7C51;stop-opacity:0.8"/>
			<stop  offset="0.84" style="stop-color:#DF6D46;stop-opacity:0.91"/>
			<stop  offset="0.93" style="stop-color:#EA643F;stop-opacity:0.98"/>
			<stop  offset="1" style="stop-color:#EE613C"/>
		</linearGradient>
		<path class="st14" d="M127.7,303.6l9.3,4.4c2.9,1.5,3.6,3.7,0.4,5.5l-9.3,5.9c-3.5,2-5-0.7-5.4-3.9l0.7-9.6c0-1.5,1.3-2.8,2.8-2.7
			C126.7,303.2,127.2,303.3,127.7,303.6z"/>
	</g>
	<g>
		
			<radialGradient id="SVGID_22_" cx="15.235" cy="-1035.9336" r="56.03" gradientTransform="matrix(0.47 -0.43 -0.4 -0.44 -204 -140.33)" gradientUnits="userSpaceOnUse">
			<stop  offset="0" style="stop-color:#FFB432"/>
			<stop  offset="4.000000e-02" style="stop-color:#FDA645;stop-opacity:0.9"/>
			<stop  offset="0.13" style="stop-color:#F98B6B;stop-opacity:0.69"/>
			<stop  offset="0.21" style="stop-color:#F5738C;stop-opacity:0.51"/>
			<stop  offset="0.3" style="stop-color:#F361A5;stop-opacity:0.38"/>
			<stop  offset="0.37" style="stop-color:#F155B6;stop-opacity:0.28"/>
			<stop  offset="0.44" style="stop-color:#EF4DC1;stop-opacity:0.22"/>
			<stop  offset="0.5" style="stop-color:#EF4AC5;stop-opacity:0.2"/>
			<stop  offset="1" style="stop-color:#6AE4D4;stop-opacity:0.1"/>
		</radialGradient>
		
			<linearGradient id="SVGID_23_" gradientUnits="userSpaceOnUse" x1="-203.5416" y1="-1224.598" x2="-182.1017" y2="-1224.598" gradientTransform="matrix(0.62 -0.57 -0.53 -0.58 -326.27 -510.63)">
			<stop  offset="0" style="stop-color:#F390B0;stop-opacity:0.1"/>
			<stop  offset="0.34" style="stop-color:#6ACF93;stop-opacity:0.2"/>
			<stop  offset="0.36" style="stop-color:#6FCA8F;stop-opacity:0.23"/>
			<stop  offset="0.49" style="stop-color:#95AB76;stop-opacity:0.46"/>
			<stop  offset="0.62" style="stop-color:#B59062;stop-opacity:0.66"/>
			<stop  offset="0.73" style="stop-color:#CE7C51;stop-opacity:0.8"/>
			<stop  offset="0.84" style="stop-color:#DF6D46;stop-opacity:0.91"/>
			<stop  offset="0.93" style="stop-color:#EA643F;stop-opacity:0.98"/>
			<stop  offset="1" style="stop-color:#EE613C"/>
		</linearGradient>
		<path class="st15" d="M204.8,297.8l-8,6.6c-2.5,2.1-2.6,4.5,0.9,5.5l10.5,3.5c3.9,1.1,4.6-1.9,4.3-5.1l-3-9.2
			c-0.4-1.5-1.9-2.4-3.4-2C205.6,297.2,205.2,297.4,204.8,297.8z"/>
	</g>
	<g>
		
			<radialGradient id="SVGID_24_" cx="-2670.2432" cy="638.2514" r="41.89" gradientTransform="matrix(-0.6 -0.21 0.2 -0.56 -1615.9501 120.25)" gradientUnits="userSpaceOnUse">
			<stop  offset="0" style="stop-color:#FFB432"/>
			<stop  offset="4.000000e-02" style="stop-color:#FDA645;stop-opacity:0.9"/>
			<stop  offset="0.13" style="stop-color:#F98B6B;stop-opacity:0.69"/>
			<stop  offset="0.21" style="stop-color:#F5738C;stop-opacity:0.51"/>
			<stop  offset="0.3" style="stop-color:#F361A5;stop-opacity:0.38"/>
			<stop  offset="0.37" style="stop-color:#F155B6;stop-opacity:0.28"/>
			<stop  offset="0.44" style="stop-color:#EF4DC1;stop-opacity:0.22"/>
			<stop  offset="0.5" style="stop-color:#EF4AC5;stop-opacity:0.2"/>
			<stop  offset="1" style="stop-color:#6AE4D4;stop-opacity:0.1"/>
		</radialGradient>
		
			<linearGradient id="SVGID_25_" gradientUnits="userSpaceOnUse" x1="-2224.3699" y1="31.2969" x2="-2208.1064" y2="31.2969" gradientTransform="matrix(-0.79 -0.28 0.27 -0.74 -1646.4401 -268.31)">
			<stop  offset="0" style="stop-color:#F390B0;stop-opacity:0.1"/>
			<stop  offset="0.34" style="stop-color:#6ACF93;stop-opacity:0.2"/>
			<stop  offset="0.36" style="stop-color:#6FCA8F;stop-opacity:0.23"/>
			<stop  offset="0.49" style="stop-color:#95AB76;stop-opacity:0.46"/>
			<stop  offset="0.62" style="stop-color:#B59062;stop-opacity:0.66"/>
			<stop  offset="0.73" style="stop-color:#CE7C51;stop-opacity:0.8"/>
			<stop  offset="0.84" style="stop-color:#DF6D46;stop-opacity:0.91"/>
			<stop  offset="0.93" style="stop-color:#EA643F;stop-opacity:0.98"/>
			<stop  offset="1" style="stop-color:#EE613C"/>
		</linearGradient>
		<path class="st16" d="M113.1,323.2l7.4,2.2c2.3,0.7,3.1,2.3,0.9,4l-6.2,5.4c-2.3,1.9-3.8,0-4.4-2.3l-0.6-7.2
			c-0.1-1.1,0.7-2.2,1.8-2.3C112.4,323,112.8,323.1,113.1,323.2z"/>
	</g>
	<path class="st17" d="M404.5,272.8c-9.9,6.1-21.5,7.8-32.7,12.6c2.5-9.3,1.8-19.1,8.6-26.6c1.5-1.7,3.5-4.3,5.9-3
		c2.4,1.3,1.3,4.4,0.5,6.6s-1.9,4.1-3.3,7.2c3.9-3.1,8-5.8,12.4-8.1c2.8-1.4,5.4-4.2,8.8-1.8c3.3,2.2,3.7,5.6,3.3,9.2L404.5,272.8z"
		/>
	<path class="st17" d="M32.2,356.8c-5-4.2-7-9.2-9.4-14.1c-1.1-1.7-0.6-4,1.1-5c0.1,0,0.1-0.1,0.2-0.1c0.2-0.2,0.4-0.4,0.6-0.5
		c9.4-7.6,7.6-6.4,15.8-1.6c4.3,2.5,8.7,4.6,13.4,6.2c4.2,1.5,5.5,6.1,8.1,9.3c1.9,2.4,2.9,5.5,5,7.8c2,2.2,3.8,4.5,6.1,7
		c-9.7,2.7-19.1,5.5-28.7,7.8c-4.5,1.1-9.2,1.5-13.6,3c-7.2,2.5-14.2,1.7-21.2-0.3c-7.8-2.3-10.4-14-4.4-19.7
		c1.7-1.6,3.6-1.4,5.5-1.2c6.3,0.5,12.6,1.1,18.9,1.6C30.3,357,30.8,356.9,32.2,356.8z"/>
	
		<linearGradient id="SVGID_26_" gradientUnits="userSpaceOnUse" x1="300.1942" y1="91.6588" x2="345.2915" y2="91.6588" gradientTransform="matrix(1 0 0 1 0 -66)">
		<stop  offset="0" style="stop-color:#FF4874"/>
		<stop  offset="1" style="stop-color:#7A7A7A"/>
	</linearGradient>
	<path class="st18" d="M318.9,27.3c3.7-1.6,6.7-4.5,8.5-8.1c3.2-6,6.4-8.3,10.1-7.4s7.4,6.5,7.8,11.6c0.5,5.7-2.5,9.4-7,12
		c-4.3,2.4-8.6,4.7-13.1,6.8c-3.4,1.4-6.5,3.3-9.4,5.6c-2.4,2.2-3.5,2.8-5.4-1c-3.3-6.4-6.4-12.8-9-19.5c-1.4-3.4-1.6-7.2-0.5-10.7
		c0.8-2.8,1.4-5.7,1.9-8.6c0.6-3,1.4-5.6,5.2-6.1s7,0.3,9,3.9c3,5.4,5.1,11,2.8,17.3C319.4,24.5,319.1,25.9,318.9,27.3z"/>
	
		<linearGradient id="SVGID_27_" gradientUnits="userSpaceOnUse" x1="247.8" y1="494.0006" x2="283.2786" y2="494.0006" gradientTransform="matrix(1 0 0 1 0 -66)">
		<stop  offset="0" style="stop-color:#FFFFFF"/>
		<stop  offset="4.000000e-02" style="stop-color:#FF4874"/>
		<stop  offset="1" style="stop-color:#7A7A7A"/>
	</linearGradient>
	<path class="st19" d="M247.8,421.3c0.7-3.1,2.7-5.4,4.2-7.9c4.8-7.8,4.8-7.7,11.9-1.7c7.1,5.9,13.2,12.8,18.1,20.5
		c1.7,2.6,1.9,4.7-0.6,7c-3.3,2.9-6.2,6.2-9.9,8.5c-1.3,0.8-2.5,1.6-4.1,0.1c-7.6-6.3-13.8-14.1-18.3-23
		C248.6,423.7,248.2,422.5,247.8,421.3z"/>
	
		<linearGradient id="SVGID_28_" gradientUnits="userSpaceOnUse" x1="52.3193" y1="321.4846" x2="74.6293" y2="321.4846" gradientTransform="matrix(1 0 0 1 0 -66)">
		<stop  offset="0" style="stop-color:#FFFFFF"/>
		<stop  offset="4.000000e-02" style="stop-color:#FF4874"/>
		<stop  offset="1" style="stop-color:#7A7A7A"/>
	</linearGradient>
	<path class="st20" d="M59.7,240.6c4,2.6,9.5,2.3,12.7,8s2.5,9.7,0,14.9c-3.9,8.1-3.7,8.2-11.8,4.6c-9.1-4-9.2-4-7.7-14.2
		c0.6-4.3,0.6-8.8,4.4-12C58.8,240.7,58.7,240.6,59.7,240.6z"/>
	<path class="st21" d="M357.7,207.4c-0.5-3.1,0.7-4.8,3.6-5.9c3-1.2,6-2.6,8.8-4.2c3-1.7,4.9-0.8,6.6,1.8c2.1,3.3,4.2,6.7,6.6,9.8
		c1.2,1.5,0.5,2.4-0.2,3.7c-3.1,6.3-9.4,8.5-14.9,11.7c-0.8,0.5-2.1,0.8-2.7-0.3C362.6,218.7,359.1,213.4,357.7,207.4z"/>
	<path class="st21" d="M126.8,158.7c-0.1,0.4-0.3,0.7-0.5,1c-3.7,3.3-7.3,6.7-11.1,9.8c-1.4,1.1-3,0.2-3.9-1.3
		c-2.8-4.7-5.5-9.5-8.4-14.1c-1.2-1.9,0.2-2.5,1.3-3.3c4-3,8.9-4.2,13.3-6.4c0.7-0.5,1.7-0.3,2.2,0.3c0.1,0.1,0.2,0.3,0.2,0.5
		c1.9,4.4,4.2,8.6,6.7,12.7C126.6,158.1,126.7,158.4,126.8,158.7z"/>
	<path class="st22" d="M224.9,390.7c-3.7,1.3-5.6-0.5-5.8-4.9c-0.1-1.7-0.5-3.4-0.9-5c-1.4-5.9-1.4-6,4.5-7c3.1-0.5,6.9-2.6,9.4-1
		c2.7,1.8,0.9,6,1.2,9.1C234.1,390,234,390,224.9,390.7z"/>
	<path class="st21" d="M101.9,202.6c-0.2-3.4,4-8.1,7.6-8.5c2.4-0.3,8.5,2.3,8.6,3.6c0.3,5.4-3.6,12.1-7.1,12.3
		C103.2,210.4,102.4,209.8,101.9,202.6z"/>
	
		<linearGradient id="SVGID_29_" gradientUnits="userSpaceOnUse" x1="330.5147" y1="232.4586" x2="348.1494" y2="232.4586" gradientTransform="matrix(1 0 0 1 0 -66)">
		<stop  offset="0" style="stop-color:#FFFFFF"/>
		<stop  offset="4.000000e-02" style="stop-color:#FF4874"/>
		<stop  offset="1" style="stop-color:#7A7A7A"/>
	</linearGradient>
	<path class="st23" d="M339.4,159.6c3.7-0.1,8.3,4,8.7,7.6c0.2,1.4-0.8,1.6-1.7,2c-3.3,1.3-6.6,2.4-9.9,3.8c-1.5,0.6-2.4,0.4-3-1
		c-0.3-0.6-0.6-1.3-0.8-1.9C328.8,160.9,329.5,159.8,339.4,159.6z"/>
	<path class="st24" d="M336.5,70.8c2.4,1.2,4,0.1,5.8-0.6c2-0.8,4.8-2.4,5.8,0.5s-1.4,4.9-4,5.4c-3.3,0.7-6.7,0.6-10.1,0.9
		c-1,0.1-1.7-0.1-1.7-1.2c0.1-3.8-0.4-7.7,0.7-11.4c0.7-2.3,2.7-3.1,4.7-3.8c1.3-0.5,1.9,0.6,2.5,1.7c1.2,2.2,0.6,4-1.1,5.6
		C338.3,68.8,337.5,69.7,336.5,70.8z"/>
	<path class="st21" d="M232.1,359.9c-4.3-0.3-10.3-4.3-10.1-6.2s4.4-7.5,5.6-7c3.1,1.3,7.9,1.3,8.2,5
		C236.1,354.3,234,357.8,232.1,359.9z"/>
	<path class="st25" d="M226.6,318.8c-2-0.7-3.5-2.6-3.6-4.8c-0.1-2.5,2.9-3.5,4.6-3.4c2.4,0.1,3.6,3.1,3.6,5.1
		S228.3,317.6,226.6,318.8z"/>
	<path class="st26" d="M302.6,327.6c-1.5,0.1-2.9-0.2-2.5-1.9c0.5-2.4,1.2-5,4.2-5.4c2-0.3,3.5,0.8,3.4,2.7
		C307.7,326.2,305,326.9,302.6,327.6z"/>
	<path class="st27" d="M304.9,165.4c0.1,1.3,0.1,2.4-1.4,2c-2.2-0.7-4.9-1-4.9-4.3c0-2.2,1.3-3.6,3.3-3.5
		C305.9,160,303.7,163.8,304.9,165.4z"/>
	<path class="st25" d="M209,309.9c2.1,0.8,4.6,1,4.8,3.6c0.1,1.7-1.2,3.6-2.9,3.6c-2.3-0.1-4.3-1.8-4.7-4.1
		C205.8,311.1,207.7,310.6,209,309.9z"/>
	<path class="st21" d="M331.5,205.7c-2.3-0.3-3.6-1.4-3.4-3.7c0.1-1.9,1.7-3.4,3.6-3.3h0.1c2.2-0.1,3.2,1.5,3.1,3.6
		C334.9,204.7,333.3,205.4,331.5,205.7z"/>
	<path class="st28" d="M116.7,324c-0.1,2.3-1.5,3.3-3.8,3.3c-1.7,0-3.3-0.6-3-2.6s0.7-4.3,3.6-4.1
		C115.5,320.7,116.6,321.8,116.7,324z"/>
	<path class="st21" d="M324.6,186.3c2.1,0.2,3.9,0.9,3.8,3.4c0.1,1.7-1.2,3.1-2.8,3.2c-0.1,0-0.2,0-0.4,0c-1.8,0.2-3.5-1.1-3.7-2.9
		c0-0.2,0-0.5,0-0.7C321.5,187.6,322.4,186.1,324.6,186.3z"/>
	<path class="st21" d="M336.8,121.5c1.2,0.1,2.6,0.5,2.4,2.6s-1.4,3.7-3.7,3.8c-1.8,0.1-3.1-0.9-3-2.7
		C332.6,123,334,121.7,336.8,121.5z"/>
	<path class="st21" d="M318.9,176c-0.1,1.5-1.3,2.6-2.8,2.5c-0.1,0-0.3,0-0.4-0.1c-1.4-0.1-2.9-0.5-2.9-2.3c-0.1-1.6,1.1-3,2.7-3.1
		c0.1,0,0.3,0,0.4,0C317.5,173,318.6,174.2,318.9,176z"/>
	<path class="st25" d="M108.1,340.5c-1.7-0.2-2.2-1.1-2.1-2.6c0.1-1.9,0.5-3.4,2.7-3.5c1.5-0.1,2.8,0.6,2.7,2.4
		C111.3,338.7,109.9,340.2,108.1,340.5z"/>
	<path class="st28" d="M244.7,209.9c0.2-1.7,0.1-3.9,2.8-3.5c2,0.2,2.2,1.9,2,3.6c-0.2,2.1-1.3,3.1-3.4,2.8
		C244.5,212.5,244.1,211.5,244.7,209.9z"/>
	<path class="st28" d="M247.8,199.9c-1.2-0.4-3-0.6-2.4-2.5c0.4-1.2,0.1-3.5,2.5-3.1c1.6,0.2,3.1,0.9,3,2.8
		C250.8,198.8,249.7,199.8,247.8,199.9z"/>
	<path class="st21" d="M138.3,312.8c-1.2,0-2.8,0.3-2.7-1.7c0-1.5,1.2-2.7,2.6-2.7c0.1,0,0.2,0,0.4,0c1.7,0.1,3.1,1.2,3,2.8
		C141.5,313,139.6,312.6,138.3,312.8z"/>
	<path class="st28" d="M170.8,296.8c1.4,0.3,2.6,0.8,2.4,2.5c-0.2,1.6-1.6,2.7-3.2,2.6c0,0,0,0-0.1,0c-1,0-2.1-0.3-2-1.6
		C168.1,298.6,169.3,297.2,170.8,296.8z"/>
	<path class="st25" d="M111.6,255.4c1.4,0.3,2.6,0.8,2.4,2.5s-1.5,2.6-3.2,2.6c-1,0-2.1-0.3-2-1.6
		C108.9,257.3,110,255.9,111.6,255.4z"/>
	<path class="st25" d="M159.9,301.7c-1.7,0-2.6-0.6-2.4-2s1-2.7,2.7-2.7c1.2,0,2.2,0.6,2.1,2.1C162.2,300.9,160.9,301.4,159.9,301.7
		z"/>
	<path class="st26" d="M320.7,320.1c-0.6,0.9-1,2.2-2.7,1.9c-0.6-0.2-0.9-0.8-1-1.4c0.2-1,0.3-2.4,2-2.5
		C320.3,318.2,320.6,319.1,320.7,320.1z"/>
	<path class="st21" d="M312.6,187c-1.5,0-2-0.8-2.7-1.9C311.4,184.9,311.9,185.7,312.6,187z"/>
	<path class="st26" d="M144.7,244.6c-0.6,0.9-1,2.2-2.7,1.9c-0.6-0.2-0.9-0.8-1-1.4c0.2-1,0.3-2.4,2-2.5
		C144.3,242.7,144.6,243.6,144.7,244.6z"/>
	<path class="st26" d="M167.9,172.5c-1,1.4-1.6,3.6-4.3,3.1c-0.9-0.4-1.5-1.2-1.6-2.2c0.3-1.6,0.4-3.9,3.2-3.9
		C167.3,169.3,167.7,170.9,167.9,172.5z"/>
</g>
</svg>
