<?xml version="1.0" encoding="utf-8"?>
<!-- Generator: Adobe Illustrator 23.0.0, SVG Export Plug-In . SVG Version: 6.00 Build 0)  -->
<svg version="1.1" id="圖層_1" xmlns="http://www.w3.org/2000/svg" xmlns:xlink="http://www.w3.org/1999/xlink" x="0px" y="0px"
	 viewBox="0 0 523.6 449.8" style="enable-background:new 0 0 523.6 449.8;" xml:space="preserve">
<style type="text/css">
	.st0{fill:#D0B650;}
	.st1{fill:#BAC950;}
	.st2{opacity:0.73;}
	.st3{fill:url(#SVGID_1_);}
	.st4{fill:#C7C499;}
	.st5{fill:url(#SVGID_2_);stroke:url(#SVGID_3_);stroke-miterlimit:10;}
	.st6{fill:url(#SVGID_4_);stroke:url(#SVGID_5_);stroke-miterlimit:10;}
	.st7{fill:url(#SVGID_6_);stroke:url(#SVGID_7_);stroke-miterlimit:10;}
	.st8{fill:url(#SVGID_8_);stroke:url(#SVGID_9_);stroke-miterlimit:10;}
	.st9{fill:url(#SVGID_10_);stroke:url(#SVGID_11_);stroke-miterlimit:10;}
	.st10{fill:url(#SVGID_12_);stroke:url(#SVGID_13_);stroke-miterlimit:10;}
	.st11{fill:url(#SVGID_14_);stroke:url(#SVGID_15_);stroke-miterlimit:10;}
	.st12{fill:url(#SVGID_16_);stroke:url(#SVGID_17_);stroke-miterlimit:10;}
	.st13{fill:url(#SVGID_18_);stroke:url(#SVGID_19_);stroke-miterlimit:10;}
	.st14{fill:url(#SVGID_20_);stroke:url(#SVGID_21_);stroke-miterlimit:10;}
	.st15{fill:url(#SVGID_22_);stroke:url(#SVGID_23_);stroke-miterlimit:10;}
	.st16{fill:url(#SVGID_24_);stroke:url(#SVGID_25_);stroke-miterlimit:10;}
	.st17{fill:#292929;}
	.st18{fill:#FFFFFF;}
	.st19{fill:#666666;stroke:#D2D4CD;stroke-miterlimit:10;}
	.st20{fill:#292929;stroke:#D2D4CD;stroke-miterlimit:10;}
	.st21{fill:#FFFFFF;stroke:#D2D4CD;stroke-miterlimit:10;}
</style>
<path class="st0" d="M250.4,162.8c-6.1-0.1-11.8,0.5-17.5-0.2c-15.3-1.9-26.4-10.9-35.8-22.2c-6.6-7.8-11.8-16.6-14.1-26.7
	c-1-4.3,0.2-6.1,4.6-5.7c11.4,1.1,22.6,2.5,32.5,9.3s20.6,12.9,30.9,19.2c1,0.6,2.2,1.8,3.4,0.9s0.5-2.2,0-3.1
	c-7.5-14.8-5.6-30.1-2.6-45.5c2-10.6,4.3-21,8.6-30.9c1-2.5,2.2-4.9,3.6-7.2c1.3-2.1,3.1-4.1,5.6-4s2.7,2.9,3.5,4.8
	c3.5,8.3,7.6,16.4,10.5,25c3.8,11.2,6,22.6,5.6,34.5c-0.2,5.1,0.1,10.2-0.1,15.2c-0.1,3.4,0.8,4.5,3.8,2.6c3.8-2.3,7.7-4.2,11.8-5.8
	c11.8-4.8,24.5-7.3,37.3-7.5c3.9,0,8.6,0,10.2,4.3c1.6,4.1-1.9,7.2-4.7,9.7c-11.2,9.8-25.1,16.1-39.8,18.3c-2.5,0.2-5,0.8-7.3,1.7
	c0.1,0.5,0.1,0.9,0.2,1c17.1,9.2,28.8,23.3,36.4,40.9c2.5,5.8,5.6,11.4,6.8,17.7c0.9,4.5,0,5.5-4.6,5.7
	c-13.7,0.7-25.1-5.6-36.6-11.7c-9.3-4.9-17.3-11.9-23.4-20.4c-0.9-1.3-1.8-3.4-3.8-2.8c-1.7,0.5-1.4,2.6-1.7,4.1
	c-2.4,10.4-5.6,20.7-9.4,30.8c-2.3,6.1-5.9,11.3-11.6,14.7c-5.1,3-7.6,2.1-9.9-3.3c-8.8-21.7-6.8-42.2,6.7-61.5
	C249.8,164.1,250.1,163.5,250.4,162.8z"/>
<path class="st1" d="M233.8,326.5c-13.7-1-24.8-1.7-35.9,0.1c-6.4,1-10.7,4.5-13.2,10.5c-4.2,10.4-6.8,21.2-10.5,31.8
	c-1,3.1-2.6,6-4.7,8.4c-4.1,4.6-9.1,4.5-12.9-0.3c-3.5-4.4-5.4-9.5-7.2-14.8s-3.4-10.1-6.2-14.8c-1-1.9-2.4-3.5-3.9-5
	c-4.2-3.8-6.2-4-10.6-0.4c-3.2,2.5-6.2,5.3-9.3,7.9c-1,0.8-2,1.6-3.1,2.2c-4.8,2.5-10.3,4.1-14.9,1s-3.8-8.6-3.5-13.6
	c0.9-12.2,6.1-23.1,10.1-34.4c1-2.5,1.1-5.2,0.2-7.7c-4-10.8-7.9-21.7-11.7-32.6c-1.2-3.5-1.3-7.3-0.2-10.9c1.5-5.3,5-7,10.5-6
	c10.5,2,20,6.7,29.9,10.7c8.3,3.3,10,2.8,14.1-5.4c3.5-7,6.8-13.9,8.6-21.6c0.9-3.9,2.8-7.4,5.6-10.3c5.4-5.6,11.5-4.4,14,2.9
	c3.5,10.1,7.5,20.2,10,30.6c3.4,14.3,13.1,23.3,23.9,31.6c3.6,2.8,7.3,5.3,11.2,7.6c7.4,4.5,13.1,11.4,16.2,19.5
	C243.7,322.3,240.7,326.7,233.8,326.5z"/>
<g class="st2">
	<path class="st1" d="M521.7,343.9c-0.6-0.5-1.6-0.3-2.4-0.1s-1.6,0.5-2.4,0.7c-11.9,3.2-22.4,2.7-30.7-5.2c-4.3-4.1-9.4-7.7-17-8.2
		c2-0.5,3.8-2,5.9-0.7s3.6,1,4.5-1c0.6-1.1,1.9-1.1,3.1-1.2c1.6-0.1,1.7,0.7,1.9,1.5c0.2,1,1.2,1.7,2.2,1.6c0.8,0.1,1.6-0.3,2.1-1
		c0.6-1,0.8-2.2,2.9-2.1s3.1,1.1,3.5,2.6c0.2,1.1,1.3,1.9,2.4,1.7c1.5-0.1,2-1,2-2c0-0.7-0.1-1.4,1-1.6c0.9-0.2,1.8,0.1,2.5,0.9
		c0.7,0.6,1.6,1.2,2.5,1.5c1.2,0.5,2.1,0.1,2.4-1c1.1-3,2.4-3.5,6.6-2.5c1.7,0.4,3.2-0.1,2.8-1.3c-0.6-2.1,1.2-3.2,2.6-4.6
		c0.9-0.8,2.1-1.6,1.6-3.2c-4.8,2.6-10.1,2.9-15.3,2.4c-8.4-0.8-16.8-1-25.3-1.1c-4.1,0-7.3,0.4-10.2,1.6c0.4-0.7,0.7-1.5,1-2.3
		c0.6-1.5,1.9-2.3,3.3-3.2c3.5-2.2,6.7-4.9,9.4-8c0.3-0.4,0.3-0.9,1-1c4.2-0.5,3.2-2.5,2.3-4.4c-0.5-1.1-0.7-1.9,0.4-2.9
		s2.5-0.5,3.7-0.1c0.6,0.2,1.1,0.3,1.7,0.4c1.5,0.2,3.1,0.3,3.8-1.1c0.5-1.2-0.5-2-1.8-2.5s-3.1-0.7-1.9-2.4c0.7-1.4,2.5-2.1,4-1.5
		c1.9,0.5,4.1,1,5-1s-1.7-2.4-3.4-2.9s-2.7-1.3-2.5-2.8s1.4-2.1,3.3-2.4s3.4-0.7,3.3-2.3c0-1.5-1.6-1.7-3.1-2
		c-3.4-0.7-4.3-2.5-2.4-5.1c0.5-0.7,1.7-1.7,0.8-2.1c-2.5-1.3-2.8-3.9-5.3-5.6c-1,1.6-0.6,2.7-0.6,3.9c0,9.5-1.1,18.4-13.1,24.5
		c-5.9,3-11,7-12.1,13c-0.3,1.3-2,2.5-3.2,3.8c-0.4,0.6-1.2,0.8-1.9,0.6c-1-0.4-0.9-1-0.5-1.7c2.2-3.4,0-3.9-3.7-3.2
		c-1.1,0.2-2.2,0.2-2.6-0.7s0.5-1.2,1.2-1.6c1.4-0.8,2.7-1.7,1.8-3.2s-2.5-1.5-4.2-1.1c-3.5,0.8-3.9-1.3-4.8-3s-1.3-3.1,1.8-3.8
		c1.5-0.3,2.8-1.2,2.4-2.6s-1.8-1.9-3.4-1.6c-2.3,0.4-3.3-0.3-3.7-1.9c-0.4-1.5-1.3-2.8,1.3-3.8c2.9-1.1,2.8-2.6,0-3.8
		c-4.7-2-4.7-4.7-0.1-6.9c1.2-0.6,2.4-1.1,2.1-2.4s-1.8-1.6-3.1-1.4c-2.9,0.3-3.4-1.1-4.1-2.8c-0.8-1.9,0-3.1,2.3-3.9
		c1.5-0.5,2.4-1.5,1.9-2.8c-0.5-1.2-1.8-1.4-3.2-1.5s-3.4,0.5-4-0.9s1.5-1.8,2.6-2.4s2-1.5,1.4-2.7c-0.6-1-1.9-1.5-3-1
		c-4.9,2.2-6.9-0.8-9.7-2.7c-2.5-1.6-4.8-3.6-8.9-3.3c1,2,1.7,3.8,2.8,5.4c5.5,8.4,5.1,17.3,3.1,26.4c-0.9,4.2-2.2,8.4-2.2,12.7
		c-0.1,6.9,1.3,13.8,3.9,20.3c-1.2-0.1-2.1,0.8-2.8,2s-1.8,2.1-3,1c-2.4-2.3-6.5-3.6-5.1-8.3c0.5-1.2-0.1-2.7-1.3-3.2c0,0,0,0-0.1,0
		c-1.4-0.5-2.3,0.3-3.2,1.4c-2,2.6-5.8,3.1-8.4,1c-0.6-0.5-1.1-1-1.5-1.7c-0.8-1.3-1.4-2.6-3.1-2.3c-1.5,0.3-1.9,1.5-2,2.9
		c-0.1,2-1.4,2.5-3,3s-2.4-0.2-2.9-1.6c-0.3-1.3-1.7-2.1-3-1.8c-1.3,0.3-1.6,1.3-1.9,2.5c-1,3.2-3.9,3.9-6.1,1.4
		c-0.9-1-1.5-2.2-3-1.7s-2,1.9-1.9,3.4s-0.2,3.5-1.9,2.9c-4.5-1.5-5.2,0.3-4.8,4.2c0.1,0.8-1.2,1.8-1.9,2.7s-1.6,1.6-0.8,2.6
		s1.8,0.5,2.8,0.3s1.9-0.6,2.8-0.9c13.7-4.3,25.8-3,35.2,9.5c4.9,6.5,10.6,12.2,19.4,13.4c-2.3,0.7-4.4,2.8-6.8,0.8
		s-4.1-1.6-5.2,1.2c-0.7,1.7-2.2,1.6-3.6,1.7c-1.8,0.1-2-1.1-2.2-2.5c-0.1-1.3-1.1-2.4-2.5-2.5c-1-0.1-2,0.5-2.4,1.4
		c-0.8,1.4-0.9,3.4-3.4,3s-3.5-1.9-4-4.2c-0.3-1.4-1-2.8-2.8-2.7s-2.3,1.4-2.3,3c0,1,0.1,2.1-1.2,2.4s-2-0.5-2.8-1.4
		c-0.8-1-1.8-1.8-2.9-2.4c-1.4-0.8-2.4-0.3-2.8,1.3c-1.3,4.6-2.8,5.3-7.6,3.5c-1.9-0.7-3.6-0.1-3.3,1.8c0.6,3.3-1.5,4.9-3.1,6.9
		c-1,1.2-2.4,2.4-2,4.8c5.5-3.7,11.7-3.9,17.6-2.9c9.6,1.5,19.3,2.5,29,2.9c4.8,0.2,8.7-0.2,12-2.1c-1.1,1-2.1,2.2-3,3.4
		c-0.3,0.4-0.3,0.9-0.8,0.9c-3.2,0.2-2.6,2.2-2,4.1c0.3,1.1,0.4,1.9-0.5,2.8s-1.9,0.3-2.8-0.1c-0.4-0.2-0.9-0.3-1.3-0.5
		c-1.2-0.3-2.4-0.5-3,0.8c-0.5,1.1,0.3,1.9,1.2,2.5s2.3,0.9,1.3,2.5c-0.8,1.2-1.6,1.9-3.1,1.2c-1.4-0.6-3.1-1.2-3.9,0.7
		s1.2,2.5,2.5,3.1c1.2,0.4,2,1.6,1.8,2.9c-0.2,1.6-1.2,2-2.6,2.1s-2.6,0.4-2.7,2c0,1.4,1.1,1.8,2.3,2.1c2.6,0.9,3.2,2.8,1.5,5.1
		c-0.5,0.7-1.4,1.5-0.8,2c1.9,1.5,1.9,4,3.7,5.9c0.9-1.5,0.6-2.6,0.7-3.7c0.6-9.3,1.9-17.9,11.5-23.1c4.7-2.5,8.8-6.2,10.1-11.9
		c0.3-1.3,1.7-2.4,2.6-3.5c0.4-0.5,0.9-0.8,1.5-0.5c0.8,0.4,0.6,1,0.3,1.7c-1.9,3.2-0.2,3.8,2.7,3.4c0.9-0.1,1.7-0.1,2,0.9
		s-0.4,1.2-1,1.5c-1.1,0.7-2.2,1.5-1.6,3s1.8,1.6,3.2,1.3c2.8-0.6,2.9,1.5,3.5,3.2s0.8,3.1-1.6,3.6c-1.2,0.2-2.2,1-2,2.4
		c0.1,1.1,1.1,2,2.3,1.8c0.1,0,0.2,0,0.2,0c1.8-0.3,2.5,0.5,2.7,2.1c0.2,1.5,0.8,2.8-1.3,3.6c-2.3,0.9-2.3,2.4-0.2,3.7
		c3.5,2.3,3.4,4.9-0.3,6.8c-1,0.5-1.9,1-1.8,2.2s1.3,1.6,2.3,1.6c2.2-0.1,2.5,1.3,3,3c0.5,2-0.2,3-2,3.6c-1.1,0.2-1.9,1.4-1.6,2.5
		v0.1c0.3,1.2,1.3,1.5,2.4,1.7s2.6-0.3,3,1.1s-1.3,1.6-2.2,2.2s-1.6,1.3-1.2,2.5c0.2,0.9,1.2,1.5,2.1,1.2h0.1
		c3.9-1.8,5.3,1.3,7.3,3.3c1.8,1.8,3.4,3.8,6.6,3.8c-0.7-2-1.1-3.8-1.8-5.4c-3.7-8.6-2.9-17.2-0.8-25.9c1-4.1,2.2-8.1,2.4-12.3
		c0.8-11.2-1.4-22.5-6.4-32.5c0.8,0,1.5-0.4,2-0.9c0.9-0.8,1.5-1.5,3-1c1.7,0.6,0.7,1.5,0.5,2.4c-0.3,1.1-0.4,2.1,1.1,2.6
		c1.3,0.4,2.6-0.1,3.3-1.2c0.6-0.8,1.5-1.5,2.6-0.7c2.1,1.4,5.7,2.2,4.6,5.3c-0.3,0.8,0.1,1.6,0.9,1.9c0.1,0,0.3,0.1,0.4,0.1
		c1,0.2,2.1-0.2,2.8-1c2.3-2.2,6.7-2.2,8.6,0.2c0.7,0.8,1.3,1.6,2.8,1.4c1-0.1,1.7-0.9,1.7-1.9l0,0c0-1.3,1.2-1.7,2.6-2
		c1-0.4,2.1,0,2.6,1c0.5,0.9,1.6,1.4,2.6,1.1c1.1-0.2,1.4-0.9,1.6-1.7c0.8-2.1,3.4-2.6,5.3-1.1c0.8,0.6,1.3,1.4,2.7,1
		c1.1-0.2,1.8-1.2,1.6-2.3c-0.1-1,0.1-2.3,1.6-2c3.9,0.9,4.5-0.3,4.1-2.9c-0.1-0.5,1.1-1.2,1.6-1.8S522.4,344.5,521.7,343.9z
		 M431,353l-0.2,0.1c0.2-0.2,0.3-0.4,0.5-0.5c0.7-0.6,1.4-1.2,2.1-1.8C432.7,351.7,431.9,352.4,431,353z M432.9,318.2
		c-1.8-0.9-1-2.1-0.6-3.3c0.6,1.2,1.3,2.4,2,3.5C433.8,318.5,433.3,318.4,432.9,318.2L432.9,318.2z"/>
</g>
<radialGradient id="SVGID_1_" cx="378.67" cy="7.0155" r="153.3027" gradientTransform="matrix(1 0 0 -1 0 383.9055)" gradientUnits="userSpaceOnUse">
	<stop  offset="0" style="stop-color:#A2FF32"/>
	<stop  offset="0.17" style="stop-color:#B3BC62;stop-opacity:0.74"/>
	<stop  offset="0.47" style="stop-color:#CF4AB4;stop-opacity:0.3"/>
	<stop  offset="0.61" style="stop-color:#9E95C3;stop-opacity:0.3"/>
	<stop  offset="0.75" style="stop-color:#78CFD0;stop-opacity:0.3"/>
	<stop  offset="0.86" style="stop-color:#6AE4D4;stop-opacity:0.3"/>
</radialGradient>
<path class="st3" d="M331.5,292.9c-2.5,8.5-1.3,17-1.5,25.6c-0.3,5.2,1.7,10.3,5.5,14c3.4,3.5,6.4,7.1,8.4,11.6
	c1.7,3.8,0.9,5.2-3,6.6c-2.8,0.9-5.9,0.9-8.8,0.2c-10.3-2-11.8-1.1-16.7,8.1c-2.3,4.4-4.3,8.9-5.8,13.6c-0.9,2.5-2,5-3.3,7.3
	c-1.7,3.2-4.4,5.6-8.1,4.8c-3.5-0.8-3.7-4.4-3.9-7.3c-0.4-6,0.2-12.1-1.6-18c-1.1-3.6-3-6-6.5-7.1c-4.2-1.3-8.4-2.4-12.6-3.7
	c-9.1-3-11.4-11.1-5.4-18.6c2.7-3.3,5.9-6.1,9.6-8.2c3-1.8,4.4-4.4,5.4-7.7c3-9.8,1.9-19.9,3.2-29.8c0.1-1.3,0.3-2.5,0.6-3.7
	c2.1-7,8.4-8.8,13.8-3.9c4.8,4.4,8.8,9.5,12,15.2c1.5,2.6,2.6,3,4.6,0.7c1.4-1.6,3-3,4.6-4.3c1.8-1.7,4.5-2.1,6.7-1
	C331.3,288.3,331.1,290.6,331.5,292.9z"/>
<path class="st4" d="M243.2,153.1c-1,0.1-2.4,0.8-3.6,0.3c-6.3-1.6-12.3-4-17.9-7.2c-5.6-3.2-10.7-7.3-14.9-12.3
	c-4.6-5.1-8.7-10.7-12.3-16.6c1.1,1.6,1.9,3.4,3.4,4.8c2.8,2.6,5.9,4.9,9.1,6.9c3,1.9,7,3.4,9.8,5.9c2.6,2.2,5.5,4,8.7,5.3
	c1.9,0.7,2.4,0.7,1.3,0.2c1.4,0.6,2.9-0.1,4.5,0.2c3,0.8,5.3,2.7,7.9,4c0.7-0.1,1.4,0.1,2,0.4c3.2,2.1,6,4.5,10.4,5.9l-0.9,0.2
	l1.8,1.3C249.4,152.7,246.3,153,243.2,153.1z"/>
<path class="st4" d="M296.1,164.1c0.8,0.3,2.2,0.1,2.8,0.9c3.8,3.3,7.4,6.9,10.6,10.8c3.2,3.9,6.1,8.1,8.5,12.5
	c3.1,4.9,5.6,9.3,8.4,14.1c-0.8-1.3-1.4-2.8-2.5-3.9c-2.4-2.1-4.6-4-7.1-5.9c-2.3-1.8-5.5-3.4-7.2-6c-1.6-2.3-3.4-4.5-5.5-6.4
	c-1.2-1.1-1.7-1.2-1-0.5c-0.9-0.9-2.4-0.7-3.5-1.3c-2.1-1.5-3-3.9-4.4-5.7c-0.5-0.2-1-0.5-1.4-0.9c-1.5-2.8-2.4-5.8-5-8.4l0.8,0.1
	l-0.7-1.7C291.3,162.5,293.7,163.2,296.1,164.1z"/>
<path class="st4" d="M265.1,125.5c-0.5-0.8-1.7-1.8-1.8-3c-1.3-6.1-2-12.2-2.1-18.4c-0.1-6.2,0.4-12.4,1.6-18.5
	c1-6.6,2.5-13.2,4.3-19.6c-0.4,1.8-1.2,3.6-1.2,5.6c0,3.7,0.3,7.5,0.8,11.2c0.4,3.4,1.7,7.5,1.4,11.3c-0.3,3.4-0.2,6.8,0.2,10.2
	c0.3,1.9,0.6,2.4,0.5,1.3c0.2,1.6,1.5,2.5,2.1,4c0.8,3,0.1,5.9,0.2,8.8c0.3,0.6,0.5,1.2,0.6,1.9c-0.4,3.8-1.4,7.3-0.8,11.7l-0.5-0.7
	c-0.1,0.9-0.2,1.3-0.4,2.1C268.1,130.8,266.5,128.2,265.1,125.5z"/>
<g>
	
		<radialGradient id="SVGID_2_" cx="-2538.7791" cy="-1474.3774" r="29.48" gradientTransform="matrix(-0.33 -0.54 -0.51 0.31 -1427.5981 -569.6107)" gradientUnits="userSpaceOnUse">
		<stop  offset="0" style="stop-color:#FFB432"/>
		<stop  offset="4.000000e-02" style="stop-color:#FDA645;stop-opacity:0.9"/>
		<stop  offset="0.13" style="stop-color:#F98B6B;stop-opacity:0.69"/>
		<stop  offset="0.21" style="stop-color:#F5738C;stop-opacity:0.51"/>
		<stop  offset="0.3" style="stop-color:#F361A5;stop-opacity:0.38"/>
		<stop  offset="0.37" style="stop-color:#F155B6;stop-opacity:0.28"/>
		<stop  offset="0.44" style="stop-color:#EF4DC1;stop-opacity:0.22"/>
		<stop  offset="0.5" style="stop-color:#EF4AC5;stop-opacity:0.2"/>
		<stop  offset="1" style="stop-color:#6AE4D4;stop-opacity:0.1"/>
	</radialGradient>
	
		<linearGradient id="SVGID_3_" gradientUnits="userSpaceOnUse" x1="-2143.1333" y1="-548.8813" x2="-2131.3833" y2="-548.8813" gradientTransform="matrix(-0.44 -0.72 -0.67 0.41 -1142.2933 -958.8713)">
		<stop  offset="0" style="stop-color:#F390B0;stop-opacity:0.1"/>
		<stop  offset="0.34" style="stop-color:#6ACF93;stop-opacity:0.2"/>
		<stop  offset="0.36" style="stop-color:#6FCA8F;stop-opacity:0.23"/>
		<stop  offset="0.49" style="stop-color:#95AB76;stop-opacity:0.46"/>
		<stop  offset="0.62" style="stop-color:#B59062;stop-opacity:0.66"/>
		<stop  offset="0.73" style="stop-color:#CE7C51;stop-opacity:0.8"/>
		<stop  offset="0.84" style="stop-color:#DF6D46;stop-opacity:0.91"/>
		<stop  offset="0.93" style="stop-color:#EA643F;stop-opacity:0.98"/>
		<stop  offset="1" style="stop-color:#EE613C"/>
	</linearGradient>
	<path class="st5" d="M165.6,346.9l3.1,4.5c1,1.4,0.7,2.6-1.3,2.6l-5.8,0.2c-2.1,0-2.1-1.6-1.4-3.2l2.9-4.2c0.4-0.7,1.3-0.9,2-0.5
		C165.3,346.5,165.4,346.7,165.6,346.9z"/>
</g>
<g>
	
		<radialGradient id="SVGID_4_" cx="-1816.29" cy="-1238.2944" r="38.27" gradientTransform="matrix(1 0 0 -1 0 383.9055)" gradientUnits="userSpaceOnUse">
		<stop  offset="0" style="stop-color:#FFB432"/>
		<stop  offset="4.000000e-02" style="stop-color:#FDA645;stop-opacity:0.9"/>
		<stop  offset="0.13" style="stop-color:#F98B6B;stop-opacity:0.69"/>
		<stop  offset="0.21" style="stop-color:#F5738C;stop-opacity:0.51"/>
		<stop  offset="0.3" style="stop-color:#F361A5;stop-opacity:0.38"/>
		<stop  offset="0.37" style="stop-color:#F155B6;stop-opacity:0.28"/>
		<stop  offset="0.44" style="stop-color:#EF4DC1;stop-opacity:0.22"/>
		<stop  offset="0.5" style="stop-color:#EF4AC5;stop-opacity:0.2"/>
		<stop  offset="1" style="stop-color:#6AE4D4;stop-opacity:0.1"/>
	</radialGradient>
	
		<linearGradient id="SVGID_5_" gradientUnits="userSpaceOnUse" x1="-2122.7434" y1="-562.8321" x2="-2107.7834" y2="-562.8321" gradientTransform="matrix(-0.44 -0.72 -0.67 0.41 -1142.2933 -958.8713)">
		<stop  offset="0" style="stop-color:#F390B0;stop-opacity:0.1"/>
		<stop  offset="0.34" style="stop-color:#6ACF93;stop-opacity:0.2"/>
		<stop  offset="0.36" style="stop-color:#6FCA8F;stop-opacity:0.23"/>
		<stop  offset="0.49" style="stop-color:#95AB76;stop-opacity:0.46"/>
		<stop  offset="0.62" style="stop-color:#B59062;stop-opacity:0.66"/>
		<stop  offset="0.73" style="stop-color:#CE7C51;stop-opacity:0.8"/>
		<stop  offset="0.84" style="stop-color:#DF6D46;stop-opacity:0.91"/>
		<stop  offset="0.93" style="stop-color:#EA643F;stop-opacity:0.98"/>
		<stop  offset="1" style="stop-color:#EE613C"/>
	</linearGradient>
	<path class="st6" d="M165.9,324.1l4,5.8c1.2,1.9,0.9,3.5-1.7,3.4l-7.5,0.3c-2.7,0-2.7-2.1-1.8-4.2l3.7-5.5c0.5-0.9,1.7-1.2,2.6-0.6
		C165.5,323.5,165.7,323.8,165.9,324.1z"/>
</g>
<g>
	
		<radialGradient id="SVGID_6_" cx="-1797.6801" cy="-1249.8945" r="38.27" gradientTransform="matrix(1 0 0 -1 0 383.9055)" gradientUnits="userSpaceOnUse">
		<stop  offset="0" style="stop-color:#FFB432"/>
		<stop  offset="4.000000e-02" style="stop-color:#FDA645;stop-opacity:0.9"/>
		<stop  offset="0.13" style="stop-color:#F98B6B;stop-opacity:0.69"/>
		<stop  offset="0.21" style="stop-color:#F5738C;stop-opacity:0.51"/>
		<stop  offset="0.3" style="stop-color:#F361A5;stop-opacity:0.38"/>
		<stop  offset="0.37" style="stop-color:#F155B6;stop-opacity:0.28"/>
		<stop  offset="0.44" style="stop-color:#EF4DC1;stop-opacity:0.22"/>
		<stop  offset="0.5" style="stop-color:#EF4AC5;stop-opacity:0.2"/>
		<stop  offset="1" style="stop-color:#6AE4D4;stop-opacity:0.1"/>
	</radialGradient>
	
		<linearGradient id="SVGID_7_" gradientUnits="userSpaceOnUse" x1="-2108.7134" y1="-571.7639" x2="-2093.7534" y2="-571.7639" gradientTransform="matrix(-0.44 -0.72 -0.67 0.41 -1142.2933 -958.8713)">
		<stop  offset="0" style="stop-color:#F390B0;stop-opacity:0.1"/>
		<stop  offset="0.34" style="stop-color:#6ACF93;stop-opacity:0.2"/>
		<stop  offset="0.36" style="stop-color:#6FCA8F;stop-opacity:0.23"/>
		<stop  offset="0.49" style="stop-color:#95AB76;stop-opacity:0.46"/>
		<stop  offset="0.62" style="stop-color:#B59062;stop-opacity:0.66"/>
		<stop  offset="0.73" style="stop-color:#CE7C51;stop-opacity:0.8"/>
		<stop  offset="0.84" style="stop-color:#DF6D46;stop-opacity:0.91"/>
		<stop  offset="0.93" style="stop-color:#EA643F;stop-opacity:0.98"/>
		<stop  offset="1" style="stop-color:#EE613C"/>
	</linearGradient>
	<path class="st7" d="M165.7,310.4l4,5.8c1.2,1.9,0.9,3.4-1.6,3.4l-7.5,0.3c-2.7,0-2.7-2.1-1.8-4.2l3.7-5.5c0.5-0.9,1.7-1.2,2.6-0.7
		C165.3,309.9,165.5,310.1,165.7,310.4z"/>
</g>
<g>
	
		<radialGradient id="SVGID_8_" cx="-2530.0752" cy="-1111.2885" r="38.27" gradientTransform="matrix(-0.61 -0.17 -0.16 0.57 -1598.005 499.6238)" gradientUnits="userSpaceOnUse">
		<stop  offset="0" style="stop-color:#FFB432"/>
		<stop  offset="4.000000e-02" style="stop-color:#FDA645;stop-opacity:0.9"/>
		<stop  offset="0.13" style="stop-color:#F98B6B;stop-opacity:0.69"/>
		<stop  offset="0.21" style="stop-color:#F5738C;stop-opacity:0.51"/>
		<stop  offset="0.3" style="stop-color:#F361A5;stop-opacity:0.38"/>
		<stop  offset="0.37" style="stop-color:#F155B6;stop-opacity:0.28"/>
		<stop  offset="0.44" style="stop-color:#EF4DC1;stop-opacity:0.22"/>
		<stop  offset="0.5" style="stop-color:#EF4AC5;stop-opacity:0.2"/>
		<stop  offset="1" style="stop-color:#6AE4D4;stop-opacity:0.1"/>
	</radialGradient>
	
		<linearGradient id="SVGID_9_" gradientUnits="userSpaceOnUse" x1="-2140.9998" y1="-275.827" x2="-2126.0396" y2="-275.827" gradientTransform="matrix(-0.81 -0.22 -0.21 0.76 -1657.2098 18.8518)">
		<stop  offset="0" style="stop-color:#F390B0;stop-opacity:0.1"/>
		<stop  offset="0.34" style="stop-color:#6ACF93;stop-opacity:0.2"/>
		<stop  offset="0.36" style="stop-color:#6FCA8F;stop-opacity:0.23"/>
		<stop  offset="0.49" style="stop-color:#95AB76;stop-opacity:0.46"/>
		<stop  offset="0.62" style="stop-color:#B59062;stop-opacity:0.66"/>
		<stop  offset="0.73" style="stop-color:#CE7C51;stop-opacity:0.8"/>
		<stop  offset="0.84" style="stop-color:#DF6D46;stop-opacity:0.91"/>
		<stop  offset="0.93" style="stop-color:#EA643F;stop-opacity:0.98"/>
		<stop  offset="1" style="stop-color:#EE613C"/>
	</linearGradient>
	<path class="st8" d="M124,271.9l6.9,1.5c2.2,0.5,3,1.9,1.1,3.6l-5.3,5.4c-2,1.9-3.4,0.3-4.2-1.8l-1.1-6.5c-0.2-1,0.4-2,1.5-2.3
		C123.4,271.8,123.7,271.8,124,271.9z"/>
</g>
<g>
	
		<radialGradient id="SVGID_10_" cx="-2410.6763" cy="-1568.3447" r="24.58" gradientTransform="matrix(-0.34 -0.54 -0.5 0.32 -1440.9674 -554.4899)" gradientUnits="userSpaceOnUse">
		<stop  offset="0" style="stop-color:#FFB432"/>
		<stop  offset="4.000000e-02" style="stop-color:#FDA645;stop-opacity:0.9"/>
		<stop  offset="0.13" style="stop-color:#F98B6B;stop-opacity:0.69"/>
		<stop  offset="0.21" style="stop-color:#F5738C;stop-opacity:0.51"/>
		<stop  offset="0.3" style="stop-color:#F361A5;stop-opacity:0.38"/>
		<stop  offset="0.37" style="stop-color:#F155B6;stop-opacity:0.28"/>
		<stop  offset="0.44" style="stop-color:#EF4DC1;stop-opacity:0.22"/>
		<stop  offset="0.5" style="stop-color:#EF4AC5;stop-opacity:0.2"/>
		<stop  offset="1" style="stop-color:#6AE4D4;stop-opacity:0.1"/>
	</radialGradient>
	
		<linearGradient id="SVGID_11_" gradientUnits="userSpaceOnUse" x1="-2045.0698" y1="-605.8196" x2="-2035.1097" y2="-605.8196" gradientTransform="matrix(-0.45 -0.71 -0.67 0.42 -1154.8232 -944.0203)">
		<stop  offset="0" style="stop-color:#F390B0;stop-opacity:0.1"/>
		<stop  offset="0.34" style="stop-color:#6ACF93;stop-opacity:0.2"/>
		<stop  offset="0.36" style="stop-color:#6FCA8F;stop-opacity:0.23"/>
		<stop  offset="0.49" style="stop-color:#95AB76;stop-opacity:0.46"/>
		<stop  offset="0.62" style="stop-color:#B59062;stop-opacity:0.66"/>
		<stop  offset="0.73" style="stop-color:#CE7C51;stop-opacity:0.8"/>
		<stop  offset="0.84" style="stop-color:#DF6D46;stop-opacity:0.91"/>
		<stop  offset="0.93" style="stop-color:#EA643F;stop-opacity:0.98"/>
		<stop  offset="1" style="stop-color:#EE613C"/>
	</linearGradient>
	<path class="st9" d="M170.2,245.5l2.6,3.7c0.8,1.2,0.6,2.2-1,2.2l-4.8,0.3c-1.8,0-1.7-1.3-1.2-2.7l2.3-3.5c0.4-0.6,1.1-0.7,1.7-0.4
		C170,245.2,170.1,245.4,170.2,245.5z"/>
</g>
<g>
	
		<radialGradient id="SVGID_12_" cx="-2401.8262" cy="-1583.8247" r="15.55" gradientTransform="matrix(-0.34 -0.54 -0.5 0.32 -1440.9674 -554.4899)" gradientUnits="userSpaceOnUse">
		<stop  offset="0" style="stop-color:#FFB432"/>
		<stop  offset="4.000000e-02" style="stop-color:#FDA645;stop-opacity:0.9"/>
		<stop  offset="0.13" style="stop-color:#F98B6B;stop-opacity:0.69"/>
		<stop  offset="0.21" style="stop-color:#F5738C;stop-opacity:0.51"/>
		<stop  offset="0.3" style="stop-color:#F361A5;stop-opacity:0.38"/>
		<stop  offset="0.37" style="stop-color:#F155B6;stop-opacity:0.28"/>
		<stop  offset="0.44" style="stop-color:#EF4DC1;stop-opacity:0.22"/>
		<stop  offset="0.5" style="stop-color:#EF4AC5;stop-opacity:0.2"/>
		<stop  offset="1" style="stop-color:#6AE4D4;stop-opacity:0.1"/>
	</radialGradient>
	
		<linearGradient id="SVGID_13_" gradientUnits="userSpaceOnUse" x1="-2034.8098" y1="-615.6783" x2="-2028.1398" y2="-615.6783" gradientTransform="matrix(-0.45 -0.71 -0.67 0.42 -1154.8232 -944.0203)">
		<stop  offset="0" style="stop-color:#F390B0;stop-opacity:0.1"/>
		<stop  offset="0.34" style="stop-color:#6ACF93;stop-opacity:0.2"/>
		<stop  offset="0.36" style="stop-color:#6FCA8F;stop-opacity:0.23"/>
		<stop  offset="0.49" style="stop-color:#95AB76;stop-opacity:0.46"/>
		<stop  offset="0.62" style="stop-color:#B59062;stop-opacity:0.66"/>
		<stop  offset="0.73" style="stop-color:#CE7C51;stop-opacity:0.8"/>
		<stop  offset="0.84" style="stop-color:#DF6D46;stop-opacity:0.91"/>
		<stop  offset="0.93" style="stop-color:#EA643F;stop-opacity:0.98"/>
		<stop  offset="1" style="stop-color:#EE613C"/>
	</linearGradient>
	<path class="st10" d="M172.4,236.7l1.7,2.4c0.5,0.8,0.4,1.4-0.6,1.4l-3.1,0.2c-1.1,0-1.1-0.9-0.8-1.7l1.5-2.2
		c0.2-0.4,0.7-0.5,1.1-0.3C172.2,236.5,172.3,236.6,172.4,236.7z"/>
</g>
<g>
	
		<radialGradient id="SVGID_14_" cx="-2508.6558" cy="-1217.5608" r="24.58" gradientTransform="matrix(-0.56 -0.29 -0.27 0.53 -1630.6455 187.7801)" gradientUnits="userSpaceOnUse">
		<stop  offset="0" style="stop-color:#FFB432"/>
		<stop  offset="4.000000e-02" style="stop-color:#FDA645;stop-opacity:0.9"/>
		<stop  offset="0.13" style="stop-color:#F98B6B;stop-opacity:0.69"/>
		<stop  offset="0.21" style="stop-color:#F5738C;stop-opacity:0.51"/>
		<stop  offset="0.3" style="stop-color:#F361A5;stop-opacity:0.38"/>
		<stop  offset="0.37" style="stop-color:#F155B6;stop-opacity:0.28"/>
		<stop  offset="0.44" style="stop-color:#EF4DC1;stop-opacity:0.22"/>
		<stop  offset="0.5" style="stop-color:#EF4AC5;stop-opacity:0.2"/>
		<stop  offset="1" style="stop-color:#6AE4D4;stop-opacity:0.1"/>
	</radialGradient>
	
		<linearGradient id="SVGID_15_" gradientUnits="userSpaceOnUse" x1="-2117.0259" y1="-343.9763" x2="-2107.0659" y2="-343.9763" gradientTransform="matrix(-0.75 -0.38 -0.36 0.7 -1589.0441 -291.974)">
		<stop  offset="0" style="stop-color:#F390B0;stop-opacity:0.1"/>
		<stop  offset="0.34" style="stop-color:#6ACF93;stop-opacity:0.2"/>
		<stop  offset="0.36" style="stop-color:#6FCA8F;stop-opacity:0.23"/>
		<stop  offset="0.49" style="stop-color:#95AB76;stop-opacity:0.46"/>
		<stop  offset="0.62" style="stop-color:#B59062;stop-opacity:0.66"/>
		<stop  offset="0.73" style="stop-color:#CE7C51;stop-opacity:0.8"/>
		<stop  offset="0.84" style="stop-color:#DF6D46;stop-opacity:0.91"/>
		<stop  offset="0.93" style="stop-color:#EA643F;stop-opacity:0.98"/>
		<stop  offset="1" style="stop-color:#EE613C"/>
	</linearGradient>
	<path class="st11" d="M116.5,265l4.2,1.8c1.3,0.6,1.6,1.6,0.2,2.4l-4,2.7c-1.5,0.9-2.2-0.3-2.4-1.7l0.2-4.2c0-0.7,0.6-1.2,1.2-1.2
		C116.2,264.9,116.4,264.9,116.5,265z"/>
</g>
<g>
	
		<radialGradient id="SVGID_16_" cx="-1731.28" cy="-1299.3545" r="38.27" gradientTransform="matrix(1 0 0 -1 0 383.9055)" gradientUnits="userSpaceOnUse">
		<stop  offset="0" style="stop-color:#FFB432"/>
		<stop  offset="4.000000e-02" style="stop-color:#FDA645;stop-opacity:0.9"/>
		<stop  offset="0.13" style="stop-color:#F98B6B;stop-opacity:0.69"/>
		<stop  offset="0.21" style="stop-color:#F5738C;stop-opacity:0.51"/>
		<stop  offset="0.3" style="stop-color:#F361A5;stop-opacity:0.38"/>
		<stop  offset="0.37" style="stop-color:#F155B6;stop-opacity:0.28"/>
		<stop  offset="0.44" style="stop-color:#EF4DC1;stop-opacity:0.22"/>
		<stop  offset="0.5" style="stop-color:#EF4AC5;stop-opacity:0.2"/>
		<stop  offset="1" style="stop-color:#6AE4D4;stop-opacity:0.1"/>
	</radialGradient>
	
		<linearGradient id="SVGID_17_" gradientUnits="userSpaceOnUse" x1="-2058.6333" y1="-609.4465" x2="-2043.6833" y2="-609.4465" gradientTransform="matrix(-0.44 -0.72 -0.67 0.41 -1142.2933 -958.8713)">
		<stop  offset="0" style="stop-color:#F390B0;stop-opacity:0.1"/>
		<stop  offset="0.34" style="stop-color:#6ACF93;stop-opacity:0.2"/>
		<stop  offset="0.36" style="stop-color:#6FCA8F;stop-opacity:0.23"/>
		<stop  offset="0.49" style="stop-color:#95AB76;stop-opacity:0.46"/>
		<stop  offset="0.62" style="stop-color:#B59062;stop-opacity:0.66"/>
		<stop  offset="0.73" style="stop-color:#CE7C51;stop-opacity:0.8"/>
		<stop  offset="0.84" style="stop-color:#DF6D46;stop-opacity:0.91"/>
		<stop  offset="0.93" style="stop-color:#EA643F;stop-opacity:0.98"/>
		<stop  offset="1" style="stop-color:#EE613C"/>
	</linearGradient>
	<path class="st12" d="M169.1,259.2l4,5.8c1.2,1.9,0.9,3.4-1.6,3.4l-7.5,0.3c-2.7,0-2.7-2.1-1.8-4.2l3.7-5.5
		c0.5-0.9,1.7-1.2,2.6-0.7C168.6,258.7,168.9,258.9,169.1,259.2z"/>
</g>
<g>
	
		<radialGradient id="SVGID_18_" cx="-2542.7612" cy="-1379.8101" r="79.58" gradientTransform="matrix(-0.37 -0.51 -0.48 0.35 -1468.8752 -533.1069)" gradientUnits="userSpaceOnUse">
		<stop  offset="0" style="stop-color:#FFB432"/>
		<stop  offset="4.000000e-02" style="stop-color:#FDA645;stop-opacity:0.9"/>
		<stop  offset="0.13" style="stop-color:#F98B6B;stop-opacity:0.69"/>
		<stop  offset="0.21" style="stop-color:#F5738C;stop-opacity:0.51"/>
		<stop  offset="0.3" style="stop-color:#F361A5;stop-opacity:0.38"/>
		<stop  offset="0.37" style="stop-color:#F155B6;stop-opacity:0.28"/>
		<stop  offset="0.44" style="stop-color:#EF4DC1;stop-opacity:0.22"/>
		<stop  offset="0.5" style="stop-color:#EF4AC5;stop-opacity:0.2"/>
		<stop  offset="1" style="stop-color:#6AE4D4;stop-opacity:0.1"/>
	</radialGradient>
	
		<linearGradient id="SVGID_19_" gradientUnits="userSpaceOnUse" x1="-2164.3518" y1="-493.2207" x2="-2134.3218" y2="-493.2207" gradientTransform="matrix(-0.49 -0.68 -0.64 0.46 -1210.6405 -942.8265)">
		<stop  offset="0" style="stop-color:#F390B0;stop-opacity:0.1"/>
		<stop  offset="0.34" style="stop-color:#6ACF93;stop-opacity:0.2"/>
		<stop  offset="0.36" style="stop-color:#6FCA8F;stop-opacity:0.23"/>
		<stop  offset="0.49" style="stop-color:#95AB76;stop-opacity:0.46"/>
		<stop  offset="0.62" style="stop-color:#B59062;stop-opacity:0.66"/>
		<stop  offset="0.73" style="stop-color:#CE7C51;stop-opacity:0.8"/>
		<stop  offset="0.84" style="stop-color:#DF6D46;stop-opacity:0.91"/>
		<stop  offset="0.93" style="stop-color:#EA643F;stop-opacity:0.98"/>
		<stop  offset="1" style="stop-color:#EE613C"/>
	</linearGradient>
	<path class="st13" d="M162.4,279.4l9.3,11.4c2.9,3.7,2.4,7-2.9,7.3l-15.6,1.9c-5.7,0.5-5.9-4-4.5-8.3l6.8-11.9c1-2,3.5-2.7,5.4-1.7
		C161.6,278.4,162.1,278.8,162.4,279.4z"/>
</g>
<g>
	
		<radialGradient id="SVGID_20_" cx="-2890.2444" cy="-503.6329" r="56.03" gradientTransform="matrix(-0.56 -0.3 -0.28 0.52 -1639.7065 -292.361)" gradientUnits="userSpaceOnUse">
		<stop  offset="0" style="stop-color:#FFB432"/>
		<stop  offset="4.000000e-02" style="stop-color:#FDA645;stop-opacity:0.9"/>
		<stop  offset="0.13" style="stop-color:#F98B6B;stop-opacity:0.69"/>
		<stop  offset="0.21" style="stop-color:#F5738C;stop-opacity:0.51"/>
		<stop  offset="0.3" style="stop-color:#F361A5;stop-opacity:0.38"/>
		<stop  offset="0.37" style="stop-color:#F155B6;stop-opacity:0.28"/>
		<stop  offset="0.44" style="stop-color:#EF4DC1;stop-opacity:0.22"/>
		<stop  offset="0.5" style="stop-color:#EF4AC5;stop-opacity:0.2"/>
		<stop  offset="1" style="stop-color:#6AE4D4;stop-opacity:0.1"/>
	</radialGradient>
	
		<linearGradient id="SVGID_21_" gradientUnits="userSpaceOnUse" x1="-2419.4702" y1="180.9462" x2="-2398.04" y2="180.9462" gradientTransform="matrix(-0.74 -0.4 -0.38 0.69 -1581.4961 -773.7348)">
		<stop  offset="0" style="stop-color:#F390B0;stop-opacity:0.1"/>
		<stop  offset="0.34" style="stop-color:#6ACF93;stop-opacity:0.2"/>
		<stop  offset="0.36" style="stop-color:#6FCA8F;stop-opacity:0.23"/>
		<stop  offset="0.49" style="stop-color:#95AB76;stop-opacity:0.46"/>
		<stop  offset="0.62" style="stop-color:#B59062;stop-opacity:0.66"/>
		<stop  offset="0.73" style="stop-color:#CE7C51;stop-opacity:0.8"/>
		<stop  offset="0.84" style="stop-color:#DF6D46;stop-opacity:0.91"/>
		<stop  offset="0.93" style="stop-color:#EA643F;stop-opacity:0.98"/>
		<stop  offset="1" style="stop-color:#EE613C"/>
	</linearGradient>
	<path class="st14" d="M127.7,303.6l9.3,4.4c2.9,1.5,3.6,3.7,0.4,5.5l-9.3,5.9c-3.5,2-5-0.7-5.4-3.9l0.7-9.6c0-1.5,1.3-2.8,2.8-2.7
		C126.7,303.2,127.2,303.3,127.7,303.6z"/>
</g>
<g>
	
		<radialGradient id="SVGID_22_" cx="-3.1325" cy="1675.5709" r="56.03" gradientTransform="matrix(0.47 -0.43 0.4 0.44 -451.2222 -429.6684)" gradientUnits="userSpaceOnUse">
		<stop  offset="0" style="stop-color:#FFB432"/>
		<stop  offset="4.000000e-02" style="stop-color:#FDA645;stop-opacity:0.9"/>
		<stop  offset="0.13" style="stop-color:#F98B6B;stop-opacity:0.69"/>
		<stop  offset="0.21" style="stop-color:#F5738C;stop-opacity:0.51"/>
		<stop  offset="0.3" style="stop-color:#F361A5;stop-opacity:0.38"/>
		<stop  offset="0.37" style="stop-color:#F155B6;stop-opacity:0.28"/>
		<stop  offset="0.44" style="stop-color:#EF4DC1;stop-opacity:0.22"/>
		<stop  offset="0.5" style="stop-color:#EF4AC5;stop-opacity:0.2"/>
		<stop  offset="1" style="stop-color:#6AE4D4;stop-opacity:0.1"/>
	</radialGradient>
	
		<linearGradient id="SVGID_23_" gradientUnits="userSpaceOnUse" x1="-242.5674" y1="1826.2886" x2="-221.1275" y2="1826.2886" gradientTransform="matrix(0.62 -0.57 0.53 0.58 -620.9699 -881.8552)">
		<stop  offset="0" style="stop-color:#F390B0;stop-opacity:0.1"/>
		<stop  offset="0.34" style="stop-color:#6ACF93;stop-opacity:0.2"/>
		<stop  offset="0.36" style="stop-color:#6FCA8F;stop-opacity:0.23"/>
		<stop  offset="0.49" style="stop-color:#95AB76;stop-opacity:0.46"/>
		<stop  offset="0.62" style="stop-color:#B59062;stop-opacity:0.66"/>
		<stop  offset="0.73" style="stop-color:#CE7C51;stop-opacity:0.8"/>
		<stop  offset="0.84" style="stop-color:#DF6D46;stop-opacity:0.91"/>
		<stop  offset="0.93" style="stop-color:#EA643F;stop-opacity:0.98"/>
		<stop  offset="1" style="stop-color:#EE613C"/>
	</linearGradient>
	<path class="st15" d="M204.8,297.8l-8,6.6c-2.5,2.1-2.6,4.5,0.9,5.5l10.5,3.5c3.9,1.1,4.6-1.9,4.3-5.1l-3-9.2
		c-0.4-1.5-1.9-2.4-3.4-2C205.6,297.2,205.2,297.4,204.8,297.8z"/>
</g>
<g>
	
		<radialGradient id="SVGID_24_" cx="-2940.8147" cy="-159.6316" r="41.89" gradientTransform="matrix(-0.6 -0.21 -0.2 0.56 -1682.569 -204.5971)" gradientUnits="userSpaceOnUse">
		<stop  offset="0" style="stop-color:#FFB432"/>
		<stop  offset="4.000000e-02" style="stop-color:#FDA645;stop-opacity:0.9"/>
		<stop  offset="0.13" style="stop-color:#F98B6B;stop-opacity:0.69"/>
		<stop  offset="0.21" style="stop-color:#F5738C;stop-opacity:0.51"/>
		<stop  offset="0.3" style="stop-color:#F361A5;stop-opacity:0.38"/>
		<stop  offset="0.37" style="stop-color:#F155B6;stop-opacity:0.28"/>
		<stop  offset="0.44" style="stop-color:#EF4DC1;stop-opacity:0.22"/>
		<stop  offset="0.5" style="stop-color:#EF4AC5;stop-opacity:0.2"/>
		<stop  offset="1" style="stop-color:#6AE4D4;stop-opacity:0.1"/>
	</radialGradient>
	
		<linearGradient id="SVGID_25_" gradientUnits="userSpaceOnUse" x1="-2454.1948" y1="447.837" x2="-2437.9314" y2="447.837" gradientTransform="matrix(-0.79 -0.28 -0.27 0.74 -1698.6356 -687.2201)">
		<stop  offset="0" style="stop-color:#F390B0;stop-opacity:0.1"/>
		<stop  offset="0.34" style="stop-color:#6ACF93;stop-opacity:0.2"/>
		<stop  offset="0.36" style="stop-color:#6FCA8F;stop-opacity:0.23"/>
		<stop  offset="0.49" style="stop-color:#95AB76;stop-opacity:0.46"/>
		<stop  offset="0.62" style="stop-color:#B59062;stop-opacity:0.66"/>
		<stop  offset="0.73" style="stop-color:#CE7C51;stop-opacity:0.8"/>
		<stop  offset="0.84" style="stop-color:#DF6D46;stop-opacity:0.91"/>
		<stop  offset="0.93" style="stop-color:#EA643F;stop-opacity:0.98"/>
		<stop  offset="1" style="stop-color:#EE613C"/>
	</linearGradient>
	<path class="st16" d="M113.1,323.2l7.4,2.2c2.3,0.7,3.1,2.3,0.9,4l-6.2,5.4c-2.3,1.9-3.8,0-4.4-2.3l-0.6-7.2
		c-0.1-1.1,0.7-2.2,1.8-2.3C112.4,323,112.8,323.1,113.1,323.2z"/>
</g>
<path class="st17" d="M226.6,318.8c-2-0.7-3.5-2.6-3.6-4.8c-0.1-2.5,2.9-3.5,4.6-3.4c2.4,0.1,3.6,3.1,3.6,5.1
	S228.3,317.6,226.6,318.8z"/>
<path class="st18" d="M302.6,327.6c-1.5,0.1-2.9-0.2-2.5-1.9c0.5-2.4,1.2-5,4.2-5.4c2-0.3,3.5,0.8,3.4,2.7
	C307.7,326.2,305,326.9,302.6,327.6z"/>
<path class="st19" d="M304.9,165.4c0.1,1.3,0.1,2.4-1.4,2c-2.2-0.7-4.9-1-4.9-4.3c0-2.2,1.3-3.6,3.3-3.5
	C305.9,160,303.7,163.8,304.9,165.4z"/>
<path class="st17" d="M209,309.9c2.1,0.8,4.6,1,4.8,3.6c0.1,1.7-1.2,3.6-2.9,3.6c-2.3-0.1-4.3-1.8-4.7-4.1
	C205.8,311.1,207.7,310.6,209,309.9z"/>
<path class="st20" d="M331.5,205.7c-2.3-0.3-3.6-1.4-3.4-3.7c0.1-1.9,1.7-3.4,3.6-3.3h0.1c2.2-0.1,3.2,1.5,3.1,3.6
	C334.9,204.7,333.3,205.4,331.5,205.7z"/>
<path class="st21" d="M116.7,324c-0.1,2.3-1.5,3.3-3.8,3.3c-1.7,0-3.3-0.6-3-2.6s0.7-4.3,3.6-4.1C115.5,320.7,116.6,321.8,116.7,324
	z"/>
<path class="st20" d="M324.6,186.3c2.1,0.2,3.9,0.9,3.8,3.4c0.1,1.7-1.2,3.1-2.8,3.2c-0.1,0-0.2,0-0.4,0c-1.8,0.2-3.5-1.1-3.7-2.9
	c0-0.2,0-0.5,0-0.7C321.5,187.6,322.4,186.1,324.6,186.3z"/>
<path class="st20" d="M336.8,121.5c1.2,0.1,2.6,0.5,2.4,2.6s-1.4,3.7-3.7,3.8c-1.8,0.1-3.1-0.9-3-2.7
	C332.6,123,334,121.7,336.8,121.5z"/>
<path class="st20" d="M318.9,176c-0.1,1.5-1.3,2.6-2.8,2.5c-0.1,0-0.3,0-0.4-0.1c-1.4-0.1-2.9-0.5-2.9-2.3c-0.1-1.6,1.1-3,2.7-3.1
	c0.1,0,0.3,0,0.4,0C317.5,173,318.6,174.2,318.9,176z"/>
<path class="st17" d="M108.1,340.5c-1.7-0.2-2.2-1.1-2.1-2.6c0.1-1.9,0.5-3.4,2.7-3.5c1.5-0.1,2.8,0.6,2.7,2.4
	C111.3,338.7,109.9,340.2,108.1,340.5z"/>
<path class="st21" d="M244.7,209.9c0.2-1.7,0.1-3.9,2.8-3.5c2,0.2,2.2,1.9,2,3.6c-0.2,2.1-1.3,3.1-3.4,2.8
	C244.5,212.5,244.1,211.5,244.7,209.9z"/>
<path class="st21" d="M247.8,199.9c-1.2-0.4-3-0.6-2.4-2.5c0.4-1.2,0.1-3.5,2.5-3.1c1.6,0.2,3.1,0.9,3,2.8
	C250.8,198.8,249.7,199.8,247.8,199.9z"/>
<path class="st20" d="M138.3,312.8c-1.2,0-2.8,0.3-2.7-1.7c0-1.5,1.2-2.7,2.6-2.7c0.1,0,0.2,0,0.4,0c1.7,0.1,3.1,1.2,3,2.8
	C141.5,313,139.6,312.6,138.3,312.8z"/>
<path class="st21" d="M170.8,296.8c1.4,0.3,2.6,0.8,2.4,2.5c-0.2,1.6-1.6,2.7-3.2,2.6c0,0,0,0-0.1,0c-1,0-2.1-0.3-2-1.6
	C168.1,298.6,169.3,297.2,170.8,296.8z"/>
<path class="st17" d="M111.6,255.4c1.4,0.3,2.6,0.8,2.4,2.5s-1.5,2.6-3.2,2.6c-1,0-2.1-0.3-2-1.6C108.9,257.3,110,255.9,111.6,255.4
	z"/>
<path class="st17" d="M159.9,301.7c-1.7,0-2.6-0.6-2.4-2s1-2.7,2.7-2.7c1.2,0,2.2,0.6,2.1,2.1C162.2,300.9,160.9,301.4,159.9,301.7z
	"/>
<path class="st18" d="M320.7,320.1c-0.6,0.9-1,2.2-2.7,1.9c-0.6-0.2-0.9-0.8-1-1.4c0.2-1,0.3-2.4,2-2.5
	C320.3,318.2,320.6,319.1,320.7,320.1z"/>
<path class="st20" d="M312.6,187c-1.5,0-2-0.8-2.7-1.9C311.4,184.9,311.9,185.7,312.6,187z"/>
</svg>
